<?xml version="1.0" encoding="utf-8" standalone="no"?>
<!DOCTYPE svg PUBLIC "-//W3C//DTD SVG 1.1//EN"
  "http://www.w3.org/Graphics/SVG/1.1/DTD/svg11.dtd">
<svg xmlns:xlink="http://www.w3.org/1999/xlink" width="639.43692pt" height="388.474375pt" viewBox="0 0 639.43692 388.474375" xmlns="http://www.w3.org/2000/svg" version="1.1">
 <metadata>
  <rdf:RDF xmlns:dc="http://purl.org/dc/elements/1.1/" xmlns:cc="http://creativecommons.org/ns#" xmlns:rdf="http://www.w3.org/1999/02/22-rdf-syntax-ns#">
   <cc:Work>
    <dc:type rdf:resource="http://purl.org/dc/dcmitype/StillImage"/>
    <dc:date>2026-06-04T22:08:04.420976</dc:date>
    <dc:format>image/svg+xml</dc:format>
    <dc:creator>
     <cc:Agent>
      <dc:title>Matplotlib v3.9.2, https://matplotlib.org/</dc:title>
     </cc:Agent>
    </dc:creator>
   </cc:Work>
  </rdf:RDF>
 </metadata>
 <defs>
  <style type="text/css">*{stroke-linejoin: round; stroke-linecap: butt}</style>
 </defs>
 <g id="figure_1">
  <g id="patch_1">
   <path d="M 0 388.474375 
L 639.43692 388.474375 
L 639.43692 0 
L 0 0 
z
" style="fill: #ffffff"/>
  </g>
  <g id="axes_1">
   <g id="patch_2">
    <path d="M 43.78125 350.918125 
L 508.82725 350.918125 
L 508.82725 22.318125 
L 43.78125 22.318125 
z
" style="fill: #ffffff"/>
   </g>
   <g id="matplotlib.axis_1">
    <g id="xtick_1">
     <g id="line2d_1">
      <path d="M 64.919705 350.918125 
L 64.919705 22.318125 
" clip-path="url(#pcd936bda18)" style="fill: none; stroke: #b0b0b0; stroke-opacity: 0.25; stroke-width: 0.8; stroke-linecap: square"/>
     </g>
     <g id="line2d_2">
      <defs>
       <path id="m00ed1ad289" d="M 0 0 
L 0 3.5 
" style="stroke: #000000; stroke-width: 0.8"/>
      </defs>
      <g>
       <use xlink:href="#m00ed1ad289" x="64.919705" y="350.918125" style="stroke: #000000; stroke-width: 0.8"/>
      </g>
     </g>
     <g id="text_1">
      <!-- 0.0 -->
      <g transform="translate(56.968142 365.516562) scale(0.1 -0.1)">
       <defs>
        <path id="DejaVuSans-30" d="M 2034 4250 
Q 1547 4250 1301 3770 
Q 1056 3291 1056 2328 
Q 1056 1369 1301 889 
Q 1547 409 2034 409 
Q 2525 409 2770 889 
Q 3016 1369 3016 2328 
Q 3016 3291 2770 3770 
Q 2525 4250 2034 4250 
z
M 2034 4750 
Q 2819 4750 3233 4129 
Q 3647 3509 3647 2328 
Q 3647 1150 3233 529 
Q 2819 -91 2034 -91 
Q 1250 -91 836 529 
Q 422 1150 422 2328 
Q 422 3509 836 4129 
Q 1250 4750 2034 4750 
z
" transform="scale(0.015625)"/>
        <path id="DejaVuSans-2e" d="M 684 794 
L 1344 794 
L 1344 0 
L 684 0 
L 684 794 
z
" transform="scale(0.015625)"/>
       </defs>
       <use xlink:href="#DejaVuSans-30"/>
       <use xlink:href="#DejaVuSans-2e" x="63.623047"/>
       <use xlink:href="#DejaVuSans-30" x="95.410156"/>
      </g>
     </g>
    </g>
    <g id="xtick_2">
     <g id="line2d_3">
      <path d="M 117.765841 350.918125 
L 117.765841 22.318125 
" clip-path="url(#pcd936bda18)" style="fill: none; stroke: #b0b0b0; stroke-opacity: 0.25; stroke-width: 0.8; stroke-linecap: square"/>
     </g>
     <g id="line2d_4">
      <g>
       <use xlink:href="#m00ed1ad289" x="117.765841" y="350.918125" style="stroke: #000000; stroke-width: 0.8"/>
      </g>
     </g>
     <g id="text_2">
      <!-- 2.5 -->
      <g transform="translate(109.814278 365.516562) scale(0.1 -0.1)">
       <defs>
        <path id="DejaVuSans-32" d="M 1228 531 
L 3431 531 
L 3431 0 
L 469 0 
L 469 531 
Q 828 903 1448 1529 
Q 2069 2156 2228 2338 
Q 2531 2678 2651 2914 
Q 2772 3150 2772 3378 
Q 2772 3750 2511 3984 
Q 2250 4219 1831 4219 
Q 1534 4219 1204 4116 
Q 875 4013 500 3803 
L 500 4441 
Q 881 4594 1212 4672 
Q 1544 4750 1819 4750 
Q 2544 4750 2975 4387 
Q 3406 4025 3406 3419 
Q 3406 3131 3298 2873 
Q 3191 2616 2906 2266 
Q 2828 2175 2409 1742 
Q 1991 1309 1228 531 
z
" transform="scale(0.015625)"/>
        <path id="DejaVuSans-35" d="M 691 4666 
L 3169 4666 
L 3169 4134 
L 1269 4134 
L 1269 2991 
Q 1406 3038 1543 3061 
Q 1681 3084 1819 3084 
Q 2600 3084 3056 2656 
Q 3513 2228 3513 1497 
Q 3513 744 3044 326 
Q 2575 -91 1722 -91 
Q 1428 -91 1123 -41 
Q 819 9 494 109 
L 494 744 
Q 775 591 1075 516 
Q 1375 441 1709 441 
Q 2250 441 2565 725 
Q 2881 1009 2881 1497 
Q 2881 1984 2565 2268 
Q 2250 2553 1709 2553 
Q 1456 2553 1204 2497 
Q 953 2441 691 2322 
L 691 4666 
z
" transform="scale(0.015625)"/>
       </defs>
       <use xlink:href="#DejaVuSans-32"/>
       <use xlink:href="#DejaVuSans-2e" x="63.623047"/>
       <use xlink:href="#DejaVuSans-35" x="95.410156"/>
      </g>
     </g>
    </g>
    <g id="xtick_3">
     <g id="line2d_5">
      <path d="M 170.611977 350.918125 
L 170.611977 22.318125 
" clip-path="url(#pcd936bda18)" style="fill: none; stroke: #b0b0b0; stroke-opacity: 0.25; stroke-width: 0.8; stroke-linecap: square"/>
     </g>
     <g id="line2d_6">
      <g>
       <use xlink:href="#m00ed1ad289" x="170.611977" y="350.918125" style="stroke: #000000; stroke-width: 0.8"/>
      </g>
     </g>
     <g id="text_3">
      <!-- 5.0 -->
      <g transform="translate(162.660415 365.516562) scale(0.1 -0.1)">
       <use xlink:href="#DejaVuSans-35"/>
       <use xlink:href="#DejaVuSans-2e" x="63.623047"/>
       <use xlink:href="#DejaVuSans-30" x="95.410156"/>
      </g>
     </g>
    </g>
    <g id="xtick_4">
     <g id="line2d_7">
      <path d="M 223.458114 350.918125 
L 223.458114 22.318125 
" clip-path="url(#pcd936bda18)" style="fill: none; stroke: #b0b0b0; stroke-opacity: 0.25; stroke-width: 0.8; stroke-linecap: square"/>
     </g>
     <g id="line2d_8">
      <g>
       <use xlink:href="#m00ed1ad289" x="223.458114" y="350.918125" style="stroke: #000000; stroke-width: 0.8"/>
      </g>
     </g>
     <g id="text_4">
      <!-- 7.5 -->
      <g transform="translate(215.506551 365.516562) scale(0.1 -0.1)">
       <defs>
        <path id="DejaVuSans-37" d="M 525 4666 
L 3525 4666 
L 3525 4397 
L 1831 0 
L 1172 0 
L 2766 4134 
L 525 4134 
L 525 4666 
z
" transform="scale(0.015625)"/>
       </defs>
       <use xlink:href="#DejaVuSans-37"/>
       <use xlink:href="#DejaVuSans-2e" x="63.623047"/>
       <use xlink:href="#DejaVuSans-35" x="95.410156"/>
      </g>
     </g>
    </g>
    <g id="xtick_5">
     <g id="line2d_9">
      <path d="M 276.30425 350.918125 
L 276.30425 22.318125 
" clip-path="url(#pcd936bda18)" style="fill: none; stroke: #b0b0b0; stroke-opacity: 0.25; stroke-width: 0.8; stroke-linecap: square"/>
     </g>
     <g id="line2d_10">
      <g>
       <use xlink:href="#m00ed1ad289" x="276.30425" y="350.918125" style="stroke: #000000; stroke-width: 0.8"/>
      </g>
     </g>
     <g id="text_5">
      <!-- 10.0 -->
      <g transform="translate(265.171438 365.516562) scale(0.1 -0.1)">
       <defs>
        <path id="DejaVuSans-31" d="M 794 531 
L 1825 531 
L 1825 4091 
L 703 3866 
L 703 4441 
L 1819 4666 
L 2450 4666 
L 2450 531 
L 3481 531 
L 3481 0 
L 794 0 
L 794 531 
z
" transform="scale(0.015625)"/>
       </defs>
       <use xlink:href="#DejaVuSans-31"/>
       <use xlink:href="#DejaVuSans-30" x="63.623047"/>
       <use xlink:href="#DejaVuSans-2e" x="127.246094"/>
       <use xlink:href="#DejaVuSans-30" x="159.033203"/>
      </g>
     </g>
    </g>
    <g id="xtick_6">
     <g id="line2d_11">
      <path d="M 329.150386 350.918125 
L 329.150386 22.318125 
" clip-path="url(#pcd936bda18)" style="fill: none; stroke: #b0b0b0; stroke-opacity: 0.25; stroke-width: 0.8; stroke-linecap: square"/>
     </g>
     <g id="line2d_12">
      <g>
       <use xlink:href="#m00ed1ad289" x="329.150386" y="350.918125" style="stroke: #000000; stroke-width: 0.8"/>
      </g>
     </g>
     <g id="text_6">
      <!-- 12.5 -->
      <g transform="translate(318.017574 365.516562) scale(0.1 -0.1)">
       <use xlink:href="#DejaVuSans-31"/>
       <use xlink:href="#DejaVuSans-32" x="63.623047"/>
       <use xlink:href="#DejaVuSans-2e" x="127.246094"/>
       <use xlink:href="#DejaVuSans-35" x="159.033203"/>
      </g>
     </g>
    </g>
    <g id="xtick_7">
     <g id="line2d_13">
      <path d="M 381.996523 350.918125 
L 381.996523 22.318125 
" clip-path="url(#pcd936bda18)" style="fill: none; stroke: #b0b0b0; stroke-opacity: 0.25; stroke-width: 0.8; stroke-linecap: square"/>
     </g>
     <g id="line2d_14">
      <g>
       <use xlink:href="#m00ed1ad289" x="381.996523" y="350.918125" style="stroke: #000000; stroke-width: 0.8"/>
      </g>
     </g>
     <g id="text_7">
      <!-- 15.0 -->
      <g transform="translate(370.86371 365.516562) scale(0.1 -0.1)">
       <use xlink:href="#DejaVuSans-31"/>
       <use xlink:href="#DejaVuSans-35" x="63.623047"/>
       <use xlink:href="#DejaVuSans-2e" x="127.246094"/>
       <use xlink:href="#DejaVuSans-30" x="159.033203"/>
      </g>
     </g>
    </g>
    <g id="xtick_8">
     <g id="line2d_15">
      <path d="M 434.842659 350.918125 
L 434.842659 22.318125 
" clip-path="url(#pcd936bda18)" style="fill: none; stroke: #b0b0b0; stroke-opacity: 0.25; stroke-width: 0.8; stroke-linecap: square"/>
     </g>
     <g id="line2d_16">
      <g>
       <use xlink:href="#m00ed1ad289" x="434.842659" y="350.918125" style="stroke: #000000; stroke-width: 0.8"/>
      </g>
     </g>
     <g id="text_8">
      <!-- 17.5 -->
      <g transform="translate(423.709847 365.516562) scale(0.1 -0.1)">
       <use xlink:href="#DejaVuSans-31"/>
       <use xlink:href="#DejaVuSans-37" x="63.623047"/>
       <use xlink:href="#DejaVuSans-2e" x="127.246094"/>
       <use xlink:href="#DejaVuSans-35" x="159.033203"/>
      </g>
     </g>
    </g>
    <g id="xtick_9">
     <g id="line2d_17">
      <path d="M 487.688795 350.918125 
L 487.688795 22.318125 
" clip-path="url(#pcd936bda18)" style="fill: none; stroke: #b0b0b0; stroke-opacity: 0.25; stroke-width: 0.8; stroke-linecap: square"/>
     </g>
     <g id="line2d_18">
      <g>
       <use xlink:href="#m00ed1ad289" x="487.688795" y="350.918125" style="stroke: #000000; stroke-width: 0.8"/>
      </g>
     </g>
     <g id="text_9">
      <!-- 20.0 -->
      <g transform="translate(476.555983 365.516562) scale(0.1 -0.1)">
       <use xlink:href="#DejaVuSans-32"/>
       <use xlink:href="#DejaVuSans-30" x="63.623047"/>
       <use xlink:href="#DejaVuSans-2e" x="127.246094"/>
       <use xlink:href="#DejaVuSans-30" x="159.033203"/>
      </g>
     </g>
    </g>
    <g id="text_10">
     <!-- Training contamination / label flip rate (%) -->
     <g transform="translate(170.674563 379.194687) scale(0.1 -0.1)">
      <defs>
       <path id="DejaVuSans-54" d="M -19 4666 
L 3928 4666 
L 3928 4134 
L 2272 4134 
L 2272 0 
L 1638 0 
L 1638 4134 
L -19 4134 
L -19 4666 
z
" transform="scale(0.015625)"/>
       <path id="DejaVuSans-72" d="M 2631 2963 
Q 2534 3019 2420 3045 
Q 2306 3072 2169 3072 
Q 1681 3072 1420 2755 
Q 1159 2438 1159 1844 
L 1159 0 
L 581 0 
L 581 3500 
L 1159 3500 
L 1159 2956 
Q 1341 3275 1631 3429 
Q 1922 3584 2338 3584 
Q 2397 3584 2469 3576 
Q 2541 3569 2628 3553 
L 2631 2963 
z
" transform="scale(0.015625)"/>
       <path id="DejaVuSans-61" d="M 2194 1759 
Q 1497 1759 1228 1600 
Q 959 1441 959 1056 
Q 959 750 1161 570 
Q 1363 391 1709 391 
Q 2188 391 2477 730 
Q 2766 1069 2766 1631 
L 2766 1759 
L 2194 1759 
z
M 3341 1997 
L 3341 0 
L 2766 0 
L 2766 531 
Q 2569 213 2275 61 
Q 1981 -91 1556 -91 
Q 1019 -91 701 211 
Q 384 513 384 1019 
Q 384 1609 779 1909 
Q 1175 2209 1959 2209 
L 2766 2209 
L 2766 2266 
Q 2766 2663 2505 2880 
Q 2244 3097 1772 3097 
Q 1472 3097 1187 3025 
Q 903 2953 641 2809 
L 641 3341 
Q 956 3463 1253 3523 
Q 1550 3584 1831 3584 
Q 2591 3584 2966 3190 
Q 3341 2797 3341 1997 
z
" transform="scale(0.015625)"/>
       <path id="DejaVuSans-69" d="M 603 3500 
L 1178 3500 
L 1178 0 
L 603 0 
L 603 3500 
z
M 603 4863 
L 1178 4863 
L 1178 4134 
L 603 4134 
L 603 4863 
z
" transform="scale(0.015625)"/>
       <path id="DejaVuSans-6e" d="M 3513 2113 
L 3513 0 
L 2938 0 
L 2938 2094 
Q 2938 2591 2744 2837 
Q 2550 3084 2163 3084 
Q 1697 3084 1428 2787 
Q 1159 2491 1159 1978 
L 1159 0 
L 581 0 
L 581 3500 
L 1159 3500 
L 1159 2956 
Q 1366 3272 1645 3428 
Q 1925 3584 2291 3584 
Q 2894 3584 3203 3211 
Q 3513 2838 3513 2113 
z
" transform="scale(0.015625)"/>
       <path id="DejaVuSans-67" d="M 2906 1791 
Q 2906 2416 2648 2759 
Q 2391 3103 1925 3103 
Q 1463 3103 1205 2759 
Q 947 2416 947 1791 
Q 947 1169 1205 825 
Q 1463 481 1925 481 
Q 2391 481 2648 825 
Q 2906 1169 2906 1791 
z
M 3481 434 
Q 3481 -459 3084 -895 
Q 2688 -1331 1869 -1331 
Q 1566 -1331 1297 -1286 
Q 1028 -1241 775 -1147 
L 775 -588 
Q 1028 -725 1275 -790 
Q 1522 -856 1778 -856 
Q 2344 -856 2625 -561 
Q 2906 -266 2906 331 
L 2906 616 
Q 2728 306 2450 153 
Q 2172 0 1784 0 
Q 1141 0 747 490 
Q 353 981 353 1791 
Q 353 2603 747 3093 
Q 1141 3584 1784 3584 
Q 2172 3584 2450 3431 
Q 2728 3278 2906 2969 
L 2906 3500 
L 3481 3500 
L 3481 434 
z
" transform="scale(0.015625)"/>
       <path id="DejaVuSans-20" transform="scale(0.015625)"/>
       <path id="DejaVuSans-63" d="M 3122 3366 
L 3122 2828 
Q 2878 2963 2633 3030 
Q 2388 3097 2138 3097 
Q 1578 3097 1268 2742 
Q 959 2388 959 1747 
Q 959 1106 1268 751 
Q 1578 397 2138 397 
Q 2388 397 2633 464 
Q 2878 531 3122 666 
L 3122 134 
Q 2881 22 2623 -34 
Q 2366 -91 2075 -91 
Q 1284 -91 818 406 
Q 353 903 353 1747 
Q 353 2603 823 3093 
Q 1294 3584 2113 3584 
Q 2378 3584 2631 3529 
Q 2884 3475 3122 3366 
z
" transform="scale(0.015625)"/>
       <path id="DejaVuSans-6f" d="M 1959 3097 
Q 1497 3097 1228 2736 
Q 959 2375 959 1747 
Q 959 1119 1226 758 
Q 1494 397 1959 397 
Q 2419 397 2687 759 
Q 2956 1122 2956 1747 
Q 2956 2369 2687 2733 
Q 2419 3097 1959 3097 
z
M 1959 3584 
Q 2709 3584 3137 3096 
Q 3566 2609 3566 1747 
Q 3566 888 3137 398 
Q 2709 -91 1959 -91 
Q 1206 -91 779 398 
Q 353 888 353 1747 
Q 353 2609 779 3096 
Q 1206 3584 1959 3584 
z
" transform="scale(0.015625)"/>
       <path id="DejaVuSans-74" d="M 1172 4494 
L 1172 3500 
L 2356 3500 
L 2356 3053 
L 1172 3053 
L 1172 1153 
Q 1172 725 1289 603 
Q 1406 481 1766 481 
L 2356 481 
L 2356 0 
L 1766 0 
Q 1100 0 847 248 
Q 594 497 594 1153 
L 594 3053 
L 172 3053 
L 172 3500 
L 594 3500 
L 594 4494 
L 1172 4494 
z
" transform="scale(0.015625)"/>
       <path id="DejaVuSans-6d" d="M 3328 2828 
Q 3544 3216 3844 3400 
Q 4144 3584 4550 3584 
Q 5097 3584 5394 3201 
Q 5691 2819 5691 2113 
L 5691 0 
L 5113 0 
L 5113 2094 
Q 5113 2597 4934 2840 
Q 4756 3084 4391 3084 
Q 3944 3084 3684 2787 
Q 3425 2491 3425 1978 
L 3425 0 
L 2847 0 
L 2847 2094 
Q 2847 2600 2669 2842 
Q 2491 3084 2119 3084 
Q 1678 3084 1418 2786 
Q 1159 2488 1159 1978 
L 1159 0 
L 581 0 
L 581 3500 
L 1159 3500 
L 1159 2956 
Q 1356 3278 1631 3431 
Q 1906 3584 2284 3584 
Q 2666 3584 2933 3390 
Q 3200 3197 3328 2828 
z
" transform="scale(0.015625)"/>
       <path id="DejaVuSans-2f" d="M 1625 4666 
L 2156 4666 
L 531 -594 
L 0 -594 
L 1625 4666 
z
" transform="scale(0.015625)"/>
       <path id="DejaVuSans-6c" d="M 603 4863 
L 1178 4863 
L 1178 0 
L 603 0 
L 603 4863 
z
" transform="scale(0.015625)"/>
       <path id="DejaVuSans-62" d="M 3116 1747 
Q 3116 2381 2855 2742 
Q 2594 3103 2138 3103 
Q 1681 3103 1420 2742 
Q 1159 2381 1159 1747 
Q 1159 1113 1420 752 
Q 1681 391 2138 391 
Q 2594 391 2855 752 
Q 3116 1113 3116 1747 
z
M 1159 2969 
Q 1341 3281 1617 3432 
Q 1894 3584 2278 3584 
Q 2916 3584 3314 3078 
Q 3713 2572 3713 1747 
Q 3713 922 3314 415 
Q 2916 -91 2278 -91 
Q 1894 -91 1617 61 
Q 1341 213 1159 525 
L 1159 0 
L 581 0 
L 581 4863 
L 1159 4863 
L 1159 2969 
z
" transform="scale(0.015625)"/>
       <path id="DejaVuSans-65" d="M 3597 1894 
L 3597 1613 
L 953 1613 
Q 991 1019 1311 708 
Q 1631 397 2203 397 
Q 2534 397 2845 478 
Q 3156 559 3463 722 
L 3463 178 
Q 3153 47 2828 -22 
Q 2503 -91 2169 -91 
Q 1331 -91 842 396 
Q 353 884 353 1716 
Q 353 2575 817 3079 
Q 1281 3584 2069 3584 
Q 2775 3584 3186 3129 
Q 3597 2675 3597 1894 
z
M 3022 2063 
Q 3016 2534 2758 2815 
Q 2500 3097 2075 3097 
Q 1594 3097 1305 2825 
Q 1016 2553 972 2059 
L 3022 2063 
z
" transform="scale(0.015625)"/>
       <path id="DejaVuSans-66" d="M 2375 4863 
L 2375 4384 
L 1825 4384 
Q 1516 4384 1395 4259 
Q 1275 4134 1275 3809 
L 1275 3500 
L 2222 3500 
L 2222 3053 
L 1275 3053 
L 1275 0 
L 697 0 
L 697 3053 
L 147 3053 
L 147 3500 
L 697 3500 
L 697 3744 
Q 697 4328 969 4595 
Q 1241 4863 1831 4863 
L 2375 4863 
z
" transform="scale(0.015625)"/>
       <path id="DejaVuSans-70" d="M 1159 525 
L 1159 -1331 
L 581 -1331 
L 581 3500 
L 1159 3500 
L 1159 2969 
Q 1341 3281 1617 3432 
Q 1894 3584 2278 3584 
Q 2916 3584 3314 3078 
Q 3713 2572 3713 1747 
Q 3713 922 3314 415 
Q 2916 -91 2278 -91 
Q 1894 -91 1617 61 
Q 1341 213 1159 525 
z
M 3116 1747 
Q 3116 2381 2855 2742 
Q 2594 3103 2138 3103 
Q 1681 3103 1420 2742 
Q 1159 2381 1159 1747 
Q 1159 1113 1420 752 
Q 1681 391 2138 391 
Q 2594 391 2855 752 
Q 3116 1113 3116 1747 
z
" transform="scale(0.015625)"/>
       <path id="DejaVuSans-28" d="M 1984 4856 
Q 1566 4138 1362 3434 
Q 1159 2731 1159 2009 
Q 1159 1288 1364 580 
Q 1569 -128 1984 -844 
L 1484 -844 
Q 1016 -109 783 600 
Q 550 1309 550 2009 
Q 550 2706 781 3412 
Q 1013 4119 1484 4856 
L 1984 4856 
z
" transform="scale(0.015625)"/>
       <path id="DejaVuSans-25" d="M 4653 2053 
Q 4381 2053 4226 1822 
Q 4072 1591 4072 1178 
Q 4072 772 4226 539 
Q 4381 306 4653 306 
Q 4919 306 5073 539 
Q 5228 772 5228 1178 
Q 5228 1588 5073 1820 
Q 4919 2053 4653 2053 
z
M 4653 2450 
Q 5147 2450 5437 2106 
Q 5728 1763 5728 1178 
Q 5728 594 5436 251 
Q 5144 -91 4653 -91 
Q 4153 -91 3862 251 
Q 3572 594 3572 1178 
Q 3572 1766 3864 2108 
Q 4156 2450 4653 2450 
z
M 1428 4353 
Q 1159 4353 1004 4120 
Q 850 3888 850 3481 
Q 850 3069 1003 2837 
Q 1156 2606 1428 2606 
Q 1700 2606 1854 2837 
Q 2009 3069 2009 3481 
Q 2009 3884 1853 4118 
Q 1697 4353 1428 4353 
z
M 4250 4750 
L 4750 4750 
L 1831 -91 
L 1331 -91 
L 4250 4750 
z
M 1428 4750 
Q 1922 4750 2215 4408 
Q 2509 4066 2509 3481 
Q 2509 2891 2217 2550 
Q 1925 2209 1428 2209 
Q 931 2209 642 2551 
Q 353 2894 353 3481 
Q 353 4063 643 4406 
Q 934 4750 1428 4750 
z
" transform="scale(0.015625)"/>
       <path id="DejaVuSans-29" d="M 513 4856 
L 1013 4856 
Q 1481 4119 1714 3412 
Q 1947 2706 1947 2009 
Q 1947 1309 1714 600 
Q 1481 -109 1013 -844 
L 513 -844 
Q 928 -128 1133 580 
Q 1338 1288 1338 2009 
Q 1338 2731 1133 3434 
Q 928 4138 513 4856 
z
" transform="scale(0.015625)"/>
      </defs>
      <use xlink:href="#DejaVuSans-54"/>
      <use xlink:href="#DejaVuSans-72" x="46.333984"/>
      <use xlink:href="#DejaVuSans-61" x="87.447266"/>
      <use xlink:href="#DejaVuSans-69" x="148.726562"/>
      <use xlink:href="#DejaVuSans-6e" x="176.509766"/>
      <use xlink:href="#DejaVuSans-69" x="239.888672"/>
      <use xlink:href="#DejaVuSans-6e" x="267.671875"/>
      <use xlink:href="#DejaVuSans-67" x="331.050781"/>
      <use xlink:href="#DejaVuSans-20" x="394.527344"/>
      <use xlink:href="#DejaVuSans-63" x="426.314453"/>
      <use xlink:href="#DejaVuSans-6f" x="481.294922"/>
      <use xlink:href="#DejaVuSans-6e" x="542.476562"/>
      <use xlink:href="#DejaVuSans-74" x="605.855469"/>
      <use xlink:href="#DejaVuSans-61" x="645.064453"/>
      <use xlink:href="#DejaVuSans-6d" x="706.34375"/>
      <use xlink:href="#DejaVuSans-69" x="803.755859"/>
      <use xlink:href="#DejaVuSans-6e" x="831.539062"/>
      <use xlink:href="#DejaVuSans-61" x="894.917969"/>
      <use xlink:href="#DejaVuSans-74" x="956.197266"/>
      <use xlink:href="#DejaVuSans-69" x="995.40625"/>
      <use xlink:href="#DejaVuSans-6f" x="1023.189453"/>
      <use xlink:href="#DejaVuSans-6e" x="1084.371094"/>
      <use xlink:href="#DejaVuSans-20" x="1147.75"/>
      <use xlink:href="#DejaVuSans-2f" x="1179.537109"/>
      <use xlink:href="#DejaVuSans-20" x="1213.228516"/>
      <use xlink:href="#DejaVuSans-6c" x="1245.015625"/>
      <use xlink:href="#DejaVuSans-61" x="1272.798828"/>
      <use xlink:href="#DejaVuSans-62" x="1334.078125"/>
      <use xlink:href="#DejaVuSans-65" x="1397.554688"/>
      <use xlink:href="#DejaVuSans-6c" x="1459.078125"/>
      <use xlink:href="#DejaVuSans-20" x="1486.861328"/>
      <use xlink:href="#DejaVuSans-66" x="1518.648438"/>
      <use xlink:href="#DejaVuSans-6c" x="1553.853516"/>
      <use xlink:href="#DejaVuSans-69" x="1581.636719"/>
      <use xlink:href="#DejaVuSans-70" x="1609.419922"/>
      <use xlink:href="#DejaVuSans-20" x="1672.896484"/>
      <use xlink:href="#DejaVuSans-72" x="1704.683594"/>
      <use xlink:href="#DejaVuSans-61" x="1745.796875"/>
      <use xlink:href="#DejaVuSans-74" x="1807.076172"/>
      <use xlink:href="#DejaVuSans-65" x="1846.285156"/>
      <use xlink:href="#DejaVuSans-20" x="1907.808594"/>
      <use xlink:href="#DejaVuSans-28" x="1939.595703"/>
      <use xlink:href="#DejaVuSans-25" x="1978.609375"/>
      <use xlink:href="#DejaVuSans-29" x="2073.628906"/>
     </g>
    </g>
   </g>
   <g id="matplotlib.axis_2">
    <g id="ytick_1">
     <g id="line2d_19">
      <path d="M 43.78125 338.521781 
L 508.82725 338.521781 
" clip-path="url(#pcd936bda18)" style="fill: none; stroke: #b0b0b0; stroke-opacity: 0.25; stroke-width: 0.8; stroke-linecap: square"/>
     </g>
     <g id="line2d_20">
      <defs>
       <path id="md909f85c54" d="M 0 0 
L -3.5 0 
" style="stroke: #000000; stroke-width: 0.8"/>
      </defs>
      <g>
       <use xlink:href="#md909f85c54" x="43.78125" y="338.521781" style="stroke: #000000; stroke-width: 0.8"/>
      </g>
     </g>
     <g id="text_11">
      <!-- 0.5 -->
      <g transform="translate(20.878125 342.321) scale(0.1 -0.1)">
       <use xlink:href="#DejaVuSans-30"/>
       <use xlink:href="#DejaVuSans-2e" x="63.623047"/>
       <use xlink:href="#DejaVuSans-35" x="95.410156"/>
      </g>
     </g>
    </g>
    <g id="ytick_2">
     <g id="line2d_21">
      <path d="M 43.78125 270.184979 
L 508.82725 270.184979 
" clip-path="url(#pcd936bda18)" style="fill: none; stroke: #b0b0b0; stroke-opacity: 0.25; stroke-width: 0.8; stroke-linecap: square"/>
     </g>
     <g id="line2d_22">
      <g>
       <use xlink:href="#md909f85c54" x="43.78125" y="270.184979" style="stroke: #000000; stroke-width: 0.8"/>
      </g>
     </g>
     <g id="text_12">
      <!-- 0.6 -->
      <g transform="translate(20.878125 273.984198) scale(0.1 -0.1)">
       <defs>
        <path id="DejaVuSans-36" d="M 2113 2584 
Q 1688 2584 1439 2293 
Q 1191 2003 1191 1497 
Q 1191 994 1439 701 
Q 1688 409 2113 409 
Q 2538 409 2786 701 
Q 3034 994 3034 1497 
Q 3034 2003 2786 2293 
Q 2538 2584 2113 2584 
z
M 3366 4563 
L 3366 3988 
Q 3128 4100 2886 4159 
Q 2644 4219 2406 4219 
Q 1781 4219 1451 3797 
Q 1122 3375 1075 2522 
Q 1259 2794 1537 2939 
Q 1816 3084 2150 3084 
Q 2853 3084 3261 2657 
Q 3669 2231 3669 1497 
Q 3669 778 3244 343 
Q 2819 -91 2113 -91 
Q 1303 -91 875 529 
Q 447 1150 447 2328 
Q 447 3434 972 4092 
Q 1497 4750 2381 4750 
Q 2619 4750 2861 4703 
Q 3103 4656 3366 4563 
z
" transform="scale(0.015625)"/>
       </defs>
       <use xlink:href="#DejaVuSans-30"/>
       <use xlink:href="#DejaVuSans-2e" x="63.623047"/>
       <use xlink:href="#DejaVuSans-36" x="95.410156"/>
      </g>
     </g>
    </g>
    <g id="ytick_3">
     <g id="line2d_23">
      <path d="M 43.78125 201.848177 
L 508.82725 201.848177 
" clip-path="url(#pcd936bda18)" style="fill: none; stroke: #b0b0b0; stroke-opacity: 0.25; stroke-width: 0.8; stroke-linecap: square"/>
     </g>
     <g id="line2d_24">
      <g>
       <use xlink:href="#md909f85c54" x="43.78125" y="201.848177" style="stroke: #000000; stroke-width: 0.8"/>
      </g>
     </g>
     <g id="text_13">
      <!-- 0.7 -->
      <g transform="translate(20.878125 205.647396) scale(0.1 -0.1)">
       <use xlink:href="#DejaVuSans-30"/>
       <use xlink:href="#DejaVuSans-2e" x="63.623047"/>
       <use xlink:href="#DejaVuSans-37" x="95.410156"/>
      </g>
     </g>
    </g>
    <g id="ytick_4">
     <g id="line2d_25">
      <path d="M 43.78125 133.511375 
L 508.82725 133.511375 
" clip-path="url(#pcd936bda18)" style="fill: none; stroke: #b0b0b0; stroke-opacity: 0.25; stroke-width: 0.8; stroke-linecap: square"/>
     </g>
     <g id="line2d_26">
      <g>
       <use xlink:href="#md909f85c54" x="43.78125" y="133.511375" style="stroke: #000000; stroke-width: 0.8"/>
      </g>
     </g>
     <g id="text_14">
      <!-- 0.8 -->
      <g transform="translate(20.878125 137.310594) scale(0.1 -0.1)">
       <defs>
        <path id="DejaVuSans-38" d="M 2034 2216 
Q 1584 2216 1326 1975 
Q 1069 1734 1069 1313 
Q 1069 891 1326 650 
Q 1584 409 2034 409 
Q 2484 409 2743 651 
Q 3003 894 3003 1313 
Q 3003 1734 2745 1975 
Q 2488 2216 2034 2216 
z
M 1403 2484 
Q 997 2584 770 2862 
Q 544 3141 544 3541 
Q 544 4100 942 4425 
Q 1341 4750 2034 4750 
Q 2731 4750 3128 4425 
Q 3525 4100 3525 3541 
Q 3525 3141 3298 2862 
Q 3072 2584 2669 2484 
Q 3125 2378 3379 2068 
Q 3634 1759 3634 1313 
Q 3634 634 3220 271 
Q 2806 -91 2034 -91 
Q 1263 -91 848 271 
Q 434 634 434 1313 
Q 434 1759 690 2068 
Q 947 2378 1403 2484 
z
M 1172 3481 
Q 1172 3119 1398 2916 
Q 1625 2713 2034 2713 
Q 2441 2713 2670 2916 
Q 2900 3119 2900 3481 
Q 2900 3844 2670 4047 
Q 2441 4250 2034 4250 
Q 1625 4250 1398 4047 
Q 1172 3844 1172 3481 
z
" transform="scale(0.015625)"/>
       </defs>
       <use xlink:href="#DejaVuSans-30"/>
       <use xlink:href="#DejaVuSans-2e" x="63.623047"/>
       <use xlink:href="#DejaVuSans-38" x="95.410156"/>
      </g>
     </g>
    </g>
    <g id="ytick_5">
     <g id="line2d_27">
      <path d="M 43.78125 65.174573 
L 508.82725 65.174573 
" clip-path="url(#pcd936bda18)" style="fill: none; stroke: #b0b0b0; stroke-opacity: 0.25; stroke-width: 0.8; stroke-linecap: square"/>
     </g>
     <g id="line2d_28">
      <g>
       <use xlink:href="#md909f85c54" x="43.78125" y="65.174573" style="stroke: #000000; stroke-width: 0.8"/>
      </g>
     </g>
     <g id="text_15">
      <!-- 0.9 -->
      <g transform="translate(20.878125 68.973792) scale(0.1 -0.1)">
       <defs>
        <path id="DejaVuSans-39" d="M 703 97 
L 703 672 
Q 941 559 1184 500 
Q 1428 441 1663 441 
Q 2288 441 2617 861 
Q 2947 1281 2994 2138 
Q 2813 1869 2534 1725 
Q 2256 1581 1919 1581 
Q 1219 1581 811 2004 
Q 403 2428 403 3163 
Q 403 3881 828 4315 
Q 1253 4750 1959 4750 
Q 2769 4750 3195 4129 
Q 3622 3509 3622 2328 
Q 3622 1225 3098 567 
Q 2575 -91 1691 -91 
Q 1453 -91 1209 -44 
Q 966 3 703 97 
z
M 1959 2075 
Q 2384 2075 2632 2365 
Q 2881 2656 2881 3163 
Q 2881 3666 2632 3958 
Q 2384 4250 1959 4250 
Q 1534 4250 1286 3958 
Q 1038 3666 1038 3163 
Q 1038 2656 1286 2365 
Q 1534 2075 1959 2075 
z
" transform="scale(0.015625)"/>
       </defs>
       <use xlink:href="#DejaVuSans-30"/>
       <use xlink:href="#DejaVuSans-2e" x="63.623047"/>
       <use xlink:href="#DejaVuSans-39" x="95.410156"/>
      </g>
     </g>
    </g>
    <g id="text_16">
     <!-- auc_roc -->
     <g transform="translate(14.520313 205.851719) rotate(-90) scale(0.1 -0.1)">
      <defs>
       <path id="DejaVuSans-75" d="M 544 1381 
L 544 3500 
L 1119 3500 
L 1119 1403 
Q 1119 906 1312 657 
Q 1506 409 1894 409 
Q 2359 409 2629 706 
Q 2900 1003 2900 1516 
L 2900 3500 
L 3475 3500 
L 3475 0 
L 2900 0 
L 2900 538 
Q 2691 219 2414 64 
Q 2138 -91 1772 -91 
Q 1169 -91 856 284 
Q 544 659 544 1381 
z
M 1991 3584 
L 1991 3584 
z
" transform="scale(0.015625)"/>
       <path id="DejaVuSans-5f" d="M 3263 -1063 
L 3263 -1509 
L -63 -1509 
L -63 -1063 
L 3263 -1063 
z
" transform="scale(0.015625)"/>
      </defs>
      <use xlink:href="#DejaVuSans-61"/>
      <use xlink:href="#DejaVuSans-75" x="61.279297"/>
      <use xlink:href="#DejaVuSans-63" x="124.658203"/>
      <use xlink:href="#DejaVuSans-5f" x="179.638672"/>
      <use xlink:href="#DejaVuSans-72" x="229.638672"/>
      <use xlink:href="#DejaVuSans-6f" x="268.501953"/>
      <use xlink:href="#DejaVuSans-63" x="329.683594"/>
     </g>
    </g>
   </g>
   <g id="line2d_29">
    <path d="M 64.919705 247.121821 
L 86.058159 248.520163 
L 170.611977 258.640502 
L 276.30425 258.640502 
L 487.688795 258.640502 
" clip-path="url(#pcd936bda18)" style="fill: none; stroke-dasharray: 6.66,2.88; stroke-dashoffset: 0; stroke: #1f77b4; stroke-width: 1.8"/>
    <defs>
     <path id="m82419cb5cf" d="M 0 2.5 
C 0.663008 2.5 1.29895 2.236584 1.767767 1.767767 
C 2.236584 1.29895 2.5 0.663008 2.5 0 
C 2.5 -0.663008 2.236584 -1.29895 1.767767 -1.767767 
C 1.29895 -2.236584 0.663008 -2.5 0 -2.5 
C -0.663008 -2.5 -1.29895 -2.236584 -1.767767 -1.767767 
C -2.236584 -1.29895 -2.5 -0.663008 -2.5 0 
C -2.5 0.663008 -2.236584 1.29895 -1.767767 1.767767 
C -1.29895 2.236584 -0.663008 2.5 0 2.5 
z
" style="stroke: #1f77b4"/>
    </defs>
    <g clip-path="url(#pcd936bda18)">
     <use xlink:href="#m82419cb5cf" x="64.919705" y="247.121821" style="fill: #1f77b4; stroke: #1f77b4"/>
     <use xlink:href="#m82419cb5cf" x="86.058159" y="248.520163" style="fill: #1f77b4; stroke: #1f77b4"/>
     <use xlink:href="#m82419cb5cf" x="170.611977" y="258.640502" style="fill: #1f77b4; stroke: #1f77b4"/>
     <use xlink:href="#m82419cb5cf" x="276.30425" y="258.640502" style="fill: #1f77b4; stroke: #1f77b4"/>
     <use xlink:href="#m82419cb5cf" x="487.688795" y="258.640502" style="fill: #1f77b4; stroke: #1f77b4"/>
    </g>
   </g>
   <g id="line2d_30">
    <path d="M 64.919705 314.528218 
L 86.058159 314.874343 
L 170.611977 315.726845 
L 276.30425 315.726845 
L 487.688795 315.726845 
" clip-path="url(#pcd936bda18)" style="fill: none; stroke-dasharray: 6.66,2.88; stroke-dashoffset: 0; stroke: #aec7e8; stroke-width: 1.8"/>
    <defs>
     <path id="m70fb57f8f2" d="M 0 2.5 
C 0.663008 2.5 1.29895 2.236584 1.767767 1.767767 
C 2.236584 1.29895 2.5 0.663008 2.5 0 
C 2.5 -0.663008 2.236584 -1.29895 1.767767 -1.767767 
C 1.29895 -2.236584 0.663008 -2.5 0 -2.5 
C -0.663008 -2.5 -1.29895 -2.236584 -1.767767 -1.767767 
C -2.236584 -1.29895 -2.5 -0.663008 -2.5 0 
C -2.5 0.663008 -2.236584 1.29895 -1.767767 1.767767 
C -1.29895 2.236584 -0.663008 2.5 0 2.5 
z
" style="stroke: #aec7e8"/>
    </defs>
    <g clip-path="url(#pcd936bda18)">
     <use xlink:href="#m70fb57f8f2" x="64.919705" y="314.528218" style="fill: #aec7e8; stroke: #aec7e8"/>
     <use xlink:href="#m70fb57f8f2" x="86.058159" y="314.874343" style="fill: #aec7e8; stroke: #aec7e8"/>
     <use xlink:href="#m70fb57f8f2" x="170.611977" y="315.726845" style="fill: #aec7e8; stroke: #aec7e8"/>
     <use xlink:href="#m70fb57f8f2" x="276.30425" y="315.726845" style="fill: #aec7e8; stroke: #aec7e8"/>
     <use xlink:href="#m70fb57f8f2" x="487.688795" y="315.726845" style="fill: #aec7e8; stroke: #aec7e8"/>
    </g>
   </g>
   <g id="line2d_31">
    <path d="M 64.919705 324.47071 
L 86.058159 324.97196 
L 170.611977 326.945185 
L 276.30425 326.945185 
L 487.688795 326.945185 
" clip-path="url(#pcd936bda18)" style="fill: none; stroke-dasharray: 6.66,2.88; stroke-dashoffset: 0; stroke: #ff7f0e; stroke-width: 1.8"/>
    <defs>
     <path id="ma4c2888b63" d="M 0 2.5 
C 0.663008 2.5 1.29895 2.236584 1.767767 1.767767 
C 2.236584 1.29895 2.5 0.663008 2.5 0 
C 2.5 -0.663008 2.236584 -1.29895 1.767767 -1.767767 
C 1.29895 -2.236584 0.663008 -2.5 0 -2.5 
C -0.663008 -2.5 -1.29895 -2.236584 -1.767767 -1.767767 
C -2.236584 -1.29895 -2.5 -0.663008 -2.5 0 
C -2.5 0.663008 -2.236584 1.29895 -1.767767 1.767767 
C -1.29895 2.236584 -0.663008 2.5 0 2.5 
z
" style="stroke: #ff7f0e"/>
    </defs>
    <g clip-path="url(#pcd936bda18)">
     <use xlink:href="#ma4c2888b63" x="64.919705" y="324.47071" style="fill: #ff7f0e; stroke: #ff7f0e"/>
     <use xlink:href="#ma4c2888b63" x="86.058159" y="324.97196" style="fill: #ff7f0e; stroke: #ff7f0e"/>
     <use xlink:href="#ma4c2888b63" x="170.611977" y="326.945185" style="fill: #ff7f0e; stroke: #ff7f0e"/>
     <use xlink:href="#ma4c2888b63" x="276.30425" y="326.945185" style="fill: #ff7f0e; stroke: #ff7f0e"/>
     <use xlink:href="#ma4c2888b63" x="487.688795" y="326.945185" style="fill: #ff7f0e; stroke: #ff7f0e"/>
    </g>
   </g>
   <g id="line2d_32">
    <path d="M 64.919705 326.815858 
L 86.058159 327.110219 
L 170.611977 328.256056 
L 276.30425 328.256056 
L 487.688795 328.256056 
" clip-path="url(#pcd936bda18)" style="fill: none; stroke-dasharray: 6.66,2.88; stroke-dashoffset: 0; stroke: #ffbb78; stroke-width: 1.8"/>
    <defs>
     <path id="mf06ab8ee84" d="M 0 2.5 
C 0.663008 2.5 1.29895 2.236584 1.767767 1.767767 
C 2.236584 1.29895 2.5 0.663008 2.5 0 
C 2.5 -0.663008 2.236584 -1.29895 1.767767 -1.767767 
C 1.29895 -2.236584 0.663008 -2.5 0 -2.5 
C -0.663008 -2.5 -1.29895 -2.236584 -1.767767 -1.767767 
C -2.236584 -1.29895 -2.5 -0.663008 -2.5 0 
C -2.5 0.663008 -2.236584 1.29895 -1.767767 1.767767 
C -1.29895 2.236584 -0.663008 2.5 0 2.5 
z
" style="stroke: #ffbb78"/>
    </defs>
    <g clip-path="url(#pcd936bda18)">
     <use xlink:href="#mf06ab8ee84" x="64.919705" y="326.815858" style="fill: #ffbb78; stroke: #ffbb78"/>
     <use xlink:href="#mf06ab8ee84" x="86.058159" y="327.110219" style="fill: #ffbb78; stroke: #ffbb78"/>
     <use xlink:href="#mf06ab8ee84" x="170.611977" y="328.256056" style="fill: #ffbb78; stroke: #ffbb78"/>
     <use xlink:href="#mf06ab8ee84" x="276.30425" y="328.256056" style="fill: #ffbb78; stroke: #ffbb78"/>
     <use xlink:href="#mf06ab8ee84" x="487.688795" y="328.256056" style="fill: #ffbb78; stroke: #ffbb78"/>
    </g>
   </g>
   <g id="line2d_33">
    <path d="M 64.919705 310.012522 
L 86.058159 310.34498 
L 170.611977 302.639493 
L 276.30425 302.639493 
L 487.688795 302.639493 
" clip-path="url(#pcd936bda18)" style="fill: none; stroke-dasharray: 6.66,2.88; stroke-dashoffset: 0; stroke: #2ca02c; stroke-width: 1.8"/>
    <defs>
     <path id="m0265f26b7c" d="M 0 2.5 
C 0.663008 2.5 1.29895 2.236584 1.767767 1.767767 
C 2.236584 1.29895 2.5 0.663008 2.5 0 
C 2.5 -0.663008 2.236584 -1.29895 1.767767 -1.767767 
C 1.29895 -2.236584 0.663008 -2.5 0 -2.5 
C -0.663008 -2.5 -1.29895 -2.236584 -1.767767 -1.767767 
C -2.236584 -1.29895 -2.5 -0.663008 -2.5 0 
C -2.5 0.663008 -2.236584 1.29895 -1.767767 1.767767 
C -1.29895 2.236584 -0.663008 2.5 0 2.5 
z
" style="stroke: #2ca02c"/>
    </defs>
    <g clip-path="url(#pcd936bda18)">
     <use xlink:href="#m0265f26b7c" x="64.919705" y="310.012522" style="fill: #2ca02c; stroke: #2ca02c"/>
     <use xlink:href="#m0265f26b7c" x="86.058159" y="310.34498" style="fill: #2ca02c; stroke: #2ca02c"/>
     <use xlink:href="#m0265f26b7c" x="170.611977" y="302.639493" style="fill: #2ca02c; stroke: #2ca02c"/>
     <use xlink:href="#m0265f26b7c" x="276.30425" y="302.639493" style="fill: #2ca02c; stroke: #2ca02c"/>
     <use xlink:href="#m0265f26b7c" x="487.688795" y="302.639493" style="fill: #2ca02c; stroke: #2ca02c"/>
    </g>
   </g>
   <g id="line2d_34">
    <path d="M 64.919705 303.975136 
L 86.058159 305.40833 
L 170.611977 307.700346 
L 276.30425 307.700346 
L 487.688795 307.700346 
" clip-path="url(#pcd936bda18)" style="fill: none; stroke-dasharray: 6.66,2.88; stroke-dashoffset: 0; stroke: #98df8a; stroke-width: 1.8"/>
    <defs>
     <path id="m42ba777cd7" d="M 0 2.5 
C 0.663008 2.5 1.29895 2.236584 1.767767 1.767767 
C 2.236584 1.29895 2.5 0.663008 2.5 0 
C 2.5 -0.663008 2.236584 -1.29895 1.767767 -1.767767 
C 1.29895 -2.236584 0.663008 -2.5 0 -2.5 
C -0.663008 -2.5 -1.29895 -2.236584 -1.767767 -1.767767 
C -2.236584 -1.29895 -2.5 -0.663008 -2.5 0 
C -2.5 0.663008 -2.236584 1.29895 -1.767767 1.767767 
C -1.29895 2.236584 -0.663008 2.5 0 2.5 
z
" style="stroke: #98df8a"/>
    </defs>
    <g clip-path="url(#pcd936bda18)">
     <use xlink:href="#m42ba777cd7" x="64.919705" y="303.975136" style="fill: #98df8a; stroke: #98df8a"/>
     <use xlink:href="#m42ba777cd7" x="86.058159" y="305.40833" style="fill: #98df8a; stroke: #98df8a"/>
     <use xlink:href="#m42ba777cd7" x="170.611977" y="307.700346" style="fill: #98df8a; stroke: #98df8a"/>
     <use xlink:href="#m42ba777cd7" x="276.30425" y="307.700346" style="fill: #98df8a; stroke: #98df8a"/>
     <use xlink:href="#m42ba777cd7" x="487.688795" y="307.700346" style="fill: #98df8a; stroke: #98df8a"/>
    </g>
   </g>
   <g id="line2d_35">
    <path d="M 64.919705 258.762654 
L 86.058159 259.515042 
L 170.611977 264.185179 
L 276.30425 264.185179 
L 487.688795 264.185179 
" clip-path="url(#pcd936bda18)" style="fill: none; stroke-dasharray: 6.66,2.88; stroke-dashoffset: 0; stroke: #d62728; stroke-width: 1.8"/>
    <defs>
     <path id="mf3c7ad0ec0" d="M 0 2.5 
C 0.663008 2.5 1.29895 2.236584 1.767767 1.767767 
C 2.236584 1.29895 2.5 0.663008 2.5 0 
C 2.5 -0.663008 2.236584 -1.29895 1.767767 -1.767767 
C 1.29895 -2.236584 0.663008 -2.5 0 -2.5 
C -0.663008 -2.5 -1.29895 -2.236584 -1.767767 -1.767767 
C -2.236584 -1.29895 -2.5 -0.663008 -2.5 0 
C -2.5 0.663008 -2.236584 1.29895 -1.767767 1.767767 
C -1.29895 2.236584 -0.663008 2.5 0 2.5 
z
" style="stroke: #d62728"/>
    </defs>
    <g clip-path="url(#pcd936bda18)">
     <use xlink:href="#mf3c7ad0ec0" x="64.919705" y="258.762654" style="fill: #d62728; stroke: #d62728"/>
     <use xlink:href="#mf3c7ad0ec0" x="86.058159" y="259.515042" style="fill: #d62728; stroke: #d62728"/>
     <use xlink:href="#mf3c7ad0ec0" x="170.611977" y="264.185179" style="fill: #d62728; stroke: #d62728"/>
     <use xlink:href="#mf3c7ad0ec0" x="276.30425" y="264.185179" style="fill: #d62728; stroke: #d62728"/>
     <use xlink:href="#mf3c7ad0ec0" x="487.688795" y="264.185179" style="fill: #d62728; stroke: #d62728"/>
    </g>
   </g>
   <g id="line2d_36">
    <path d="M 64.919705 242.463301 
L 86.058159 245.464824 
L 170.611977 254.506296 
L 276.30425 254.506296 
L 487.688795 254.506296 
" clip-path="url(#pcd936bda18)" style="fill: none; stroke-dasharray: 6.66,2.88; stroke-dashoffset: 0; stroke: #ff9896; stroke-width: 1.8"/>
    <defs>
     <path id="m95c1c7d0ea" d="M 0 2.5 
C 0.663008 2.5 1.29895 2.236584 1.767767 1.767767 
C 2.236584 1.29895 2.5 0.663008 2.5 0 
C 2.5 -0.663008 2.236584 -1.29895 1.767767 -1.767767 
C 1.29895 -2.236584 0.663008 -2.5 0 -2.5 
C -0.663008 -2.5 -1.29895 -2.236584 -1.767767 -1.767767 
C -2.236584 -1.29895 -2.5 -0.663008 -2.5 0 
C -2.5 0.663008 -2.236584 1.29895 -1.767767 1.767767 
C -1.29895 2.236584 -0.663008 2.5 0 2.5 
z
" style="stroke: #ff9896"/>
    </defs>
    <g clip-path="url(#pcd936bda18)">
     <use xlink:href="#m95c1c7d0ea" x="64.919705" y="242.463301" style="fill: #ff9896; stroke: #ff9896"/>
     <use xlink:href="#m95c1c7d0ea" x="86.058159" y="245.464824" style="fill: #ff9896; stroke: #ff9896"/>
     <use xlink:href="#m95c1c7d0ea" x="170.611977" y="254.506296" style="fill: #ff9896; stroke: #ff9896"/>
     <use xlink:href="#m95c1c7d0ea" x="276.30425" y="254.506296" style="fill: #ff9896; stroke: #ff9896"/>
     <use xlink:href="#m95c1c7d0ea" x="487.688795" y="254.506296" style="fill: #ff9896; stroke: #ff9896"/>
    </g>
   </g>
   <g id="line2d_37">
    <path d="M 64.919705 50.069065 
L 86.058159 84.634844 
L 170.611977 116.152632 
L 276.30425 137.476106 
L 487.688795 154.612071 
" clip-path="url(#pcd936bda18)" style="fill: none; stroke: #9467bd; stroke-width: 1.8; stroke-linecap: square"/>
    <defs>
     <path id="me132d92aeb" d="M 0 3.535534 
L 3.535534 0 
L 0 -3.535534 
L -3.535534 0 
z
" style="stroke: #9467bd; stroke-linejoin: miter"/>
    </defs>
    <g clip-path="url(#pcd936bda18)">
     <use xlink:href="#me132d92aeb" x="64.919705" y="50.069065" style="fill: #9467bd; stroke: #9467bd; stroke-linejoin: miter"/>
     <use xlink:href="#me132d92aeb" x="86.058159" y="84.634844" style="fill: #9467bd; stroke: #9467bd; stroke-linejoin: miter"/>
     <use xlink:href="#me132d92aeb" x="170.611977" y="116.152632" style="fill: #9467bd; stroke: #9467bd; stroke-linejoin: miter"/>
     <use xlink:href="#me132d92aeb" x="276.30425" y="137.476106" style="fill: #9467bd; stroke: #9467bd; stroke-linejoin: miter"/>
     <use xlink:href="#me132d92aeb" x="487.688795" y="154.612071" style="fill: #9467bd; stroke: #9467bd; stroke-linejoin: miter"/>
    </g>
   </g>
   <g id="line2d_38">
    <path d="M 64.919705 70.894534 
L 86.058159 75.231017 
L 170.611977 102.61699 
L 276.30425 129.420051 
L 487.688795 172.08545 
" clip-path="url(#pcd936bda18)" style="fill: none; stroke: #c5b0d5; stroke-width: 1.8; stroke-linecap: square"/>
    <defs>
     <path id="m539429afaa" d="M 0 3.535534 
L 3.535534 0 
L 0 -3.535534 
L -3.535534 0 
z
" style="stroke: #c5b0d5; stroke-linejoin: miter"/>
    </defs>
    <g clip-path="url(#pcd936bda18)">
     <use xlink:href="#m539429afaa" x="64.919705" y="70.894534" style="fill: #c5b0d5; stroke: #c5b0d5; stroke-linejoin: miter"/>
     <use xlink:href="#m539429afaa" x="86.058159" y="75.231017" style="fill: #c5b0d5; stroke: #c5b0d5; stroke-linejoin: miter"/>
     <use xlink:href="#m539429afaa" x="170.611977" y="102.61699" style="fill: #c5b0d5; stroke: #c5b0d5; stroke-linejoin: miter"/>
     <use xlink:href="#m539429afaa" x="276.30425" y="129.420051" style="fill: #c5b0d5; stroke: #c5b0d5; stroke-linejoin: miter"/>
     <use xlink:href="#m539429afaa" x="487.688795" y="172.08545" style="fill: #c5b0d5; stroke: #c5b0d5; stroke-linejoin: miter"/>
    </g>
   </g>
   <g id="line2d_39">
    <path d="M 64.919705 44.980194 
L 86.058159 74.342297 
L 170.611977 100.934709 
L 276.30425 144.400161 
L 487.688795 200.671417 
" clip-path="url(#pcd936bda18)" style="fill: none; stroke: #8c564b; stroke-width: 1.8; stroke-linecap: square"/>
    <defs>
     <path id="m48fa7e9328" d="M 0 3.535534 
L 3.535534 0 
L 0 -3.535534 
L -3.535534 0 
z
" style="stroke: #8c564b; stroke-linejoin: miter"/>
    </defs>
    <g clip-path="url(#pcd936bda18)">
     <use xlink:href="#m48fa7e9328" x="64.919705" y="44.980194" style="fill: #8c564b; stroke: #8c564b; stroke-linejoin: miter"/>
     <use xlink:href="#m48fa7e9328" x="86.058159" y="74.342297" style="fill: #8c564b; stroke: #8c564b; stroke-linejoin: miter"/>
     <use xlink:href="#m48fa7e9328" x="170.611977" y="100.934709" style="fill: #8c564b; stroke: #8c564b; stroke-linejoin: miter"/>
     <use xlink:href="#m48fa7e9328" x="276.30425" y="144.400161" style="fill: #8c564b; stroke: #8c564b; stroke-linejoin: miter"/>
     <use xlink:href="#m48fa7e9328" x="487.688795" y="200.671417" style="fill: #8c564b; stroke: #8c564b; stroke-linejoin: miter"/>
    </g>
   </g>
   <g id="line2d_40">
    <path d="M 64.919705 279.450425 
L 86.058159 281.913112 
L 170.611977 290.293254 
L 276.30425 290.293254 
L 487.688795 290.293254 
" clip-path="url(#pcd936bda18)" style="fill: none; stroke-dasharray: 6.66,2.88; stroke-dashoffset: 0; stroke: #c49c94; stroke-width: 1.8"/>
    <defs>
     <path id="m9a529afa31" d="M 0 2.5 
C 0.663008 2.5 1.29895 2.236584 1.767767 1.767767 
C 2.236584 1.29895 2.5 0.663008 2.5 0 
C 2.5 -0.663008 2.236584 -1.29895 1.767767 -1.767767 
C 1.29895 -2.236584 0.663008 -2.5 0 -2.5 
C -0.663008 -2.5 -1.29895 -2.236584 -1.767767 -1.767767 
C -2.236584 -1.29895 -2.5 -0.663008 -2.5 0 
C -2.5 0.663008 -2.236584 1.29895 -1.767767 1.767767 
C -1.29895 2.236584 -0.663008 2.5 0 2.5 
z
" style="stroke: #c49c94"/>
    </defs>
    <g clip-path="url(#pcd936bda18)">
     <use xlink:href="#m9a529afa31" x="64.919705" y="279.450425" style="fill: #c49c94; stroke: #c49c94"/>
     <use xlink:href="#m9a529afa31" x="86.058159" y="281.913112" style="fill: #c49c94; stroke: #c49c94"/>
     <use xlink:href="#m9a529afa31" x="170.611977" y="290.293254" style="fill: #c49c94; stroke: #c49c94"/>
     <use xlink:href="#m9a529afa31" x="276.30425" y="290.293254" style="fill: #c49c94; stroke: #c49c94"/>
     <use xlink:href="#m9a529afa31" x="487.688795" y="290.293254" style="fill: #c49c94; stroke: #c49c94"/>
    </g>
   </g>
   <g id="line2d_41">
    <path d="M 64.919705 100.208972 
L 86.058159 105.433492 
L 170.611977 129.597043 
L 276.30425 139.888224 
L 487.688795 186.092786 
" clip-path="url(#pcd936bda18)" style="fill: none; stroke: #e377c2; stroke-width: 1.8; stroke-linecap: square"/>
    <defs>
     <path id="m9b2dcae3ee" d="M 0 3.535534 
L 3.535534 0 
L 0 -3.535534 
L -3.535534 0 
z
" style="stroke: #e377c2; stroke-linejoin: miter"/>
    </defs>
    <g clip-path="url(#pcd936bda18)">
     <use xlink:href="#m9b2dcae3ee" x="64.919705" y="100.208972" style="fill: #e377c2; stroke: #e377c2; stroke-linejoin: miter"/>
     <use xlink:href="#m9b2dcae3ee" x="86.058159" y="105.433492" style="fill: #e377c2; stroke: #e377c2; stroke-linejoin: miter"/>
     <use xlink:href="#m9b2dcae3ee" x="170.611977" y="129.597043" style="fill: #e377c2; stroke: #e377c2; stroke-linejoin: miter"/>
     <use xlink:href="#m9b2dcae3ee" x="276.30425" y="139.888224" style="fill: #e377c2; stroke: #e377c2; stroke-linejoin: miter"/>
     <use xlink:href="#m9b2dcae3ee" x="487.688795" y="186.092786" style="fill: #e377c2; stroke: #e377c2; stroke-linejoin: miter"/>
    </g>
   </g>
   <g id="line2d_42">
    <path d="M 64.919705 71.934108 
L 86.058159 75.576972 
L 170.611977 101.922347 
L 276.30425 133.20796 
L 487.688795 182.865068 
" clip-path="url(#pcd936bda18)" style="fill: none; stroke: #f7b6d2; stroke-width: 1.8; stroke-linecap: square"/>
    <defs>
     <path id="mad437e2cf8" d="M 0 3.535534 
L 3.535534 0 
L 0 -3.535534 
L -3.535534 0 
z
" style="stroke: #f7b6d2; stroke-linejoin: miter"/>
    </defs>
    <g clip-path="url(#pcd936bda18)">
     <use xlink:href="#mad437e2cf8" x="64.919705" y="71.934108" style="fill: #f7b6d2; stroke: #f7b6d2; stroke-linejoin: miter"/>
     <use xlink:href="#mad437e2cf8" x="86.058159" y="75.576972" style="fill: #f7b6d2; stroke: #f7b6d2; stroke-linejoin: miter"/>
     <use xlink:href="#mad437e2cf8" x="170.611977" y="101.922347" style="fill: #f7b6d2; stroke: #f7b6d2; stroke-linejoin: miter"/>
     <use xlink:href="#mad437e2cf8" x="276.30425" y="133.20796" style="fill: #f7b6d2; stroke: #f7b6d2; stroke-linejoin: miter"/>
     <use xlink:href="#mad437e2cf8" x="487.688795" y="182.865068" style="fill: #f7b6d2; stroke: #f7b6d2; stroke-linejoin: miter"/>
    </g>
   </g>
   <g id="patch_3">
    <path d="M 43.78125 350.918125 
L 43.78125 22.318125 
" style="fill: none; stroke: #000000; stroke-width: 0.8; stroke-linejoin: miter; stroke-linecap: square"/>
   </g>
   <g id="patch_4">
    <path d="M 508.82725 350.918125 
L 508.82725 22.318125 
" style="fill: none; stroke: #000000; stroke-width: 0.8; stroke-linejoin: miter; stroke-linecap: square"/>
   </g>
   <g id="patch_5">
    <path d="M 43.78125 350.918125 
L 508.82725 350.918125 
" style="fill: none; stroke: #000000; stroke-width: 0.8; stroke-linejoin: miter; stroke-linecap: square"/>
   </g>
   <g id="patch_6">
    <path d="M 43.78125 22.318125 
L 508.82725 22.318125 
" style="fill: none; stroke: #000000; stroke-width: 0.8; stroke-linejoin: miter; stroke-linecap: square"/>
   </g>
   <g id="text_17">
    <!-- Exp-2 contamination degradation (nlp) -->
    <g transform="translate(159.772063 16.318125) scale(0.12 -0.12)">
     <defs>
      <path id="DejaVuSans-45" d="M 628 4666 
L 3578 4666 
L 3578 4134 
L 1259 4134 
L 1259 2753 
L 3481 2753 
L 3481 2222 
L 1259 2222 
L 1259 531 
L 3634 531 
L 3634 0 
L 628 0 
L 628 4666 
z
" transform="scale(0.015625)"/>
      <path id="DejaVuSans-78" d="M 3513 3500 
L 2247 1797 
L 3578 0 
L 2900 0 
L 1881 1375 
L 863 0 
L 184 0 
L 1544 1831 
L 300 3500 
L 978 3500 
L 1906 2253 
L 2834 3500 
L 3513 3500 
z
" transform="scale(0.015625)"/>
      <path id="DejaVuSans-2d" d="M 313 2009 
L 1997 2009 
L 1997 1497 
L 313 1497 
L 313 2009 
z
" transform="scale(0.015625)"/>
      <path id="DejaVuSans-64" d="M 2906 2969 
L 2906 4863 
L 3481 4863 
L 3481 0 
L 2906 0 
L 2906 525 
Q 2725 213 2448 61 
Q 2172 -91 1784 -91 
Q 1150 -91 751 415 
Q 353 922 353 1747 
Q 353 2572 751 3078 
Q 1150 3584 1784 3584 
Q 2172 3584 2448 3432 
Q 2725 3281 2906 2969 
z
M 947 1747 
Q 947 1113 1208 752 
Q 1469 391 1925 391 
Q 2381 391 2643 752 
Q 2906 1113 2906 1747 
Q 2906 2381 2643 2742 
Q 2381 3103 1925 3103 
Q 1469 3103 1208 2742 
Q 947 2381 947 1747 
z
" transform="scale(0.015625)"/>
     </defs>
     <use xlink:href="#DejaVuSans-45"/>
     <use xlink:href="#DejaVuSans-78" x="63.183594"/>
     <use xlink:href="#DejaVuSans-70" x="122.363281"/>
     <use xlink:href="#DejaVuSans-2d" x="185.839844"/>
     <use xlink:href="#DejaVuSans-32" x="221.923828"/>
     <use xlink:href="#DejaVuSans-20" x="285.546875"/>
     <use xlink:href="#DejaVuSans-63" x="317.333984"/>
     <use xlink:href="#DejaVuSans-6f" x="372.314453"/>
     <use xlink:href="#DejaVuSans-6e" x="433.496094"/>
     <use xlink:href="#DejaVuSans-74" x="496.875"/>
     <use xlink:href="#DejaVuSans-61" x="536.083984"/>
     <use xlink:href="#DejaVuSans-6d" x="597.363281"/>
     <use xlink:href="#DejaVuSans-69" x="694.775391"/>
     <use xlink:href="#DejaVuSans-6e" x="722.558594"/>
     <use xlink:href="#DejaVuSans-61" x="785.9375"/>
     <use xlink:href="#DejaVuSans-74" x="847.216797"/>
     <use xlink:href="#DejaVuSans-69" x="886.425781"/>
     <use xlink:href="#DejaVuSans-6f" x="914.208984"/>
     <use xlink:href="#DejaVuSans-6e" x="975.390625"/>
     <use xlink:href="#DejaVuSans-20" x="1038.769531"/>
     <use xlink:href="#DejaVuSans-64" x="1070.556641"/>
     <use xlink:href="#DejaVuSans-65" x="1134.033203"/>
     <use xlink:href="#DejaVuSans-67" x="1195.556641"/>
     <use xlink:href="#DejaVuSans-72" x="1259.033203"/>
     <use xlink:href="#DejaVuSans-61" x="1300.146484"/>
     <use xlink:href="#DejaVuSans-64" x="1361.425781"/>
     <use xlink:href="#DejaVuSans-61" x="1424.902344"/>
     <use xlink:href="#DejaVuSans-74" x="1486.181641"/>
     <use xlink:href="#DejaVuSans-69" x="1525.390625"/>
     <use xlink:href="#DejaVuSans-6f" x="1553.173828"/>
     <use xlink:href="#DejaVuSans-6e" x="1614.355469"/>
     <use xlink:href="#DejaVuSans-20" x="1677.734375"/>
     <use xlink:href="#DejaVuSans-28" x="1709.521484"/>
     <use xlink:href="#DejaVuSans-6e" x="1748.535156"/>
     <use xlink:href="#DejaVuSans-6c" x="1811.914062"/>
     <use xlink:href="#DejaVuSans-70" x="1839.697266"/>
     <use xlink:href="#DejaVuSans-29" x="1903.173828"/>
    </g>
   </g>
   <g id="legend_1">
    <g id="patch_7">
     <path d="M 519.72817 189.113125 
L 630.63692 189.113125 
Q 632.23692 189.113125 632.23692 187.513125 
L 632.23692 23.918125 
Q 632.23692 22.318125 630.63692 22.318125 
L 519.72817 22.318125 
Q 518.12817 22.318125 518.12817 23.918125 
L 518.12817 187.513125 
Q 518.12817 189.113125 519.72817 189.113125 
z
" style="fill: #ffffff; opacity: 0.8; stroke: #cccccc; stroke-linejoin: miter"/>
    </g>
    <g id="line2d_43">
     <path d="M 521.32817 28.796875 
L 529.32817 28.796875 
L 537.32817 28.796875 
" style="fill: none; stroke-dasharray: 6.66,2.88; stroke-dashoffset: 0; stroke: #1f77b4; stroke-width: 1.8"/>
     <g>
      <use xlink:href="#m82419cb5cf" x="529.32817" y="28.796875" style="fill: #1f77b4; stroke: #1f77b4"/>
     </g>
    </g>
    <g id="text_18">
     <!-- AutoEncoder (Unsup) -->
     <g transform="translate(543.72817 31.596875) scale(0.08 -0.08)">
      <defs>
       <path id="DejaVuSans-41" d="M 2188 4044 
L 1331 1722 
L 3047 1722 
L 2188 4044 
z
M 1831 4666 
L 2547 4666 
L 4325 0 
L 3669 0 
L 3244 1197 
L 1141 1197 
L 716 0 
L 50 0 
L 1831 4666 
z
" transform="scale(0.015625)"/>
       <path id="DejaVuSans-55" d="M 556 4666 
L 1191 4666 
L 1191 1831 
Q 1191 1081 1462 751 
Q 1734 422 2344 422 
Q 2950 422 3222 751 
Q 3494 1081 3494 1831 
L 3494 4666 
L 4128 4666 
L 4128 1753 
Q 4128 841 3676 375 
Q 3225 -91 2344 -91 
Q 1459 -91 1007 375 
Q 556 841 556 1753 
L 556 4666 
z
" transform="scale(0.015625)"/>
       <path id="DejaVuSans-73" d="M 2834 3397 
L 2834 2853 
Q 2591 2978 2328 3040 
Q 2066 3103 1784 3103 
Q 1356 3103 1142 2972 
Q 928 2841 928 2578 
Q 928 2378 1081 2264 
Q 1234 2150 1697 2047 
L 1894 2003 
Q 2506 1872 2764 1633 
Q 3022 1394 3022 966 
Q 3022 478 2636 193 
Q 2250 -91 1575 -91 
Q 1294 -91 989 -36 
Q 684 19 347 128 
L 347 722 
Q 666 556 975 473 
Q 1284 391 1588 391 
Q 1994 391 2212 530 
Q 2431 669 2431 922 
Q 2431 1156 2273 1281 
Q 2116 1406 1581 1522 
L 1381 1569 
Q 847 1681 609 1914 
Q 372 2147 372 2553 
Q 372 3047 722 3315 
Q 1072 3584 1716 3584 
Q 2034 3584 2315 3537 
Q 2597 3491 2834 3397 
z
" transform="scale(0.015625)"/>
      </defs>
      <use xlink:href="#DejaVuSans-41"/>
      <use xlink:href="#DejaVuSans-75" x="68.408203"/>
      <use xlink:href="#DejaVuSans-74" x="131.787109"/>
      <use xlink:href="#DejaVuSans-6f" x="170.996094"/>
      <use xlink:href="#DejaVuSans-45" x="232.177734"/>
      <use xlink:href="#DejaVuSans-6e" x="295.361328"/>
      <use xlink:href="#DejaVuSans-63" x="358.740234"/>
      <use xlink:href="#DejaVuSans-6f" x="413.720703"/>
      <use xlink:href="#DejaVuSans-64" x="474.902344"/>
      <use xlink:href="#DejaVuSans-65" x="538.378906"/>
      <use xlink:href="#DejaVuSans-72" x="599.902344"/>
      <use xlink:href="#DejaVuSans-20" x="641.015625"/>
      <use xlink:href="#DejaVuSans-28" x="672.802734"/>
      <use xlink:href="#DejaVuSans-55" x="711.816406"/>
      <use xlink:href="#DejaVuSans-6e" x="785.009766"/>
      <use xlink:href="#DejaVuSans-73" x="848.388672"/>
      <use xlink:href="#DejaVuSans-75" x="900.488281"/>
      <use xlink:href="#DejaVuSans-70" x="963.867188"/>
      <use xlink:href="#DejaVuSans-29" x="1027.34375"/>
     </g>
    </g>
    <g id="line2d_44">
     <path d="M 521.32817 40.539375 
L 529.32817 40.539375 
L 537.32817 40.539375 
" style="fill: none; stroke-dasharray: 6.66,2.88; stroke-dashoffset: 0; stroke: #aec7e8; stroke-width: 1.8"/>
     <g>
      <use xlink:href="#m70fb57f8f2" x="529.32817" y="40.539375" style="fill: #aec7e8; stroke: #aec7e8"/>
     </g>
    </g>
    <g id="text_19">
     <!-- COPOD (Unsup) -->
     <g transform="translate(543.72817 43.339375) scale(0.08 -0.08)">
      <defs>
       <path id="DejaVuSans-43" d="M 4122 4306 
L 4122 3641 
Q 3803 3938 3442 4084 
Q 3081 4231 2675 4231 
Q 1875 4231 1450 3742 
Q 1025 3253 1025 2328 
Q 1025 1406 1450 917 
Q 1875 428 2675 428 
Q 3081 428 3442 575 
Q 3803 722 4122 1019 
L 4122 359 
Q 3791 134 3420 21 
Q 3050 -91 2638 -91 
Q 1578 -91 968 557 
Q 359 1206 359 2328 
Q 359 3453 968 4101 
Q 1578 4750 2638 4750 
Q 3056 4750 3426 4639 
Q 3797 4528 4122 4306 
z
" transform="scale(0.015625)"/>
       <path id="DejaVuSans-4f" d="M 2522 4238 
Q 1834 4238 1429 3725 
Q 1025 3213 1025 2328 
Q 1025 1447 1429 934 
Q 1834 422 2522 422 
Q 3209 422 3611 934 
Q 4013 1447 4013 2328 
Q 4013 3213 3611 3725 
Q 3209 4238 2522 4238 
z
M 2522 4750 
Q 3503 4750 4090 4092 
Q 4678 3434 4678 2328 
Q 4678 1225 4090 567 
Q 3503 -91 2522 -91 
Q 1538 -91 948 565 
Q 359 1222 359 2328 
Q 359 3434 948 4092 
Q 1538 4750 2522 4750 
z
" transform="scale(0.015625)"/>
       <path id="DejaVuSans-50" d="M 1259 4147 
L 1259 2394 
L 2053 2394 
Q 2494 2394 2734 2622 
Q 2975 2850 2975 3272 
Q 2975 3691 2734 3919 
Q 2494 4147 2053 4147 
L 1259 4147 
z
M 628 4666 
L 2053 4666 
Q 2838 4666 3239 4311 
Q 3641 3956 3641 3272 
Q 3641 2581 3239 2228 
Q 2838 1875 2053 1875 
L 1259 1875 
L 1259 0 
L 628 0 
L 628 4666 
z
" transform="scale(0.015625)"/>
       <path id="DejaVuSans-44" d="M 1259 4147 
L 1259 519 
L 2022 519 
Q 2988 519 3436 956 
Q 3884 1394 3884 2338 
Q 3884 3275 3436 3711 
Q 2988 4147 2022 4147 
L 1259 4147 
z
M 628 4666 
L 1925 4666 
Q 3281 4666 3915 4102 
Q 4550 3538 4550 2338 
Q 4550 1131 3912 565 
Q 3275 0 1925 0 
L 628 0 
L 628 4666 
z
" transform="scale(0.015625)"/>
      </defs>
      <use xlink:href="#DejaVuSans-43"/>
      <use xlink:href="#DejaVuSans-4f" x="69.824219"/>
      <use xlink:href="#DejaVuSans-50" x="148.535156"/>
      <use xlink:href="#DejaVuSans-4f" x="208.837891"/>
      <use xlink:href="#DejaVuSans-44" x="287.548828"/>
      <use xlink:href="#DejaVuSans-20" x="364.550781"/>
      <use xlink:href="#DejaVuSans-28" x="396.337891"/>
      <use xlink:href="#DejaVuSans-55" x="435.351562"/>
      <use xlink:href="#DejaVuSans-6e" x="508.544922"/>
      <use xlink:href="#DejaVuSans-73" x="571.923828"/>
      <use xlink:href="#DejaVuSans-75" x="624.023438"/>
      <use xlink:href="#DejaVuSans-70" x="687.402344"/>
      <use xlink:href="#DejaVuSans-29" x="750.878906"/>
     </g>
    </g>
    <g id="line2d_45">
     <path d="M 521.32817 52.281875 
L 529.32817 52.281875 
L 537.32817 52.281875 
" style="fill: none; stroke-dasharray: 6.66,2.88; stroke-dashoffset: 0; stroke: #ff7f0e; stroke-width: 1.8"/>
     <g>
      <use xlink:href="#ma4c2888b63" x="529.32817" y="52.281875" style="fill: #ff7f0e; stroke: #ff7f0e"/>
     </g>
    </g>
    <g id="text_20">
     <!-- DeepSVDD (Unsup) -->
     <g transform="translate(543.72817 55.081875) scale(0.08 -0.08)">
      <defs>
       <path id="DejaVuSans-53" d="M 3425 4513 
L 3425 3897 
Q 3066 4069 2747 4153 
Q 2428 4238 2131 4238 
Q 1616 4238 1336 4038 
Q 1056 3838 1056 3469 
Q 1056 3159 1242 3001 
Q 1428 2844 1947 2747 
L 2328 2669 
Q 3034 2534 3370 2195 
Q 3706 1856 3706 1288 
Q 3706 609 3251 259 
Q 2797 -91 1919 -91 
Q 1588 -91 1214 -16 
Q 841 59 441 206 
L 441 856 
Q 825 641 1194 531 
Q 1563 422 1919 422 
Q 2459 422 2753 634 
Q 3047 847 3047 1241 
Q 3047 1584 2836 1778 
Q 2625 1972 2144 2069 
L 1759 2144 
Q 1053 2284 737 2584 
Q 422 2884 422 3419 
Q 422 4038 858 4394 
Q 1294 4750 2059 4750 
Q 2388 4750 2728 4690 
Q 3069 4631 3425 4513 
z
" transform="scale(0.015625)"/>
       <path id="DejaVuSans-56" d="M 1831 0 
L 50 4666 
L 709 4666 
L 2188 738 
L 3669 4666 
L 4325 4666 
L 2547 0 
L 1831 0 
z
" transform="scale(0.015625)"/>
      </defs>
      <use xlink:href="#DejaVuSans-44"/>
      <use xlink:href="#DejaVuSans-65" x="77.001953"/>
      <use xlink:href="#DejaVuSans-65" x="138.525391"/>
      <use xlink:href="#DejaVuSans-70" x="200.048828"/>
      <use xlink:href="#DejaVuSans-53" x="263.525391"/>
      <use xlink:href="#DejaVuSans-56" x="327.001953"/>
      <use xlink:href="#DejaVuSans-44" x="395.410156"/>
      <use xlink:href="#DejaVuSans-44" x="472.412109"/>
      <use xlink:href="#DejaVuSans-20" x="549.414062"/>
      <use xlink:href="#DejaVuSans-28" x="581.201172"/>
      <use xlink:href="#DejaVuSans-55" x="620.214844"/>
      <use xlink:href="#DejaVuSans-6e" x="693.408203"/>
      <use xlink:href="#DejaVuSans-73" x="756.787109"/>
      <use xlink:href="#DejaVuSans-75" x="808.886719"/>
      <use xlink:href="#DejaVuSans-70" x="872.265625"/>
      <use xlink:href="#DejaVuSans-29" x="935.742188"/>
     </g>
    </g>
    <g id="line2d_46">
     <path d="M 521.32817 64.024375 
L 529.32817 64.024375 
L 537.32817 64.024375 
" style="fill: none; stroke-dasharray: 6.66,2.88; stroke-dashoffset: 0; stroke: #ffbb78; stroke-width: 1.8"/>
     <g>
      <use xlink:href="#mf06ab8ee84" x="529.32817" y="64.024375" style="fill: #ffbb78; stroke: #ffbb78"/>
     </g>
    </g>
    <g id="text_21">
     <!-- ECOD (Unsup) -->
     <g transform="translate(543.72817 66.824375) scale(0.08 -0.08)">
      <use xlink:href="#DejaVuSans-45"/>
      <use xlink:href="#DejaVuSans-43" x="63.183594"/>
      <use xlink:href="#DejaVuSans-4f" x="133.007812"/>
      <use xlink:href="#DejaVuSans-44" x="211.71875"/>
      <use xlink:href="#DejaVuSans-20" x="288.720703"/>
      <use xlink:href="#DejaVuSans-28" x="320.507812"/>
      <use xlink:href="#DejaVuSans-55" x="359.521484"/>
      <use xlink:href="#DejaVuSans-6e" x="432.714844"/>
      <use xlink:href="#DejaVuSans-73" x="496.09375"/>
      <use xlink:href="#DejaVuSans-75" x="548.193359"/>
      <use xlink:href="#DejaVuSans-70" x="611.572266"/>
      <use xlink:href="#DejaVuSans-29" x="675.048828"/>
     </g>
    </g>
    <g id="line2d_47">
     <path d="M 521.32817 75.766875 
L 529.32817 75.766875 
L 537.32817 75.766875 
" style="fill: none; stroke-dasharray: 6.66,2.88; stroke-dashoffset: 0; stroke: #2ca02c; stroke-width: 1.8"/>
     <g>
      <use xlink:href="#m0265f26b7c" x="529.32817" y="75.766875" style="fill: #2ca02c; stroke: #2ca02c"/>
     </g>
    </g>
    <g id="text_22">
     <!-- IForest (Unsup) -->
     <g transform="translate(543.72817 78.566875) scale(0.08 -0.08)">
      <defs>
       <path id="DejaVuSans-49" d="M 628 4666 
L 1259 4666 
L 1259 0 
L 628 0 
L 628 4666 
z
" transform="scale(0.015625)"/>
       <path id="DejaVuSans-46" d="M 628 4666 
L 3309 4666 
L 3309 4134 
L 1259 4134 
L 1259 2759 
L 3109 2759 
L 3109 2228 
L 1259 2228 
L 1259 0 
L 628 0 
L 628 4666 
z
" transform="scale(0.015625)"/>
      </defs>
      <use xlink:href="#DejaVuSans-49"/>
      <use xlink:href="#DejaVuSans-46" x="29.492188"/>
      <use xlink:href="#DejaVuSans-6f" x="83.386719"/>
      <use xlink:href="#DejaVuSans-72" x="144.568359"/>
      <use xlink:href="#DejaVuSans-65" x="183.431641"/>
      <use xlink:href="#DejaVuSans-73" x="244.955078"/>
      <use xlink:href="#DejaVuSans-74" x="297.054688"/>
      <use xlink:href="#DejaVuSans-20" x="336.263672"/>
      <use xlink:href="#DejaVuSans-28" x="368.050781"/>
      <use xlink:href="#DejaVuSans-55" x="407.064453"/>
      <use xlink:href="#DejaVuSans-6e" x="480.257812"/>
      <use xlink:href="#DejaVuSans-73" x="543.636719"/>
      <use xlink:href="#DejaVuSans-75" x="595.736328"/>
      <use xlink:href="#DejaVuSans-70" x="659.115234"/>
      <use xlink:href="#DejaVuSans-29" x="722.591797"/>
     </g>
    </g>
    <g id="line2d_48">
     <path d="M 521.32817 87.509375 
L 529.32817 87.509375 
L 537.32817 87.509375 
" style="fill: none; stroke-dasharray: 6.66,2.88; stroke-dashoffset: 0; stroke: #98df8a; stroke-width: 1.8"/>
     <g>
      <use xlink:href="#m42ba777cd7" x="529.32817" y="87.509375" style="fill: #98df8a; stroke: #98df8a"/>
     </g>
    </g>
    <g id="text_23">
     <!-- IQR (Unsup) -->
     <g transform="translate(543.72817 90.309375) scale(0.08 -0.08)">
      <defs>
       <path id="DejaVuSans-51" d="M 2522 4238 
Q 1834 4238 1429 3725 
Q 1025 3213 1025 2328 
Q 1025 1447 1429 934 
Q 1834 422 2522 422 
Q 3209 422 3611 934 
Q 4013 1447 4013 2328 
Q 4013 3213 3611 3725 
Q 3209 4238 2522 4238 
z
M 3406 84 
L 4238 -825 
L 3475 -825 
L 2784 -78 
Q 2681 -84 2626 -87 
Q 2572 -91 2522 -91 
Q 1538 -91 948 567 
Q 359 1225 359 2328 
Q 359 3434 948 4092 
Q 1538 4750 2522 4750 
Q 3503 4750 4090 4092 
Q 4678 3434 4678 2328 
Q 4678 1516 4351 937 
Q 4025 359 3406 84 
z
" transform="scale(0.015625)"/>
       <path id="DejaVuSans-52" d="M 2841 2188 
Q 3044 2119 3236 1894 
Q 3428 1669 3622 1275 
L 4263 0 
L 3584 0 
L 2988 1197 
Q 2756 1666 2539 1819 
Q 2322 1972 1947 1972 
L 1259 1972 
L 1259 0 
L 628 0 
L 628 4666 
L 2053 4666 
Q 2853 4666 3247 4331 
Q 3641 3997 3641 3322 
Q 3641 2881 3436 2590 
Q 3231 2300 2841 2188 
z
M 1259 4147 
L 1259 2491 
L 2053 2491 
Q 2509 2491 2742 2702 
Q 2975 2913 2975 3322 
Q 2975 3731 2742 3939 
Q 2509 4147 2053 4147 
L 1259 4147 
z
" transform="scale(0.015625)"/>
      </defs>
      <use xlink:href="#DejaVuSans-49"/>
      <use xlink:href="#DejaVuSans-51" x="29.492188"/>
      <use xlink:href="#DejaVuSans-52" x="108.203125"/>
      <use xlink:href="#DejaVuSans-20" x="177.685547"/>
      <use xlink:href="#DejaVuSans-28" x="209.472656"/>
      <use xlink:href="#DejaVuSans-55" x="248.486328"/>
      <use xlink:href="#DejaVuSans-6e" x="321.679688"/>
      <use xlink:href="#DejaVuSans-73" x="385.058594"/>
      <use xlink:href="#DejaVuSans-75" x="437.158203"/>
      <use xlink:href="#DejaVuSans-70" x="500.537109"/>
      <use xlink:href="#DejaVuSans-29" x="564.013672"/>
     </g>
    </g>
    <g id="line2d_49">
     <path d="M 521.32817 99.251875 
L 529.32817 99.251875 
L 537.32817 99.251875 
" style="fill: none; stroke-dasharray: 6.66,2.88; stroke-dashoffset: 0; stroke: #d62728; stroke-width: 1.8"/>
     <g>
      <use xlink:href="#mf3c7ad0ec0" x="529.32817" y="99.251875" style="fill: #d62728; stroke: #d62728"/>
     </g>
    </g>
    <g id="text_24">
     <!-- KNN (Unsup) -->
     <g transform="translate(543.72817 102.051875) scale(0.08 -0.08)">
      <defs>
       <path id="DejaVuSans-4b" d="M 628 4666 
L 1259 4666 
L 1259 2694 
L 3353 4666 
L 4166 4666 
L 1850 2491 
L 4331 0 
L 3500 0 
L 1259 2247 
L 1259 0 
L 628 0 
L 628 4666 
z
" transform="scale(0.015625)"/>
       <path id="DejaVuSans-4e" d="M 628 4666 
L 1478 4666 
L 3547 763 
L 3547 4666 
L 4159 4666 
L 4159 0 
L 3309 0 
L 1241 3903 
L 1241 0 
L 628 0 
L 628 4666 
z
" transform="scale(0.015625)"/>
      </defs>
      <use xlink:href="#DejaVuSans-4b"/>
      <use xlink:href="#DejaVuSans-4e" x="65.576172"/>
      <use xlink:href="#DejaVuSans-4e" x="140.380859"/>
      <use xlink:href="#DejaVuSans-20" x="215.185547"/>
      <use xlink:href="#DejaVuSans-28" x="246.972656"/>
      <use xlink:href="#DejaVuSans-55" x="285.986328"/>
      <use xlink:href="#DejaVuSans-6e" x="359.179688"/>
      <use xlink:href="#DejaVuSans-73" x="422.558594"/>
      <use xlink:href="#DejaVuSans-75" x="474.658203"/>
      <use xlink:href="#DejaVuSans-70" x="538.037109"/>
      <use xlink:href="#DejaVuSans-29" x="601.513672"/>
     </g>
    </g>
    <g id="line2d_50">
     <path d="M 521.32817 110.994375 
L 529.32817 110.994375 
L 537.32817 110.994375 
" style="fill: none; stroke-dasharray: 6.66,2.88; stroke-dashoffset: 0; stroke: #ff9896; stroke-width: 1.8"/>
     <g>
      <use xlink:href="#m95c1c7d0ea" x="529.32817" y="110.994375" style="fill: #ff9896; stroke: #ff9896"/>
     </g>
    </g>
    <g id="text_25">
     <!-- LOF (Unsup) -->
     <g transform="translate(543.72817 113.794375) scale(0.08 -0.08)">
      <defs>
       <path id="DejaVuSans-4c" d="M 628 4666 
L 1259 4666 
L 1259 531 
L 3531 531 
L 3531 0 
L 628 0 
L 628 4666 
z
" transform="scale(0.015625)"/>
      </defs>
      <use xlink:href="#DejaVuSans-4c"/>
      <use xlink:href="#DejaVuSans-4f" x="52.087891"/>
      <use xlink:href="#DejaVuSans-46" x="130.798828"/>
      <use xlink:href="#DejaVuSans-20" x="188.318359"/>
      <use xlink:href="#DejaVuSans-28" x="220.105469"/>
      <use xlink:href="#DejaVuSans-55" x="259.119141"/>
      <use xlink:href="#DejaVuSans-6e" x="332.3125"/>
      <use xlink:href="#DejaVuSans-73" x="395.691406"/>
      <use xlink:href="#DejaVuSans-75" x="447.791016"/>
      <use xlink:href="#DejaVuSans-70" x="511.169922"/>
      <use xlink:href="#DejaVuSans-29" x="574.646484"/>
     </g>
    </g>
    <g id="line2d_51">
     <path d="M 521.32817 122.736875 
L 529.32817 122.736875 
L 537.32817 122.736875 
" style="fill: none; stroke: #9467bd; stroke-width: 1.8; stroke-linecap: square"/>
     <g>
      <use xlink:href="#me132d92aeb" x="529.32817" y="122.736875" style="fill: #9467bd; stroke: #9467bd; stroke-linejoin: miter"/>
     </g>
    </g>
    <g id="text_26">
     <!-- LR (Sup) -->
     <g transform="translate(543.72817 125.536875) scale(0.08 -0.08)">
      <use xlink:href="#DejaVuSans-4c"/>
      <use xlink:href="#DejaVuSans-52" x="55.712891"/>
      <use xlink:href="#DejaVuSans-20" x="125.195312"/>
      <use xlink:href="#DejaVuSans-28" x="156.982422"/>
      <use xlink:href="#DejaVuSans-53" x="195.996094"/>
      <use xlink:href="#DejaVuSans-75" x="259.472656"/>
      <use xlink:href="#DejaVuSans-70" x="322.851562"/>
      <use xlink:href="#DejaVuSans-29" x="386.328125"/>
     </g>
    </g>
    <g id="line2d_52">
     <path d="M 521.32817 134.479375 
L 529.32817 134.479375 
L 537.32817 134.479375 
" style="fill: none; stroke: #c5b0d5; stroke-width: 1.8; stroke-linecap: square"/>
     <g>
      <use xlink:href="#m539429afaa" x="529.32817" y="134.479375" style="fill: #c5b0d5; stroke: #c5b0d5; stroke-linejoin: miter"/>
     </g>
    </g>
    <g id="text_27">
     <!-- LightGBM (Sup) -->
     <g transform="translate(543.72817 137.279375) scale(0.08 -0.08)">
      <defs>
       <path id="DejaVuSans-68" d="M 3513 2113 
L 3513 0 
L 2938 0 
L 2938 2094 
Q 2938 2591 2744 2837 
Q 2550 3084 2163 3084 
Q 1697 3084 1428 2787 
Q 1159 2491 1159 1978 
L 1159 0 
L 581 0 
L 581 4863 
L 1159 4863 
L 1159 2956 
Q 1366 3272 1645 3428 
Q 1925 3584 2291 3584 
Q 2894 3584 3203 3211 
Q 3513 2838 3513 2113 
z
" transform="scale(0.015625)"/>
       <path id="DejaVuSans-47" d="M 3809 666 
L 3809 1919 
L 2778 1919 
L 2778 2438 
L 4434 2438 
L 4434 434 
Q 4069 175 3628 42 
Q 3188 -91 2688 -91 
Q 1594 -91 976 548 
Q 359 1188 359 2328 
Q 359 3472 976 4111 
Q 1594 4750 2688 4750 
Q 3144 4750 3555 4637 
Q 3966 4525 4313 4306 
L 4313 3634 
Q 3963 3931 3569 4081 
Q 3175 4231 2741 4231 
Q 1884 4231 1454 3753 
Q 1025 3275 1025 2328 
Q 1025 1384 1454 906 
Q 1884 428 2741 428 
Q 3075 428 3337 486 
Q 3600 544 3809 666 
z
" transform="scale(0.015625)"/>
       <path id="DejaVuSans-42" d="M 1259 2228 
L 1259 519 
L 2272 519 
Q 2781 519 3026 730 
Q 3272 941 3272 1375 
Q 3272 1813 3026 2020 
Q 2781 2228 2272 2228 
L 1259 2228 
z
M 1259 4147 
L 1259 2741 
L 2194 2741 
Q 2656 2741 2882 2914 
Q 3109 3088 3109 3444 
Q 3109 3797 2882 3972 
Q 2656 4147 2194 4147 
L 1259 4147 
z
M 628 4666 
L 2241 4666 
Q 2963 4666 3353 4366 
Q 3744 4066 3744 3513 
Q 3744 3084 3544 2831 
Q 3344 2578 2956 2516 
Q 3422 2416 3680 2098 
Q 3938 1781 3938 1306 
Q 3938 681 3513 340 
Q 3088 0 2303 0 
L 628 0 
L 628 4666 
z
" transform="scale(0.015625)"/>
       <path id="DejaVuSans-4d" d="M 628 4666 
L 1569 4666 
L 2759 1491 
L 3956 4666 
L 4897 4666 
L 4897 0 
L 4281 0 
L 4281 4097 
L 3078 897 
L 2444 897 
L 1241 4097 
L 1241 0 
L 628 0 
L 628 4666 
z
" transform="scale(0.015625)"/>
      </defs>
      <use xlink:href="#DejaVuSans-4c"/>
      <use xlink:href="#DejaVuSans-69" x="55.712891"/>
      <use xlink:href="#DejaVuSans-67" x="83.496094"/>
      <use xlink:href="#DejaVuSans-68" x="146.972656"/>
      <use xlink:href="#DejaVuSans-74" x="210.351562"/>
      <use xlink:href="#DejaVuSans-47" x="249.560547"/>
      <use xlink:href="#DejaVuSans-42" x="327.050781"/>
      <use xlink:href="#DejaVuSans-4d" x="395.654297"/>
      <use xlink:href="#DejaVuSans-20" x="481.933594"/>
      <use xlink:href="#DejaVuSans-28" x="513.720703"/>
      <use xlink:href="#DejaVuSans-53" x="552.734375"/>
      <use xlink:href="#DejaVuSans-75" x="616.210938"/>
      <use xlink:href="#DejaVuSans-70" x="679.589844"/>
      <use xlink:href="#DejaVuSans-29" x="743.066406"/>
     </g>
    </g>
    <g id="line2d_53">
     <path d="M 521.32817 146.221875 
L 529.32817 146.221875 
L 537.32817 146.221875 
" style="fill: none; stroke: #8c564b; stroke-width: 1.8; stroke-linecap: square"/>
     <g>
      <use xlink:href="#m48fa7e9328" x="529.32817" y="146.221875" style="fill: #8c564b; stroke: #8c564b; stroke-linejoin: miter"/>
     </g>
    </g>
    <g id="text_28">
     <!-- MLP (Sup) -->
     <g transform="translate(543.72817 149.021875) scale(0.08 -0.08)">
      <use xlink:href="#DejaVuSans-4d"/>
      <use xlink:href="#DejaVuSans-4c" x="86.279297"/>
      <use xlink:href="#DejaVuSans-50" x="141.992188"/>
      <use xlink:href="#DejaVuSans-20" x="202.294922"/>
      <use xlink:href="#DejaVuSans-28" x="234.082031"/>
      <use xlink:href="#DejaVuSans-53" x="273.095703"/>
      <use xlink:href="#DejaVuSans-75" x="336.572266"/>
      <use xlink:href="#DejaVuSans-70" x="399.951172"/>
      <use xlink:href="#DejaVuSans-29" x="463.427734"/>
     </g>
    </g>
    <g id="line2d_54">
     <path d="M 521.32817 157.964375 
L 529.32817 157.964375 
L 537.32817 157.964375 
" style="fill: none; stroke-dasharray: 6.66,2.88; stroke-dashoffset: 0; stroke: #c49c94; stroke-width: 1.8"/>
     <g>
      <use xlink:href="#m9a529afa31" x="529.32817" y="157.964375" style="fill: #c49c94; stroke: #c49c94"/>
     </g>
    </g>
    <g id="text_29">
     <!-- OCSVM (Unsup) -->
     <g transform="translate(543.72817 160.764375) scale(0.08 -0.08)">
      <use xlink:href="#DejaVuSans-4f"/>
      <use xlink:href="#DejaVuSans-43" x="78.710938"/>
      <use xlink:href="#DejaVuSans-53" x="148.535156"/>
      <use xlink:href="#DejaVuSans-56" x="212.011719"/>
      <use xlink:href="#DejaVuSans-4d" x="280.419922"/>
      <use xlink:href="#DejaVuSans-20" x="366.699219"/>
      <use xlink:href="#DejaVuSans-28" x="398.486328"/>
      <use xlink:href="#DejaVuSans-55" x="437.5"/>
      <use xlink:href="#DejaVuSans-6e" x="510.693359"/>
      <use xlink:href="#DejaVuSans-73" x="574.072266"/>
      <use xlink:href="#DejaVuSans-75" x="626.171875"/>
      <use xlink:href="#DejaVuSans-70" x="689.550781"/>
      <use xlink:href="#DejaVuSans-29" x="753.027344"/>
     </g>
    </g>
    <g id="line2d_55">
     <path d="M 521.32817 169.706875 
L 529.32817 169.706875 
L 537.32817 169.706875 
" style="fill: none; stroke: #e377c2; stroke-width: 1.8; stroke-linecap: square"/>
     <g>
      <use xlink:href="#m9b2dcae3ee" x="529.32817" y="169.706875" style="fill: #e377c2; stroke: #e377c2; stroke-linejoin: miter"/>
     </g>
    </g>
    <g id="text_30">
     <!-- RF (Sup) -->
     <g transform="translate(543.72817 172.506875) scale(0.08 -0.08)">
      <use xlink:href="#DejaVuSans-52"/>
      <use xlink:href="#DejaVuSans-46" x="69.482422"/>
      <use xlink:href="#DejaVuSans-20" x="127.001953"/>
      <use xlink:href="#DejaVuSans-28" x="158.789062"/>
      <use xlink:href="#DejaVuSans-53" x="197.802734"/>
      <use xlink:href="#DejaVuSans-75" x="261.279297"/>
      <use xlink:href="#DejaVuSans-70" x="324.658203"/>
      <use xlink:href="#DejaVuSans-29" x="388.134766"/>
     </g>
    </g>
    <g id="line2d_56">
     <path d="M 521.32817 181.449375 
L 529.32817 181.449375 
L 537.32817 181.449375 
" style="fill: none; stroke: #f7b6d2; stroke-width: 1.8; stroke-linecap: square"/>
     <g>
      <use xlink:href="#mad437e2cf8" x="529.32817" y="181.449375" style="fill: #f7b6d2; stroke: #f7b6d2; stroke-linejoin: miter"/>
     </g>
    </g>
    <g id="text_31">
     <!-- XGBoost (Sup) -->
     <g transform="translate(543.72817 184.249375) scale(0.08 -0.08)">
      <defs>
       <path id="DejaVuSans-58" d="M 403 4666 
L 1081 4666 
L 2241 2931 
L 3406 4666 
L 4084 4666 
L 2584 2425 
L 4184 0 
L 3506 0 
L 2194 1984 
L 872 0 
L 191 0 
L 1856 2491 
L 403 4666 
z
" transform="scale(0.015625)"/>
      </defs>
      <use xlink:href="#DejaVuSans-58"/>
      <use xlink:href="#DejaVuSans-47" x="68.505859"/>
      <use xlink:href="#DejaVuSans-42" x="145.996094"/>
      <use xlink:href="#DejaVuSans-6f" x="214.599609"/>
      <use xlink:href="#DejaVuSans-6f" x="275.78125"/>
      <use xlink:href="#DejaVuSans-73" x="336.962891"/>
      <use xlink:href="#DejaVuSans-74" x="389.0625"/>
      <use xlink:href="#DejaVuSans-20" x="428.271484"/>
      <use xlink:href="#DejaVuSans-28" x="460.058594"/>
      <use xlink:href="#DejaVuSans-53" x="499.072266"/>
      <use xlink:href="#DejaVuSans-75" x="562.548828"/>
      <use xlink:href="#DejaVuSans-70" x="625.927734"/>
      <use xlink:href="#DejaVuSans-29" x="689.404297"/>
     </g>
    </g>
   </g>
  </g>
 </g>
 <defs>
  <clipPath id="pcd936bda18">
   <rect x="43.78125" y="22.318125" width="465.046" height="328.6"/>
  </clipPath>
 </defs>
</svg>
