<?xml version="1.0" encoding="utf-8" standalone="no"?>
<!DOCTYPE svg PUBLIC "-//W3C//DTD SVG 1.1//EN"
  "http://www.w3.org/Graphics/SVG/1.1/DTD/svg11.dtd">
<svg xmlns:xlink="http://www.w3.org/1999/xlink" width="537.695427pt" height="445.483923pt" viewBox="0 0 537.695427 445.483923" xmlns="http://www.w3.org/2000/svg" version="1.1">
 <metadata>
  <rdf:RDF xmlns:dc="http://purl.org/dc/elements/1.1/" xmlns:cc="http://creativecommons.org/ns#" xmlns:rdf="http://www.w3.org/1999/02/22-rdf-syntax-ns#">
   <cc:Work>
    <dc:type rdf:resource="http://purl.org/dc/dcmitype/StillImage"/>
    <dc:date>2026-06-04T22:08:08.693439</dc:date>
    <dc:format>image/svg+xml</dc:format>
    <dc:creator>
     <cc:Agent>
      <dc:title>Matplotlib v3.9.2, https://matplotlib.org/</dc:title>
     </cc:Agent>
    </dc:creator>
   </cc:Work>
  </rdf:RDF>
 </metadata>
 <defs>
  <style type="text/css">*{stroke-linejoin: round; stroke-linecap: butt}</style>
 </defs>
 <g id="figure_1">
  <g id="patch_1">
   <path d="M 0 445.483923 
L 537.695427 445.483923 
L 537.695427 0 
L 0 0 
z
" style="fill: #ffffff"/>
  </g>
  <g id="axes_1">
   <g id="patch_2">
    <path d="M 399.167427 235.548 
C 399.167427 210.066901 394.148206 184.833573 384.397011 161.292107 
C 374.645817 137.750641 360.352285 116.358858 342.334427 98.341 
C 324.316568 80.323142 302.924786 66.02961 279.38332 56.278416 
C 255.841854 46.527221 230.608526 41.508 205.127427 41.508 
C 179.646327 41.508 154.413 46.527221 130.871534 56.278416 
C 107.330067 66.02961 85.938285 80.323142 67.920427 98.341 
C 49.902569 116.358858 35.609037 137.750641 25.857842 161.292107 
C 16.106648 184.833573 11.087427 210.066901 11.087427 235.548 
C 11.087427 261.029099 16.106648 286.262427 25.857842 309.803893 
C 35.609037 333.345359 49.902569 354.737142 67.920427 372.755 
C 85.938285 390.772858 107.330067 405.06639 130.871534 414.817584 
C 154.413 424.568779 179.646327 429.588 205.127427 429.588 
C 230.608526 429.588 255.841854 424.568779 279.38332 414.817584 
C 302.924786 405.06639 324.316568 390.772858 342.334427 372.755 
C 360.352285 354.737142 374.645817 333.345359 384.397011 309.803893 
C 394.148206 286.262427 399.167427 261.029099 399.167427 235.548 
M 205.127427 235.548 
C 205.127427 235.548 205.127427 235.548 205.127427 235.548 
C 205.127427 235.548 205.127427 235.548 205.127427 235.548 
C 205.127427 235.548 205.127427 235.548 205.127427 235.548 
C 205.127427 235.548 205.127427 235.548 205.127427 235.548 
C 205.127427 235.548 205.127427 235.548 205.127427 235.548 
C 205.127427 235.548 205.127427 235.548 205.127427 235.548 
C 205.127427 235.548 205.127427 235.548 205.127427 235.548 
C 205.127427 235.548 205.127427 235.548 205.127427 235.548 
C 205.127427 235.548 205.127427 235.548 205.127427 235.548 
C 205.127427 235.548 205.127427 235.548 205.127427 235.548 
C 205.127427 235.548 205.127427 235.548 205.127427 235.548 
C 205.127427 235.548 205.127427 235.548 205.127427 235.548 
C 205.127427 235.548 205.127427 235.548 205.127427 235.548 
C 205.127427 235.548 205.127427 235.548 205.127427 235.548 
C 205.127427 235.548 205.127427 235.548 205.127427 235.548 
C 205.127427 235.548 205.127427 235.548 205.127427 235.548 
z
" style="fill: #ffffff"/>
   </g>
   <g id="patch_3">
    <path d="M 386.797736 235.548 
L 259.104136 69.424769 
L 76.499338 142.094223 
L 143.840251 280.07574 
L 254.212639 386.61675 
z
" clip-path="url(#p7a90c41d98)" style="fill: #e41a1c; opacity: 0.1; stroke: #e41a1c; stroke-linejoin: miter"/>
   </g>
   <g id="patch_4">
    <path d="M 387.065332 235.548 
L 257.361276 74.788742 
L 88.304294 150.671025 
L 127.423763 292.003016 
L 253.198363 383.495129 
z
" clip-path="url(#p7a90c41d98)" style="fill: #377eb8; opacity: 0.1; stroke: #377eb8; stroke-linejoin: miter"/>
   </g>
   <g id="patch_5">
    <path d="M 387.394265 235.548 
L 258.878356 70.119651 
L 76.897352 142.383397 
L 151.162496 274.755817 
L 254.559817 387.685254 
z
" clip-path="url(#p7a90c41d98)" style="fill: #4daf4a; opacity: 0.1; stroke: #4daf4a; stroke-linejoin: miter"/>
   </g>
   <g id="patch_6">
    <path d="M 387.701962 235.548 
L 256.486535 77.480917 
L 68.998689 136.644683 
L 152.961081 273.449069 
L 251.416028 378.009665 
z
" clip-path="url(#p7a90c41d98)" style="fill: #984ea3; opacity: 0.1; stroke: #984ea3; stroke-linejoin: miter"/>
   </g>
   <g id="patch_7">
    <path d="M 383.961913 235.548 
L 254.35235 84.049264 
L 68.526044 136.301286 
L 154.100474 272.621252 
L 253.254627 383.668291 
z
" clip-path="url(#p7a90c41d98)" style="fill: #ff7f00; opacity: 0.1; stroke: #ff7f00; stroke-linejoin: miter"/>
   </g>
   <g id="matplotlib.axis_1">
    <g id="xtick_1">
     <g id="line2d_1">
      <path d="M 205.127427 235.548 
L 399.167427 235.548 
" clip-path="url(#p7a90c41d98)" style="fill: none; stroke: #b0b0b0; stroke-width: 0.8; stroke-linecap: square"/>
     </g>
     <g id="text_1">
      <!-- tabular -->
      <g transform="translate(392.711177 238.307375) scale(0.1 -0.1)">
       <defs>
        <path id="DejaVuSans-Bold-74" d="M 1759 4494 
L 1759 3500 
L 2913 3500 
L 2913 2700 
L 1759 2700 
L 1759 1216 
Q 1759 972 1856 886 
Q 1953 800 2241 800 
L 2816 800 
L 2816 0 
L 1856 0 
Q 1194 0 917 276 
Q 641 553 641 1216 
L 641 2700 
L 84 2700 
L 84 3500 
L 641 3500 
L 641 4494 
L 1759 4494 
z
" transform="scale(0.015625)"/>
        <path id="DejaVuSans-Bold-61" d="M 2106 1575 
Q 1756 1575 1579 1456 
Q 1403 1338 1403 1106 
Q 1403 894 1545 773 
Q 1688 653 1941 653 
Q 2256 653 2472 879 
Q 2688 1106 2688 1447 
L 2688 1575 
L 2106 1575 
z
M 3816 1997 
L 3816 0 
L 2688 0 
L 2688 519 
Q 2463 200 2181 54 
Q 1900 -91 1497 -91 
Q 953 -91 614 226 
Q 275 544 275 1050 
Q 275 1666 698 1953 
Q 1122 2241 2028 2241 
L 2688 2241 
L 2688 2328 
Q 2688 2594 2478 2717 
Q 2269 2841 1825 2841 
Q 1466 2841 1156 2769 
Q 847 2697 581 2553 
L 581 3406 
Q 941 3494 1303 3539 
Q 1666 3584 2028 3584 
Q 2975 3584 3395 3211 
Q 3816 2838 3816 1997 
z
" transform="scale(0.015625)"/>
        <path id="DejaVuSans-Bold-62" d="M 2400 722 
Q 2759 722 2948 984 
Q 3138 1247 3138 1747 
Q 3138 2247 2948 2509 
Q 2759 2772 2400 2772 
Q 2041 2772 1848 2508 
Q 1656 2244 1656 1747 
Q 1656 1250 1848 986 
Q 2041 722 2400 722 
z
M 1656 2988 
Q 1888 3294 2169 3439 
Q 2450 3584 2816 3584 
Q 3463 3584 3878 3070 
Q 4294 2556 4294 1747 
Q 4294 938 3878 423 
Q 3463 -91 2816 -91 
Q 2450 -91 2169 54 
Q 1888 200 1656 506 
L 1656 0 
L 538 0 
L 538 4863 
L 1656 4863 
L 1656 2988 
z
" transform="scale(0.015625)"/>
        <path id="DejaVuSans-Bold-75" d="M 500 1363 
L 500 3500 
L 1625 3500 
L 1625 3150 
Q 1625 2866 1622 2436 
Q 1619 2006 1619 1863 
Q 1619 1441 1641 1255 
Q 1663 1069 1716 984 
Q 1784 875 1895 815 
Q 2006 756 2150 756 
Q 2500 756 2700 1025 
Q 2900 1294 2900 1772 
L 2900 3500 
L 4019 3500 
L 4019 0 
L 2900 0 
L 2900 506 
Q 2647 200 2364 54 
Q 2081 -91 1741 -91 
Q 1134 -91 817 281 
Q 500 653 500 1363 
z
" transform="scale(0.015625)"/>
        <path id="DejaVuSans-Bold-6c" d="M 538 4863 
L 1656 4863 
L 1656 0 
L 538 0 
L 538 4863 
z
" transform="scale(0.015625)"/>
        <path id="DejaVuSans-Bold-72" d="M 3138 2547 
Q 2991 2616 2845 2648 
Q 2700 2681 2553 2681 
Q 2122 2681 1889 2404 
Q 1656 2128 1656 1613 
L 1656 0 
L 538 0 
L 538 3500 
L 1656 3500 
L 1656 2925 
Q 1872 3269 2151 3426 
Q 2431 3584 2822 3584 
Q 2878 3584 2943 3579 
Q 3009 3575 3134 3559 
L 3138 2547 
z
" transform="scale(0.015625)"/>
       </defs>
       <use xlink:href="#DejaVuSans-Bold-74"/>
       <use xlink:href="#DejaVuSans-Bold-61" x="47.802734"/>
       <use xlink:href="#DejaVuSans-Bold-62" x="115.283203"/>
       <use xlink:href="#DejaVuSans-Bold-75" x="186.865234"/>
       <use xlink:href="#DejaVuSans-Bold-6c" x="258.056641"/>
       <use xlink:href="#DejaVuSans-Bold-61" x="292.333984"/>
       <use xlink:href="#DejaVuSans-Bold-72" x="359.814453"/>
      </g>
     </g>
    </g>
    <g id="xtick_2">
     <g id="line2d_2">
      <path d="M 205.127427 235.548 
L 265.089084 51.004994 
" clip-path="url(#p7a90c41d98)" style="fill: none; stroke: #b0b0b0; stroke-width: 0.8; stroke-linecap: square"/>
     </g>
     <g id="text_2">
      <!-- cv -->
      <g transform="translate(263.191885 40.449577) scale(0.1 -0.1)">
       <defs>
        <path id="DejaVuSans-Bold-63" d="M 3366 3391 
L 3366 2478 
Q 3138 2634 2908 2709 
Q 2678 2784 2431 2784 
Q 1963 2784 1702 2511 
Q 1441 2238 1441 1747 
Q 1441 1256 1702 982 
Q 1963 709 2431 709 
Q 2694 709 2930 787 
Q 3166 866 3366 1019 
L 3366 103 
Q 3103 6 2833 -42 
Q 2563 -91 2291 -91 
Q 1344 -91 809 395 
Q 275 881 275 1747 
Q 275 2613 809 3098 
Q 1344 3584 2291 3584 
Q 2566 3584 2833 3536 
Q 3100 3488 3366 3391 
z
" transform="scale(0.015625)"/>
        <path id="DejaVuSans-Bold-76" d="M 97 3500 
L 1216 3500 
L 2088 1081 
L 2956 3500 
L 4078 3500 
L 2700 0 
L 1472 0 
L 97 3500 
z
" transform="scale(0.015625)"/>
       </defs>
       <use xlink:href="#DejaVuSans-Bold-63"/>
       <use xlink:href="#DejaVuSans-Bold-76" x="59.277344"/>
      </g>
     </g>
    </g>
    <g id="xtick_3">
     <g id="line2d_3">
      <path d="M 205.127427 235.548 
L 48.145769 121.49415 
" clip-path="url(#p7a90c41d98)" style="fill: none; stroke: #b0b0b0; stroke-width: 0.8; stroke-linecap: square"/>
     </g>
     <g id="text_3">
      <!-- nlp -->
      <g transform="translate(27.967187 116.024531) scale(0.1 -0.1)">
       <defs>
        <path id="DejaVuSans-Bold-6e" d="M 4056 2131 
L 4056 0 
L 2931 0 
L 2931 347 
L 2931 1631 
Q 2931 2084 2911 2256 
Q 2891 2428 2841 2509 
Q 2775 2619 2662 2680 
Q 2550 2741 2406 2741 
Q 2056 2741 1856 2470 
Q 1656 2200 1656 1722 
L 1656 0 
L 538 0 
L 538 3500 
L 1656 3500 
L 1656 2988 
Q 1909 3294 2193 3439 
Q 2478 3584 2822 3584 
Q 3428 3584 3742 3212 
Q 4056 2841 4056 2131 
z
" transform="scale(0.015625)"/>
        <path id="DejaVuSans-Bold-70" d="M 1656 506 
L 1656 -1331 
L 538 -1331 
L 538 3500 
L 1656 3500 
L 1656 2988 
Q 1888 3294 2169 3439 
Q 2450 3584 2816 3584 
Q 3463 3584 3878 3070 
Q 4294 2556 4294 1747 
Q 4294 938 3878 423 
Q 3463 -91 2816 -91 
Q 2450 -91 2169 54 
Q 1888 200 1656 506 
z
M 2400 2772 
Q 2041 2772 1848 2508 
Q 1656 2244 1656 1747 
Q 1656 1250 1848 986 
Q 2041 722 2400 722 
Q 2759 722 2948 984 
Q 3138 1247 3138 1747 
Q 3138 2247 2948 2509 
Q 2759 2772 2400 2772 
z
" transform="scale(0.015625)"/>
       </defs>
       <use xlink:href="#DejaVuSans-Bold-6e"/>
       <use xlink:href="#DejaVuSans-Bold-6c" x="71.191406"/>
       <use xlink:href="#DejaVuSans-Bold-70" x="105.46875"/>
      </g>
     </g>
    </g>
    <g id="xtick_4">
     <g id="line2d_4">
      <path d="M 205.127427 235.548 
L 48.145769 349.60185 
" clip-path="url(#p7a90c41d98)" style="fill: none; stroke: #b0b0b0; stroke-width: 0.8; stroke-linecap: square"/>
     </g>
     <g id="text_4">
      <!-- timeseries -->
      <g transform="translate(7.2 360.590219) scale(0.1 -0.1)">
       <defs>
        <path id="DejaVuSans-Bold-69" d="M 538 3500 
L 1656 3500 
L 1656 0 
L 538 0 
L 538 3500 
z
M 538 4863 
L 1656 4863 
L 1656 3950 
L 538 3950 
L 538 4863 
z
" transform="scale(0.015625)"/>
        <path id="DejaVuSans-Bold-6d" d="M 3781 2919 
Q 3994 3244 4286 3414 
Q 4578 3584 4928 3584 
Q 5531 3584 5847 3212 
Q 6163 2841 6163 2131 
L 6163 0 
L 5038 0 
L 5038 1825 
Q 5041 1866 5042 1909 
Q 5044 1953 5044 2034 
Q 5044 2406 4934 2573 
Q 4825 2741 4581 2741 
Q 4263 2741 4089 2478 
Q 3916 2216 3909 1719 
L 3909 0 
L 2784 0 
L 2784 1825 
Q 2784 2406 2684 2573 
Q 2584 2741 2328 2741 
Q 2006 2741 1831 2477 
Q 1656 2213 1656 1722 
L 1656 0 
L 531 0 
L 531 3500 
L 1656 3500 
L 1656 2988 
Q 1863 3284 2130 3434 
Q 2397 3584 2719 3584 
Q 3081 3584 3359 3409 
Q 3638 3234 3781 2919 
z
" transform="scale(0.015625)"/>
        <path id="DejaVuSans-Bold-65" d="M 4031 1759 
L 4031 1441 
L 1416 1441 
Q 1456 1047 1700 850 
Q 1944 653 2381 653 
Q 2734 653 3104 758 
Q 3475 863 3866 1075 
L 3866 213 
Q 3469 63 3072 -14 
Q 2675 -91 2278 -91 
Q 1328 -91 801 392 
Q 275 875 275 1747 
Q 275 2603 792 3093 
Q 1309 3584 2216 3584 
Q 3041 3584 3536 3087 
Q 4031 2591 4031 1759 
z
M 2881 2131 
Q 2881 2450 2695 2645 
Q 2509 2841 2209 2841 
Q 1884 2841 1681 2658 
Q 1478 2475 1428 2131 
L 2881 2131 
z
" transform="scale(0.015625)"/>
        <path id="DejaVuSans-Bold-73" d="M 3272 3391 
L 3272 2541 
Q 2913 2691 2578 2766 
Q 2244 2841 1947 2841 
Q 1628 2841 1473 2761 
Q 1319 2681 1319 2516 
Q 1319 2381 1436 2309 
Q 1553 2238 1856 2203 
L 2053 2175 
Q 2913 2066 3209 1816 
Q 3506 1566 3506 1031 
Q 3506 472 3093 190 
Q 2681 -91 1863 -91 
Q 1516 -91 1145 -36 
Q 775 19 384 128 
L 384 978 
Q 719 816 1070 734 
Q 1422 653 1784 653 
Q 2113 653 2278 743 
Q 2444 834 2444 1013 
Q 2444 1163 2330 1236 
Q 2216 1309 1875 1350 
L 1678 1375 
Q 931 1469 631 1722 
Q 331 1975 331 2491 
Q 331 3047 712 3315 
Q 1094 3584 1881 3584 
Q 2191 3584 2531 3537 
Q 2872 3491 3272 3391 
z
" transform="scale(0.015625)"/>
       </defs>
       <use xlink:href="#DejaVuSans-Bold-74"/>
       <use xlink:href="#DejaVuSans-Bold-69" x="47.802734"/>
       <use xlink:href="#DejaVuSans-Bold-6d" x="82.080078"/>
       <use xlink:href="#DejaVuSans-Bold-65" x="186.279297"/>
       <use xlink:href="#DejaVuSans-Bold-73" x="254.101562"/>
       <use xlink:href="#DejaVuSans-Bold-65" x="313.623047"/>
       <use xlink:href="#DejaVuSans-Bold-72" x="381.445312"/>
       <use xlink:href="#DejaVuSans-Bold-69" x="430.761719"/>
       <use xlink:href="#DejaVuSans-Bold-65" x="465.039062"/>
       <use xlink:href="#DejaVuSans-Bold-73" x="532.861328"/>
      </g>
     </g>
    </g>
    <g id="xtick_5">
     <g id="line2d_5">
      <path d="M 205.127427 235.548 
L 265.089084 420.091006 
" clip-path="url(#p7a90c41d98)" style="fill: none; stroke: #b0b0b0; stroke-width: 0.8; stroke-linecap: square"/>
     </g>
     <g id="text_5">
      <!-- graph -->
      <g transform="translate(252.858291 436.12611) scale(0.1 -0.1)">
       <defs>
        <path id="DejaVuSans-Bold-67" d="M 2919 594 
Q 2688 288 2409 144 
Q 2131 0 1766 0 
Q 1125 0 706 504 
Q 288 1009 288 1791 
Q 288 2575 706 3076 
Q 1125 3578 1766 3578 
Q 2131 3578 2409 3434 
Q 2688 3291 2919 2981 
L 2919 3500 
L 4044 3500 
L 4044 353 
Q 4044 -491 3511 -936 
Q 2978 -1381 1966 -1381 
Q 1638 -1381 1331 -1331 
Q 1025 -1281 716 -1178 
L 716 -306 
Q 1009 -475 1290 -558 
Q 1572 -641 1856 -641 
Q 2406 -641 2662 -400 
Q 2919 -159 2919 353 
L 2919 594 
z
M 2181 2772 
Q 1834 2772 1640 2515 
Q 1447 2259 1447 1791 
Q 1447 1309 1634 1061 
Q 1822 813 2181 813 
Q 2531 813 2725 1069 
Q 2919 1325 2919 1791 
Q 2919 2259 2725 2515 
Q 2531 2772 2181 2772 
z
" transform="scale(0.015625)"/>
        <path id="DejaVuSans-Bold-68" d="M 4056 2131 
L 4056 0 
L 2931 0 
L 2931 347 
L 2931 1625 
Q 2931 2084 2911 2256 
Q 2891 2428 2841 2509 
Q 2775 2619 2662 2680 
Q 2550 2741 2406 2741 
Q 2056 2741 1856 2470 
Q 1656 2200 1656 1722 
L 1656 0 
L 538 0 
L 538 4863 
L 1656 4863 
L 1656 2988 
Q 1909 3294 2193 3439 
Q 2478 3584 2822 3584 
Q 3428 3584 3742 3212 
Q 4056 2841 4056 2131 
z
" transform="scale(0.015625)"/>
       </defs>
       <use xlink:href="#DejaVuSans-Bold-67"/>
       <use xlink:href="#DejaVuSans-Bold-72" x="71.582031"/>
       <use xlink:href="#DejaVuSans-Bold-61" x="120.898438"/>
       <use xlink:href="#DejaVuSans-Bold-70" x="188.378906"/>
       <use xlink:href="#DejaVuSans-Bold-68" x="259.960938"/>
      </g>
     </g>
    </g>
   </g>
   <g id="matplotlib.axis_2">
    <g id="ytick_1">
     <g id="line2d_6">
      <path d="M 237.467427 235.548 
C 237.467427 231.30115 236.63089 227.095595 235.005691 223.172018 
C 233.380492 219.24844 230.998236 215.683143 227.99526 212.680167 
C 224.992284 209.67719 221.426987 207.294935 217.503409 205.669736 
C 213.579831 204.044537 209.374277 203.208 205.127427 203.208 
C 200.880577 203.208 196.675022 204.044537 192.751445 205.669736 
C 188.827867 207.294935 185.26257 209.67719 182.259593 212.680167 
C 179.256617 215.683143 176.874362 219.24844 175.249163 223.172018 
C 173.623964 227.095595 172.787427 231.30115 172.787427 235.548 
C 172.787427 239.79485 173.623964 244.000405 175.249163 247.923982 
C 176.874362 251.84756 179.256617 255.412857 182.259593 258.415833 
C 185.26257 261.41881 188.827867 263.801065 192.751445 265.426264 
C 196.675022 267.051463 200.880577 267.888 205.127427 267.888 
C 209.374277 267.888 213.579831 267.051463 217.503409 265.426264 
C 221.426987 263.801065 224.992284 261.41881 227.99526 258.415833 
C 230.998236 255.412857 233.380492 251.84756 235.005691 247.923982 
C 236.63089 244.000405 237.467427 239.79485 237.467427 235.548 
" clip-path="url(#p7a90c41d98)" style="fill: none; stroke: #b0b0b0; stroke-width: 0.8; stroke-linecap: square"/>
     </g>
     <g id="text_6">
      <!-- 0.5 -->
      <g style="fill: #808080" transform="translate(235.005691 221.508268) scale(0.08 -0.08)">
       <defs>
        <path id="DejaVuSans-30" d="M 2034 4250 
Q 1547 4250 1301 3770 
Q 1056 3291 1056 2328 
Q 1056 1369 1301 889 
Q 1547 409 2034 409 
Q 2525 409 2770 889 
Q 3016 1369 3016 2328 
Q 3016 3291 2770 3770 
Q 2525 4250 2034 4250 
z
M 2034 4750 
Q 2819 4750 3233 4129 
Q 3647 3509 3647 2328 
Q 3647 1150 3233 529 
Q 2819 -91 2034 -91 
Q 1250 -91 836 529 
Q 422 1150 422 2328 
Q 422 3509 836 4129 
Q 1250 4750 2034 4750 
z
" transform="scale(0.015625)"/>
        <path id="DejaVuSans-2e" d="M 684 794 
L 1344 794 
L 1344 0 
L 684 0 
L 684 794 
z
" transform="scale(0.015625)"/>
        <path id="DejaVuSans-35" d="M 691 4666 
L 3169 4666 
L 3169 4134 
L 1269 4134 
L 1269 2991 
Q 1406 3038 1543 3061 
Q 1681 3084 1819 3084 
Q 2600 3084 3056 2656 
Q 3513 2228 3513 1497 
Q 3513 744 3044 326 
Q 2575 -91 1722 -91 
Q 1428 -91 1123 -41 
Q 819 9 494 109 
L 494 744 
Q 775 591 1075 516 
Q 1375 441 1709 441 
Q 2250 441 2565 725 
Q 2881 1009 2881 1497 
Q 2881 1984 2565 2268 
Q 2250 2553 1709 2553 
Q 1456 2553 1204 2497 
Q 953 2441 691 2322 
L 691 4666 
z
" transform="scale(0.015625)"/>
       </defs>
       <use xlink:href="#DejaVuSans-30"/>
       <use xlink:href="#DejaVuSans-2e" x="63.623047"/>
       <use xlink:href="#DejaVuSans-35" x="95.410156"/>
      </g>
     </g>
    </g>
    <g id="ytick_2">
     <g id="line2d_7">
      <path d="M 269.807427 235.548 
C 269.807427 227.0543 268.134353 218.643191 264.883955 210.796036 
C 261.633557 202.94888 256.869046 195.818286 250.863093 189.812333 
C 244.857141 183.806381 237.726547 179.04187 229.879391 175.791472 
C 222.032236 172.541074 213.621127 170.868 205.127427 170.868 
C 196.633727 170.868 188.222618 172.541074 180.375462 175.791472 
C 172.528307 179.04187 165.397713 183.806381 159.39176 189.812333 
C 153.385807 195.818286 148.621297 202.94888 145.370899 210.796036 
C 142.1205 218.643191 140.447427 227.0543 140.447427 235.548 
C 140.447427 244.0417 142.1205 252.452809 145.370899 260.299964 
C 148.621297 268.14712 153.385807 275.277714 159.39176 281.283667 
C 165.397713 287.289619 172.528307 292.05413 180.375462 295.304528 
C 188.222618 298.554926 196.633727 300.228 205.127427 300.228 
C 213.621127 300.228 222.032236 298.554926 229.879391 295.304528 
C 237.726547 292.05413 244.857141 287.289619 250.863093 281.283667 
C 256.869046 275.277714 261.633557 268.14712 264.883955 260.299964 
C 268.134353 252.452809 269.807427 244.0417 269.807427 235.548 
" clip-path="url(#p7a90c41d98)" style="fill: none; stroke: #b0b0b0; stroke-width: 0.8; stroke-linecap: square"/>
     </g>
     <g id="text_7">
      <!-- 0.6 -->
      <g style="fill: #808080" transform="translate(264.883955 209.132286) scale(0.08 -0.08)">
       <defs>
        <path id="DejaVuSans-36" d="M 2113 2584 
Q 1688 2584 1439 2293 
Q 1191 2003 1191 1497 
Q 1191 994 1439 701 
Q 1688 409 2113 409 
Q 2538 409 2786 701 
Q 3034 994 3034 1497 
Q 3034 2003 2786 2293 
Q 2538 2584 2113 2584 
z
M 3366 4563 
L 3366 3988 
Q 3128 4100 2886 4159 
Q 2644 4219 2406 4219 
Q 1781 4219 1451 3797 
Q 1122 3375 1075 2522 
Q 1259 2794 1537 2939 
Q 1816 3084 2150 3084 
Q 2853 3084 3261 2657 
Q 3669 2231 3669 1497 
Q 3669 778 3244 343 
Q 2819 -91 2113 -91 
Q 1303 -91 875 529 
Q 447 1150 447 2328 
Q 447 3434 972 4092 
Q 1497 4750 2381 4750 
Q 2619 4750 2861 4703 
Q 3103 4656 3366 4563 
z
" transform="scale(0.015625)"/>
       </defs>
       <use xlink:href="#DejaVuSans-30"/>
       <use xlink:href="#DejaVuSans-2e" x="63.623047"/>
       <use xlink:href="#DejaVuSans-36" x="95.410156"/>
      </g>
     </g>
    </g>
    <g id="ytick_3">
     <g id="line2d_8">
      <path d="M 302.147427 235.548 
C 302.147427 222.80745 299.637816 210.190786 294.762219 198.420053 
C 289.886622 186.64932 282.739856 175.953429 273.730927 166.9445 
C 264.721998 157.935571 254.026106 150.788805 242.255373 145.913208 
C 230.48464 141.03761 217.867976 138.528 205.127427 138.528 
C 192.386877 138.528 179.770213 141.03761 167.99948 145.913208 
C 156.228747 150.788805 145.532856 157.935571 136.523927 166.9445 
C 127.514998 175.953429 120.368232 186.64932 115.492635 198.420053 
C 110.617037 210.190786 108.107427 222.80745 108.107427 235.548 
C 108.107427 248.28855 110.617037 260.905214 115.492635 272.675947 
C 120.368232 284.44668 127.514998 295.142571 136.523927 304.1515 
C 145.532856 313.160429 156.228747 320.307195 167.99948 325.182792 
C 179.770213 330.05839 192.386877 332.568 205.127427 332.568 
C 217.867976 332.568 230.48464 330.05839 242.255373 325.182792 
C 254.026106 320.307195 264.721998 313.160429 273.730927 304.1515 
C 282.739856 295.142571 289.886622 284.44668 294.762219 272.675947 
C 299.637816 260.905214 302.147427 248.28855 302.147427 235.548 
" clip-path="url(#p7a90c41d98)" style="fill: none; stroke: #b0b0b0; stroke-width: 0.8; stroke-linecap: square"/>
     </g>
     <g id="text_8">
      <!-- 0.7 -->
      <g style="fill: #808080" transform="translate(294.762219 196.756303) scale(0.08 -0.08)">
       <defs>
        <path id="DejaVuSans-37" d="M 525 4666 
L 3525 4666 
L 3525 4397 
L 1831 0 
L 1172 0 
L 2766 4134 
L 525 4134 
L 525 4666 
z
" transform="scale(0.015625)"/>
       </defs>
       <use xlink:href="#DejaVuSans-30"/>
       <use xlink:href="#DejaVuSans-2e" x="63.623047"/>
       <use xlink:href="#DejaVuSans-37" x="95.410156"/>
      </g>
     </g>
    </g>
    <g id="ytick_4">
     <g id="line2d_9">
      <path d="M 334.487427 235.548 
C 334.487427 218.5606 331.141279 201.738382 324.640483 186.044071 
C 318.139687 170.34976 308.610665 156.088572 296.59876 144.076667 
C 284.586855 132.064761 270.325666 122.53574 254.631356 116.034944 
C 238.937045 109.534147 222.114826 106.188 205.127427 106.188 
C 188.140027 106.188 171.317809 109.534147 155.623498 116.034944 
C 139.929187 122.53574 125.667999 132.064761 113.656094 144.076667 
C 101.644188 156.088572 92.115167 170.34976 85.61437 186.044071 
C 79.113574 201.738382 75.767427 218.5606 75.767427 235.548 
C 75.767427 252.5354 79.113574 269.357618 85.61437 285.051929 
C 92.115167 300.74624 101.644188 315.007428 113.656094 327.019333 
C 125.667999 339.031239 139.929187 348.56026 155.623498 355.061056 
C 171.317809 361.561853 188.140027 364.908 205.127427 364.908 
C 222.114826 364.908 238.937045 361.561853 254.631356 355.061056 
C 270.325666 348.56026 284.586855 339.031239 296.59876 327.019333 
C 308.610665 315.007428 318.139687 300.74624 324.640483 285.051929 
C 331.141279 269.357618 334.487427 252.5354 334.487427 235.548 
" clip-path="url(#p7a90c41d98)" style="fill: none; stroke: #b0b0b0; stroke-width: 0.8; stroke-linecap: square"/>
     </g>
     <g id="text_9">
      <!-- 0.8 -->
      <g style="fill: #808080" transform="translate(324.640483 184.380321) scale(0.08 -0.08)">
       <defs>
        <path id="DejaVuSans-38" d="M 2034 2216 
Q 1584 2216 1326 1975 
Q 1069 1734 1069 1313 
Q 1069 891 1326 650 
Q 1584 409 2034 409 
Q 2484 409 2743 651 
Q 3003 894 3003 1313 
Q 3003 1734 2745 1975 
Q 2488 2216 2034 2216 
z
M 1403 2484 
Q 997 2584 770 2862 
Q 544 3141 544 3541 
Q 544 4100 942 4425 
Q 1341 4750 2034 4750 
Q 2731 4750 3128 4425 
Q 3525 4100 3525 3541 
Q 3525 3141 3298 2862 
Q 3072 2584 2669 2484 
Q 3125 2378 3379 2068 
Q 3634 1759 3634 1313 
Q 3634 634 3220 271 
Q 2806 -91 2034 -91 
Q 1263 -91 848 271 
Q 434 634 434 1313 
Q 434 1759 690 2068 
Q 947 2378 1403 2484 
z
M 1172 3481 
Q 1172 3119 1398 2916 
Q 1625 2713 2034 2713 
Q 2441 2713 2670 2916 
Q 2900 3119 2900 3481 
Q 2900 3844 2670 4047 
Q 2441 4250 2034 4250 
Q 1625 4250 1398 4047 
Q 1172 3844 1172 3481 
z
" transform="scale(0.015625)"/>
       </defs>
       <use xlink:href="#DejaVuSans-30"/>
       <use xlink:href="#DejaVuSans-2e" x="63.623047"/>
       <use xlink:href="#DejaVuSans-38" x="95.410156"/>
      </g>
     </g>
    </g>
    <g id="ytick_5">
     <g id="line2d_10">
      <path d="M 366.827427 235.548 
C 366.827427 214.313751 362.644743 193.285977 354.518747 173.668089 
C 346.392752 154.050201 334.481475 136.223715 319.466593 121.208833 
C 304.451712 106.193952 286.625226 94.282675 267.007338 86.15668 
C 247.389449 78.030684 226.361676 73.848 205.127427 73.848 
C 183.893177 73.848 162.865404 78.030684 143.247516 86.15668 
C 123.629627 94.282675 105.803142 106.193952 90.78826 121.208833 
C 75.773378 136.223715 63.862102 154.050201 55.736106 173.668089 
C 47.610111 193.285977 43.427427 214.313751 43.427427 235.548 
C 43.427427 256.782249 47.610111 277.810023 55.736106 297.427911 
C 63.862102 317.045799 75.773378 334.872285 90.78826 349.887167 
C 105.803142 364.902048 123.629627 376.813325 143.247516 384.93932 
C 162.865404 393.065316 183.893177 397.248 205.127427 397.248 
C 226.361676 397.248 247.389449 393.065316 267.007338 384.93932 
C 286.625226 376.813325 304.451712 364.902048 319.466593 349.887167 
C 334.481475 334.872285 346.392752 317.045799 354.518747 297.427911 
C 362.644743 277.810023 366.827427 256.782249 366.827427 235.548 
" clip-path="url(#p7a90c41d98)" style="fill: none; stroke: #b0b0b0; stroke-width: 0.8; stroke-linecap: square"/>
     </g>
     <g id="text_10">
      <!-- 0.9 -->
      <g style="fill: #808080" transform="translate(354.518747 172.004339) scale(0.08 -0.08)">
       <defs>
        <path id="DejaVuSans-39" d="M 703 97 
L 703 672 
Q 941 559 1184 500 
Q 1428 441 1663 441 
Q 2288 441 2617 861 
Q 2947 1281 2994 2138 
Q 2813 1869 2534 1725 
Q 2256 1581 1919 1581 
Q 1219 1581 811 2004 
Q 403 2428 403 3163 
Q 403 3881 828 4315 
Q 1253 4750 1959 4750 
Q 2769 4750 3195 4129 
Q 3622 3509 3622 2328 
Q 3622 1225 3098 567 
Q 2575 -91 1691 -91 
Q 1453 -91 1209 -44 
Q 966 3 703 97 
z
M 1959 2075 
Q 2384 2075 2632 2365 
Q 2881 2656 2881 3163 
Q 2881 3666 2632 3958 
Q 2384 4250 1959 4250 
Q 1534 4250 1286 3958 
Q 1038 3666 1038 3163 
Q 1038 2656 1286 2365 
Q 1534 2075 1959 2075 
z
" transform="scale(0.015625)"/>
       </defs>
       <use xlink:href="#DejaVuSans-30"/>
       <use xlink:href="#DejaVuSans-2e" x="63.623047"/>
       <use xlink:href="#DejaVuSans-39" x="95.410156"/>
      </g>
     </g>
    </g>
    <g id="ytick_6">
     <g id="line2d_11">
      <path d="M 399.167427 235.548 
C 399.167427 210.066901 394.148206 184.833573 384.397011 161.292107 
C 374.645817 137.750641 360.352285 116.358858 342.334427 98.341 
C 324.316568 80.323142 302.924786 66.02961 279.38332 56.278416 
C 255.841854 46.527221 230.608526 41.508 205.127427 41.508 
C 179.646327 41.508 154.413 46.527221 130.871534 56.278416 
C 107.330067 66.02961 85.938285 80.323142 67.920427 98.341 
C 49.902569 116.358858 35.609037 137.750641 25.857842 161.292107 
C 16.106648 184.833573 11.087427 210.066901 11.087427 235.548 
C 11.087427 261.029099 16.106648 286.262427 25.857842 309.803893 
C 35.609037 333.345359 49.902569 354.737142 67.920427 372.755 
C 85.938285 390.772858 107.330067 405.06639 130.871534 414.817584 
C 154.413 424.568779 179.646327 429.588 205.127427 429.588 
C 230.608526 429.588 255.841854 424.568779 279.38332 414.817584 
C 302.924786 405.06639 324.316568 390.772858 342.334427 372.755 
C 360.352285 354.737142 374.645817 333.345359 384.397011 309.803893 
C 394.148206 286.262427 399.167427 261.029099 399.167427 235.548 
" clip-path="url(#p7a90c41d98)" style="fill: none; stroke: #b0b0b0; stroke-width: 0.8; stroke-linecap: square"/>
     </g>
     <g id="text_11">
      <!-- 1.0 -->
      <g style="fill: #808080" transform="translate(384.397011 159.628357) scale(0.08 -0.08)">
       <defs>
        <path id="DejaVuSans-31" d="M 794 531 
L 1825 531 
L 1825 4091 
L 703 3866 
L 703 4441 
L 1819 4666 
L 2450 4666 
L 2450 531 
L 3481 531 
L 3481 0 
L 794 0 
L 794 531 
z
" transform="scale(0.015625)"/>
       </defs>
       <use xlink:href="#DejaVuSans-31"/>
       <use xlink:href="#DejaVuSans-2e" x="63.623047"/>
       <use xlink:href="#DejaVuSans-30" x="95.410156"/>
      </g>
     </g>
    </g>
   </g>
   <g id="line2d_12">
    <path d="M 386.797736 235.548 
L 259.104136 69.424769 
L 76.499338 142.094223 
L 143.840251 280.07574 
L 254.212639 386.61675 
L 386.797736 235.548 
" clip-path="url(#p7a90c41d98)" style="fill: none; stroke: #e41a1c; stroke-width: 2.5; stroke-linecap: square"/>
    <defs>
     <path id="m2a11ccc06e" d="M 0 3 
C 0.795609 3 1.55874 2.683901 2.12132 2.12132 
C 2.683901 1.55874 3 0.795609 3 0 
C 3 -0.795609 2.683901 -1.55874 2.12132 -2.12132 
C 1.55874 -2.683901 0.795609 -3 0 -3 
C -0.795609 -3 -1.55874 -2.683901 -2.12132 -2.12132 
C -2.683901 -1.55874 -3 -0.795609 -3 0 
C -3 0.795609 -2.683901 1.55874 -2.12132 2.12132 
C -1.55874 2.683901 -0.795609 3 0 3 
z
" style="stroke: #e41a1c"/>
    </defs>
    <g clip-path="url(#p7a90c41d98)">
     <use xlink:href="#m2a11ccc06e" x="386.797736" y="235.548" style="fill: #e41a1c; stroke: #e41a1c"/>
     <use xlink:href="#m2a11ccc06e" x="259.104136" y="69.424769" style="fill: #e41a1c; stroke: #e41a1c"/>
     <use xlink:href="#m2a11ccc06e" x="76.499338" y="142.094223" style="fill: #e41a1c; stroke: #e41a1c"/>
     <use xlink:href="#m2a11ccc06e" x="143.840251" y="280.07574" style="fill: #e41a1c; stroke: #e41a1c"/>
     <use xlink:href="#m2a11ccc06e" x="254.212639" y="386.61675" style="fill: #e41a1c; stroke: #e41a1c"/>
     <use xlink:href="#m2a11ccc06e" x="386.797736" y="235.548" style="fill: #e41a1c; stroke: #e41a1c"/>
    </g>
   </g>
   <g id="line2d_13">
    <path d="M 387.065332 235.548 
L 257.361276 74.788742 
L 88.304294 150.671025 
L 127.423763 292.003016 
L 253.198363 383.495129 
L 387.065332 235.548 
" clip-path="url(#p7a90c41d98)" style="fill: none; stroke: #377eb8; stroke-width: 2.5; stroke-linecap: square"/>
    <defs>
     <path id="ma793738721" d="M 0 3 
C 0.795609 3 1.55874 2.683901 2.12132 2.12132 
C 2.683901 1.55874 3 0.795609 3 0 
C 3 -0.795609 2.683901 -1.55874 2.12132 -2.12132 
C 1.55874 -2.683901 0.795609 -3 0 -3 
C -0.795609 -3 -1.55874 -2.683901 -2.12132 -2.12132 
C -2.683901 -1.55874 -3 -0.795609 -3 0 
C -3 0.795609 -2.683901 1.55874 -2.12132 2.12132 
C -1.55874 2.683901 -0.795609 3 0 3 
z
" style="stroke: #377eb8"/>
    </defs>
    <g clip-path="url(#p7a90c41d98)">
     <use xlink:href="#ma793738721" x="387.065332" y="235.548" style="fill: #377eb8; stroke: #377eb8"/>
     <use xlink:href="#ma793738721" x="257.361276" y="74.788742" style="fill: #377eb8; stroke: #377eb8"/>
     <use xlink:href="#ma793738721" x="88.304294" y="150.671025" style="fill: #377eb8; stroke: #377eb8"/>
     <use xlink:href="#ma793738721" x="127.423763" y="292.003016" style="fill: #377eb8; stroke: #377eb8"/>
     <use xlink:href="#ma793738721" x="253.198363" y="383.495129" style="fill: #377eb8; stroke: #377eb8"/>
     <use xlink:href="#ma793738721" x="387.065332" y="235.548" style="fill: #377eb8; stroke: #377eb8"/>
    </g>
   </g>
   <g id="line2d_14">
    <path d="M 387.394265 235.548 
L 258.878356 70.119651 
L 76.897352 142.383397 
L 151.162496 274.755817 
L 254.559817 387.685254 
L 387.394265 235.548 
" clip-path="url(#p7a90c41d98)" style="fill: none; stroke: #4daf4a; stroke-width: 2.5; stroke-linecap: square"/>
    <defs>
     <path id="mca8b0740ef" d="M 0 3 
C 0.795609 3 1.55874 2.683901 2.12132 2.12132 
C 2.683901 1.55874 3 0.795609 3 0 
C 3 -0.795609 2.683901 -1.55874 2.12132 -2.12132 
C 1.55874 -2.683901 0.795609 -3 0 -3 
C -0.795609 -3 -1.55874 -2.683901 -2.12132 -2.12132 
C -2.683901 -1.55874 -3 -0.795609 -3 0 
C -3 0.795609 -2.683901 1.55874 -2.12132 2.12132 
C -1.55874 2.683901 -0.795609 3 0 3 
z
" style="stroke: #4daf4a"/>
    </defs>
    <g clip-path="url(#p7a90c41d98)">
     <use xlink:href="#mca8b0740ef" x="387.394265" y="235.548" style="fill: #4daf4a; stroke: #4daf4a"/>
     <use xlink:href="#mca8b0740ef" x="258.878356" y="70.119651" style="fill: #4daf4a; stroke: #4daf4a"/>
     <use xlink:href="#mca8b0740ef" x="76.897352" y="142.383397" style="fill: #4daf4a; stroke: #4daf4a"/>
     <use xlink:href="#mca8b0740ef" x="151.162496" y="274.755817" style="fill: #4daf4a; stroke: #4daf4a"/>
     <use xlink:href="#mca8b0740ef" x="254.559817" y="387.685254" style="fill: #4daf4a; stroke: #4daf4a"/>
     <use xlink:href="#mca8b0740ef" x="387.394265" y="235.548" style="fill: #4daf4a; stroke: #4daf4a"/>
    </g>
   </g>
   <g id="line2d_15">
    <path d="M 387.701962 235.548 
L 256.486535 77.480917 
L 68.998689 136.644683 
L 152.961081 273.449069 
L 251.416028 378.009665 
L 387.701962 235.548 
" clip-path="url(#p7a90c41d98)" style="fill: none; stroke: #984ea3; stroke-width: 2.5; stroke-linecap: square"/>
    <defs>
     <path id="mb0b7d5a97c" d="M 0 3 
C 0.795609 3 1.55874 2.683901 2.12132 2.12132 
C 2.683901 1.55874 3 0.795609 3 0 
C 3 -0.795609 2.683901 -1.55874 2.12132 -2.12132 
C 1.55874 -2.683901 0.795609 -3 0 -3 
C -0.795609 -3 -1.55874 -2.683901 -2.12132 -2.12132 
C -2.683901 -1.55874 -3 -0.795609 -3 0 
C -3 0.795609 -2.683901 1.55874 -2.12132 2.12132 
C -1.55874 2.683901 -0.795609 3 0 3 
z
" style="stroke: #984ea3"/>
    </defs>
    <g clip-path="url(#p7a90c41d98)">
     <use xlink:href="#mb0b7d5a97c" x="387.701962" y="235.548" style="fill: #984ea3; stroke: #984ea3"/>
     <use xlink:href="#mb0b7d5a97c" x="256.486535" y="77.480917" style="fill: #984ea3; stroke: #984ea3"/>
     <use xlink:href="#mb0b7d5a97c" x="68.998689" y="136.644683" style="fill: #984ea3; stroke: #984ea3"/>
     <use xlink:href="#mb0b7d5a97c" x="152.961081" y="273.449069" style="fill: #984ea3; stroke: #984ea3"/>
     <use xlink:href="#mb0b7d5a97c" x="251.416028" y="378.009665" style="fill: #984ea3; stroke: #984ea3"/>
     <use xlink:href="#mb0b7d5a97c" x="387.701962" y="235.548" style="fill: #984ea3; stroke: #984ea3"/>
    </g>
   </g>
   <g id="line2d_16">
    <path d="M 383.961913 235.548 
L 254.35235 84.049264 
L 68.526044 136.301286 
L 154.100474 272.621252 
L 253.254627 383.668291 
L 383.961913 235.548 
" clip-path="url(#p7a90c41d98)" style="fill: none; stroke: #ff7f00; stroke-width: 2.5; stroke-linecap: square"/>
    <defs>
     <path id="m4a1c074db8" d="M 0 3 
C 0.795609 3 1.55874 2.683901 2.12132 2.12132 
C 2.683901 1.55874 3 0.795609 3 0 
C 3 -0.795609 2.683901 -1.55874 2.12132 -2.12132 
C 1.55874 -2.683901 0.795609 -3 0 -3 
C -0.795609 -3 -1.55874 -2.683901 -2.12132 -2.12132 
C -2.683901 -1.55874 -3 -0.795609 -3 0 
C -3 0.795609 -2.683901 1.55874 -2.12132 2.12132 
C -1.55874 2.683901 -0.795609 3 0 3 
z
" style="stroke: #ff7f00"/>
    </defs>
    <g clip-path="url(#p7a90c41d98)">
     <use xlink:href="#m4a1c074db8" x="383.961913" y="235.548" style="fill: #ff7f00; stroke: #ff7f00"/>
     <use xlink:href="#m4a1c074db8" x="254.35235" y="84.049264" style="fill: #ff7f00; stroke: #ff7f00"/>
     <use xlink:href="#m4a1c074db8" x="68.526044" y="136.301286" style="fill: #ff7f00; stroke: #ff7f00"/>
     <use xlink:href="#m4a1c074db8" x="154.100474" y="272.621252" style="fill: #ff7f00; stroke: #ff7f00"/>
     <use xlink:href="#m4a1c074db8" x="253.254627" y="383.668291" style="fill: #ff7f00; stroke: #ff7f00"/>
     <use xlink:href="#m4a1c074db8" x="383.961913" y="235.548" style="fill: #ff7f00; stroke: #ff7f00"/>
    </g>
   </g>
   <g id="patch_8">
    <path d="M 399.167427 235.548 
C 399.167427 210.066901 394.148206 184.833573 384.397011 161.292107 
C 374.645817 137.750641 360.352285 116.358858 342.334427 98.341 
C 324.316568 80.323142 302.924786 66.02961 279.38332 56.278416 
C 255.841854 46.527221 230.608526 41.508 205.127427 41.508 
C 179.646327 41.508 154.413 46.527221 130.871534 56.278416 
C 107.330067 66.02961 85.938285 80.323142 67.920427 98.341 
C 49.902569 116.358858 35.609037 137.750641 25.857842 161.292107 
C 16.106648 184.833573 11.087427 210.066901 11.087427 235.548 
C 11.087427 261.029099 16.106648 286.262427 25.857842 309.803893 
C 35.609037 333.345359 49.902569 354.737142 67.920427 372.755 
C 85.938285 390.772858 107.330067 405.06639 130.871534 414.817584 
C 154.413 424.568779 179.646327 429.588 205.127427 429.588 
C 230.608526 429.588 255.841854 424.568779 279.38332 414.817584 
C 302.924786 405.06639 324.316568 390.772858 342.334427 372.755 
C 360.352285 354.737142 374.645817 333.345359 384.397011 309.803893 
C 394.148206 286.262427 399.167427 261.029099 399.167427 235.548 
" style="fill: none; stroke: #000000; stroke-width: 0.8; stroke-linejoin: miter; stroke-linecap: square"/>
   </g>
   <g id="text_12">
    <!-- Exp-3 radar: cross-modal coverage (Magnified) -->
    <g transform="translate(52.256567 21.508) scale(0.13 -0.13)">
     <defs>
      <path id="DejaVuSans-45" d="M 628 4666 
L 3578 4666 
L 3578 4134 
L 1259 4134 
L 1259 2753 
L 3481 2753 
L 3481 2222 
L 1259 2222 
L 1259 531 
L 3634 531 
L 3634 0 
L 628 0 
L 628 4666 
z
" transform="scale(0.015625)"/>
      <path id="DejaVuSans-78" d="M 3513 3500 
L 2247 1797 
L 3578 0 
L 2900 0 
L 1881 1375 
L 863 0 
L 184 0 
L 1544 1831 
L 300 3500 
L 978 3500 
L 1906 2253 
L 2834 3500 
L 3513 3500 
z
" transform="scale(0.015625)"/>
      <path id="DejaVuSans-70" d="M 1159 525 
L 1159 -1331 
L 581 -1331 
L 581 3500 
L 1159 3500 
L 1159 2969 
Q 1341 3281 1617 3432 
Q 1894 3584 2278 3584 
Q 2916 3584 3314 3078 
Q 3713 2572 3713 1747 
Q 3713 922 3314 415 
Q 2916 -91 2278 -91 
Q 1894 -91 1617 61 
Q 1341 213 1159 525 
z
M 3116 1747 
Q 3116 2381 2855 2742 
Q 2594 3103 2138 3103 
Q 1681 3103 1420 2742 
Q 1159 2381 1159 1747 
Q 1159 1113 1420 752 
Q 1681 391 2138 391 
Q 2594 391 2855 752 
Q 3116 1113 3116 1747 
z
" transform="scale(0.015625)"/>
      <path id="DejaVuSans-2d" d="M 313 2009 
L 1997 2009 
L 1997 1497 
L 313 1497 
L 313 2009 
z
" transform="scale(0.015625)"/>
      <path id="DejaVuSans-33" d="M 2597 2516 
Q 3050 2419 3304 2112 
Q 3559 1806 3559 1356 
Q 3559 666 3084 287 
Q 2609 -91 1734 -91 
Q 1441 -91 1130 -33 
Q 819 25 488 141 
L 488 750 
Q 750 597 1062 519 
Q 1375 441 1716 441 
Q 2309 441 2620 675 
Q 2931 909 2931 1356 
Q 2931 1769 2642 2001 
Q 2353 2234 1838 2234 
L 1294 2234 
L 1294 2753 
L 1863 2753 
Q 2328 2753 2575 2939 
Q 2822 3125 2822 3475 
Q 2822 3834 2567 4026 
Q 2313 4219 1838 4219 
Q 1578 4219 1281 4162 
Q 984 4106 628 3988 
L 628 4550 
Q 988 4650 1302 4700 
Q 1616 4750 1894 4750 
Q 2613 4750 3031 4423 
Q 3450 4097 3450 3541 
Q 3450 3153 3228 2886 
Q 3006 2619 2597 2516 
z
" transform="scale(0.015625)"/>
      <path id="DejaVuSans-20" transform="scale(0.015625)"/>
      <path id="DejaVuSans-72" d="M 2631 2963 
Q 2534 3019 2420 3045 
Q 2306 3072 2169 3072 
Q 1681 3072 1420 2755 
Q 1159 2438 1159 1844 
L 1159 0 
L 581 0 
L 581 3500 
L 1159 3500 
L 1159 2956 
Q 1341 3275 1631 3429 
Q 1922 3584 2338 3584 
Q 2397 3584 2469 3576 
Q 2541 3569 2628 3553 
L 2631 2963 
z
" transform="scale(0.015625)"/>
      <path id="DejaVuSans-61" d="M 2194 1759 
Q 1497 1759 1228 1600 
Q 959 1441 959 1056 
Q 959 750 1161 570 
Q 1363 391 1709 391 
Q 2188 391 2477 730 
Q 2766 1069 2766 1631 
L 2766 1759 
L 2194 1759 
z
M 3341 1997 
L 3341 0 
L 2766 0 
L 2766 531 
Q 2569 213 2275 61 
Q 1981 -91 1556 -91 
Q 1019 -91 701 211 
Q 384 513 384 1019 
Q 384 1609 779 1909 
Q 1175 2209 1959 2209 
L 2766 2209 
L 2766 2266 
Q 2766 2663 2505 2880 
Q 2244 3097 1772 3097 
Q 1472 3097 1187 3025 
Q 903 2953 641 2809 
L 641 3341 
Q 956 3463 1253 3523 
Q 1550 3584 1831 3584 
Q 2591 3584 2966 3190 
Q 3341 2797 3341 1997 
z
" transform="scale(0.015625)"/>
      <path id="DejaVuSans-64" d="M 2906 2969 
L 2906 4863 
L 3481 4863 
L 3481 0 
L 2906 0 
L 2906 525 
Q 2725 213 2448 61 
Q 2172 -91 1784 -91 
Q 1150 -91 751 415 
Q 353 922 353 1747 
Q 353 2572 751 3078 
Q 1150 3584 1784 3584 
Q 2172 3584 2448 3432 
Q 2725 3281 2906 2969 
z
M 947 1747 
Q 947 1113 1208 752 
Q 1469 391 1925 391 
Q 2381 391 2643 752 
Q 2906 1113 2906 1747 
Q 2906 2381 2643 2742 
Q 2381 3103 1925 3103 
Q 1469 3103 1208 2742 
Q 947 2381 947 1747 
z
" transform="scale(0.015625)"/>
      <path id="DejaVuSans-3a" d="M 750 794 
L 1409 794 
L 1409 0 
L 750 0 
L 750 794 
z
M 750 3309 
L 1409 3309 
L 1409 2516 
L 750 2516 
L 750 3309 
z
" transform="scale(0.015625)"/>
      <path id="DejaVuSans-63" d="M 3122 3366 
L 3122 2828 
Q 2878 2963 2633 3030 
Q 2388 3097 2138 3097 
Q 1578 3097 1268 2742 
Q 959 2388 959 1747 
Q 959 1106 1268 751 
Q 1578 397 2138 397 
Q 2388 397 2633 464 
Q 2878 531 3122 666 
L 3122 134 
Q 2881 22 2623 -34 
Q 2366 -91 2075 -91 
Q 1284 -91 818 406 
Q 353 903 353 1747 
Q 353 2603 823 3093 
Q 1294 3584 2113 3584 
Q 2378 3584 2631 3529 
Q 2884 3475 3122 3366 
z
" transform="scale(0.015625)"/>
      <path id="DejaVuSans-6f" d="M 1959 3097 
Q 1497 3097 1228 2736 
Q 959 2375 959 1747 
Q 959 1119 1226 758 
Q 1494 397 1959 397 
Q 2419 397 2687 759 
Q 2956 1122 2956 1747 
Q 2956 2369 2687 2733 
Q 2419 3097 1959 3097 
z
M 1959 3584 
Q 2709 3584 3137 3096 
Q 3566 2609 3566 1747 
Q 3566 888 3137 398 
Q 2709 -91 1959 -91 
Q 1206 -91 779 398 
Q 353 888 353 1747 
Q 353 2609 779 3096 
Q 1206 3584 1959 3584 
z
" transform="scale(0.015625)"/>
      <path id="DejaVuSans-73" d="M 2834 3397 
L 2834 2853 
Q 2591 2978 2328 3040 
Q 2066 3103 1784 3103 
Q 1356 3103 1142 2972 
Q 928 2841 928 2578 
Q 928 2378 1081 2264 
Q 1234 2150 1697 2047 
L 1894 2003 
Q 2506 1872 2764 1633 
Q 3022 1394 3022 966 
Q 3022 478 2636 193 
Q 2250 -91 1575 -91 
Q 1294 -91 989 -36 
Q 684 19 347 128 
L 347 722 
Q 666 556 975 473 
Q 1284 391 1588 391 
Q 1994 391 2212 530 
Q 2431 669 2431 922 
Q 2431 1156 2273 1281 
Q 2116 1406 1581 1522 
L 1381 1569 
Q 847 1681 609 1914 
Q 372 2147 372 2553 
Q 372 3047 722 3315 
Q 1072 3584 1716 3584 
Q 2034 3584 2315 3537 
Q 2597 3491 2834 3397 
z
" transform="scale(0.015625)"/>
      <path id="DejaVuSans-6d" d="M 3328 2828 
Q 3544 3216 3844 3400 
Q 4144 3584 4550 3584 
Q 5097 3584 5394 3201 
Q 5691 2819 5691 2113 
L 5691 0 
L 5113 0 
L 5113 2094 
Q 5113 2597 4934 2840 
Q 4756 3084 4391 3084 
Q 3944 3084 3684 2787 
Q 3425 2491 3425 1978 
L 3425 0 
L 2847 0 
L 2847 2094 
Q 2847 2600 2669 2842 
Q 2491 3084 2119 3084 
Q 1678 3084 1418 2786 
Q 1159 2488 1159 1978 
L 1159 0 
L 581 0 
L 581 3500 
L 1159 3500 
L 1159 2956 
Q 1356 3278 1631 3431 
Q 1906 3584 2284 3584 
Q 2666 3584 2933 3390 
Q 3200 3197 3328 2828 
z
" transform="scale(0.015625)"/>
      <path id="DejaVuSans-6c" d="M 603 4863 
L 1178 4863 
L 1178 0 
L 603 0 
L 603 4863 
z
" transform="scale(0.015625)"/>
      <path id="DejaVuSans-76" d="M 191 3500 
L 800 3500 
L 1894 563 
L 2988 3500 
L 3597 3500 
L 2284 0 
L 1503 0 
L 191 3500 
z
" transform="scale(0.015625)"/>
      <path id="DejaVuSans-65" d="M 3597 1894 
L 3597 1613 
L 953 1613 
Q 991 1019 1311 708 
Q 1631 397 2203 397 
Q 2534 397 2845 478 
Q 3156 559 3463 722 
L 3463 178 
Q 3153 47 2828 -22 
Q 2503 -91 2169 -91 
Q 1331 -91 842 396 
Q 353 884 353 1716 
Q 353 2575 817 3079 
Q 1281 3584 2069 3584 
Q 2775 3584 3186 3129 
Q 3597 2675 3597 1894 
z
M 3022 2063 
Q 3016 2534 2758 2815 
Q 2500 3097 2075 3097 
Q 1594 3097 1305 2825 
Q 1016 2553 972 2059 
L 3022 2063 
z
" transform="scale(0.015625)"/>
      <path id="DejaVuSans-67" d="M 2906 1791 
Q 2906 2416 2648 2759 
Q 2391 3103 1925 3103 
Q 1463 3103 1205 2759 
Q 947 2416 947 1791 
Q 947 1169 1205 825 
Q 1463 481 1925 481 
Q 2391 481 2648 825 
Q 2906 1169 2906 1791 
z
M 3481 434 
Q 3481 -459 3084 -895 
Q 2688 -1331 1869 -1331 
Q 1566 -1331 1297 -1286 
Q 1028 -1241 775 -1147 
L 775 -588 
Q 1028 -725 1275 -790 
Q 1522 -856 1778 -856 
Q 2344 -856 2625 -561 
Q 2906 -266 2906 331 
L 2906 616 
Q 2728 306 2450 153 
Q 2172 0 1784 0 
Q 1141 0 747 490 
Q 353 981 353 1791 
Q 353 2603 747 3093 
Q 1141 3584 1784 3584 
Q 2172 3584 2450 3431 
Q 2728 3278 2906 2969 
L 2906 3500 
L 3481 3500 
L 3481 434 
z
" transform="scale(0.015625)"/>
      <path id="DejaVuSans-28" d="M 1984 4856 
Q 1566 4138 1362 3434 
Q 1159 2731 1159 2009 
Q 1159 1288 1364 580 
Q 1569 -128 1984 -844 
L 1484 -844 
Q 1016 -109 783 600 
Q 550 1309 550 2009 
Q 550 2706 781 3412 
Q 1013 4119 1484 4856 
L 1984 4856 
z
" transform="scale(0.015625)"/>
      <path id="DejaVuSans-4d" d="M 628 4666 
L 1569 4666 
L 2759 1491 
L 3956 4666 
L 4897 4666 
L 4897 0 
L 4281 0 
L 4281 4097 
L 3078 897 
L 2444 897 
L 1241 4097 
L 1241 0 
L 628 0 
L 628 4666 
z
" transform="scale(0.015625)"/>
      <path id="DejaVuSans-6e" d="M 3513 2113 
L 3513 0 
L 2938 0 
L 2938 2094 
Q 2938 2591 2744 2837 
Q 2550 3084 2163 3084 
Q 1697 3084 1428 2787 
Q 1159 2491 1159 1978 
L 1159 0 
L 581 0 
L 581 3500 
L 1159 3500 
L 1159 2956 
Q 1366 3272 1645 3428 
Q 1925 3584 2291 3584 
Q 2894 3584 3203 3211 
Q 3513 2838 3513 2113 
z
" transform="scale(0.015625)"/>
      <path id="DejaVuSans-69" d="M 603 3500 
L 1178 3500 
L 1178 0 
L 603 0 
L 603 3500 
z
M 603 4863 
L 1178 4863 
L 1178 4134 
L 603 4134 
L 603 4863 
z
" transform="scale(0.015625)"/>
      <path id="DejaVuSans-66" d="M 2375 4863 
L 2375 4384 
L 1825 4384 
Q 1516 4384 1395 4259 
Q 1275 4134 1275 3809 
L 1275 3500 
L 2222 3500 
L 2222 3053 
L 1275 3053 
L 1275 0 
L 697 0 
L 697 3053 
L 147 3053 
L 147 3500 
L 697 3500 
L 697 3744 
Q 697 4328 969 4595 
Q 1241 4863 1831 4863 
L 2375 4863 
z
" transform="scale(0.015625)"/>
      <path id="DejaVuSans-29" d="M 513 4856 
L 1013 4856 
Q 1481 4119 1714 3412 
Q 1947 2706 1947 2009 
Q 1947 1309 1714 600 
Q 1481 -109 1013 -844 
L 513 -844 
Q 928 -128 1133 580 
Q 1338 1288 1338 2009 
Q 1338 2731 1133 3434 
Q 928 4138 513 4856 
z
" transform="scale(0.015625)"/>
     </defs>
     <use xlink:href="#DejaVuSans-45"/>
     <use xlink:href="#DejaVuSans-78" x="63.183594"/>
     <use xlink:href="#DejaVuSans-70" x="122.363281"/>
     <use xlink:href="#DejaVuSans-2d" x="185.839844"/>
     <use xlink:href="#DejaVuSans-33" x="221.923828"/>
     <use xlink:href="#DejaVuSans-20" x="285.546875"/>
     <use xlink:href="#DejaVuSans-72" x="317.333984"/>
     <use xlink:href="#DejaVuSans-61" x="358.447266"/>
     <use xlink:href="#DejaVuSans-64" x="419.726562"/>
     <use xlink:href="#DejaVuSans-61" x="483.203125"/>
     <use xlink:href="#DejaVuSans-72" x="544.482422"/>
     <use xlink:href="#DejaVuSans-3a" x="583.845703"/>
     <use xlink:href="#DejaVuSans-20" x="617.537109"/>
     <use xlink:href="#DejaVuSans-63" x="649.324219"/>
     <use xlink:href="#DejaVuSans-72" x="704.304688"/>
     <use xlink:href="#DejaVuSans-6f" x="743.167969"/>
     <use xlink:href="#DejaVuSans-73" x="804.349609"/>
     <use xlink:href="#DejaVuSans-73" x="856.449219"/>
     <use xlink:href="#DejaVuSans-2d" x="908.548828"/>
     <use xlink:href="#DejaVuSans-6d" x="944.632812"/>
     <use xlink:href="#DejaVuSans-6f" x="1042.044922"/>
     <use xlink:href="#DejaVuSans-64" x="1103.226562"/>
     <use xlink:href="#DejaVuSans-61" x="1166.703125"/>
     <use xlink:href="#DejaVuSans-6c" x="1227.982422"/>
     <use xlink:href="#DejaVuSans-20" x="1255.765625"/>
     <use xlink:href="#DejaVuSans-63" x="1287.552734"/>
     <use xlink:href="#DejaVuSans-6f" x="1342.533203"/>
     <use xlink:href="#DejaVuSans-76" x="1403.714844"/>
     <use xlink:href="#DejaVuSans-65" x="1462.894531"/>
     <use xlink:href="#DejaVuSans-72" x="1524.417969"/>
     <use xlink:href="#DejaVuSans-61" x="1565.53125"/>
     <use xlink:href="#DejaVuSans-67" x="1626.810547"/>
     <use xlink:href="#DejaVuSans-65" x="1690.287109"/>
     <use xlink:href="#DejaVuSans-20" x="1751.810547"/>
     <use xlink:href="#DejaVuSans-28" x="1783.597656"/>
     <use xlink:href="#DejaVuSans-4d" x="1822.611328"/>
     <use xlink:href="#DejaVuSans-61" x="1908.890625"/>
     <use xlink:href="#DejaVuSans-67" x="1970.169922"/>
     <use xlink:href="#DejaVuSans-6e" x="2033.646484"/>
     <use xlink:href="#DejaVuSans-69" x="2097.025391"/>
     <use xlink:href="#DejaVuSans-66" x="2124.808594"/>
     <use xlink:href="#DejaVuSans-69" x="2160.013672"/>
     <use xlink:href="#DejaVuSans-65" x="2187.796875"/>
     <use xlink:href="#DejaVuSans-64" x="2249.320312"/>
     <use xlink:href="#DejaVuSans-29" x="2312.796875"/>
    </g>
   </g>
   <g id="legend_1">
    <g id="patch_9">
     <path d="M 456.521052 75.951562 
L 528.695427 75.951562 
Q 530.495427 75.951562 530.495427 74.151562 
L 530.495427 9 
Q 530.495427 7.2 528.695427 7.2 
L 456.521052 7.2 
Q 454.721052 7.2 454.721052 9 
L 454.721052 74.151562 
Q 454.721052 75.951562 456.521052 75.951562 
z
" style="fill: #ffffff; opacity: 0.8; stroke: #cccccc; stroke-linejoin: miter"/>
    </g>
    <g id="line2d_17">
     <path d="M 458.321052 14.488594 
L 467.321052 14.488594 
L 476.321052 14.488594 
" style="fill: none; stroke: #e41a1c; stroke-width: 2.5; stroke-linecap: square"/>
     <g>
      <use xlink:href="#m2a11ccc06e" x="467.321052" y="14.488594" style="fill: #e41a1c; stroke: #e41a1c"/>
     </g>
    </g>
    <g id="text_13">
     <!-- LightGBM -->
     <g transform="translate(483.521052 17.638594) scale(0.09 -0.09)">
      <defs>
       <path id="DejaVuSans-4c" d="M 628 4666 
L 1259 4666 
L 1259 531 
L 3531 531 
L 3531 0 
L 628 0 
L 628 4666 
z
" transform="scale(0.015625)"/>
       <path id="DejaVuSans-68" d="M 3513 2113 
L 3513 0 
L 2938 0 
L 2938 2094 
Q 2938 2591 2744 2837 
Q 2550 3084 2163 3084 
Q 1697 3084 1428 2787 
Q 1159 2491 1159 1978 
L 1159 0 
L 581 0 
L 581 4863 
L 1159 4863 
L 1159 2956 
Q 1366 3272 1645 3428 
Q 1925 3584 2291 3584 
Q 2894 3584 3203 3211 
Q 3513 2838 3513 2113 
z
" transform="scale(0.015625)"/>
       <path id="DejaVuSans-74" d="M 1172 4494 
L 1172 3500 
L 2356 3500 
L 2356 3053 
L 1172 3053 
L 1172 1153 
Q 1172 725 1289 603 
Q 1406 481 1766 481 
L 2356 481 
L 2356 0 
L 1766 0 
Q 1100 0 847 248 
Q 594 497 594 1153 
L 594 3053 
L 172 3053 
L 172 3500 
L 594 3500 
L 594 4494 
L 1172 4494 
z
" transform="scale(0.015625)"/>
       <path id="DejaVuSans-47" d="M 3809 666 
L 3809 1919 
L 2778 1919 
L 2778 2438 
L 4434 2438 
L 4434 434 
Q 4069 175 3628 42 
Q 3188 -91 2688 -91 
Q 1594 -91 976 548 
Q 359 1188 359 2328 
Q 359 3472 976 4111 
Q 1594 4750 2688 4750 
Q 3144 4750 3555 4637 
Q 3966 4525 4313 4306 
L 4313 3634 
Q 3963 3931 3569 4081 
Q 3175 4231 2741 4231 
Q 1884 4231 1454 3753 
Q 1025 3275 1025 2328 
Q 1025 1384 1454 906 
Q 1884 428 2741 428 
Q 3075 428 3337 486 
Q 3600 544 3809 666 
z
" transform="scale(0.015625)"/>
       <path id="DejaVuSans-42" d="M 1259 2228 
L 1259 519 
L 2272 519 
Q 2781 519 3026 730 
Q 3272 941 3272 1375 
Q 3272 1813 3026 2020 
Q 2781 2228 2272 2228 
L 1259 2228 
z
M 1259 4147 
L 1259 2741 
L 2194 2741 
Q 2656 2741 2882 2914 
Q 3109 3088 3109 3444 
Q 3109 3797 2882 3972 
Q 2656 4147 2194 4147 
L 1259 4147 
z
M 628 4666 
L 2241 4666 
Q 2963 4666 3353 4366 
Q 3744 4066 3744 3513 
Q 3744 3084 3544 2831 
Q 3344 2578 2956 2516 
Q 3422 2416 3680 2098 
Q 3938 1781 3938 1306 
Q 3938 681 3513 340 
Q 3088 0 2303 0 
L 628 0 
L 628 4666 
z
" transform="scale(0.015625)"/>
      </defs>
      <use xlink:href="#DejaVuSans-4c"/>
      <use xlink:href="#DejaVuSans-69" x="55.712891"/>
      <use xlink:href="#DejaVuSans-67" x="83.496094"/>
      <use xlink:href="#DejaVuSans-68" x="146.972656"/>
      <use xlink:href="#DejaVuSans-74" x="210.351562"/>
      <use xlink:href="#DejaVuSans-47" x="249.560547"/>
      <use xlink:href="#DejaVuSans-42" x="327.050781"/>
      <use xlink:href="#DejaVuSans-4d" x="395.654297"/>
     </g>
    </g>
    <g id="line2d_18">
     <path d="M 458.321052 27.698906 
L 467.321052 27.698906 
L 476.321052 27.698906 
" style="fill: none; stroke: #377eb8; stroke-width: 2.5; stroke-linecap: square"/>
     <g>
      <use xlink:href="#ma793738721" x="467.321052" y="27.698906" style="fill: #377eb8; stroke: #377eb8"/>
     </g>
    </g>
    <g id="text_14">
     <!-- RF -->
     <g transform="translate(483.521052 30.848906) scale(0.09 -0.09)">
      <defs>
       <path id="DejaVuSans-52" d="M 2841 2188 
Q 3044 2119 3236 1894 
Q 3428 1669 3622 1275 
L 4263 0 
L 3584 0 
L 2988 1197 
Q 2756 1666 2539 1819 
Q 2322 1972 1947 1972 
L 1259 1972 
L 1259 0 
L 628 0 
L 628 4666 
L 2053 4666 
Q 2853 4666 3247 4331 
Q 3641 3997 3641 3322 
Q 3641 2881 3436 2590 
Q 3231 2300 2841 2188 
z
M 1259 4147 
L 1259 2491 
L 2053 2491 
Q 2509 2491 2742 2702 
Q 2975 2913 2975 3322 
Q 2975 3731 2742 3939 
Q 2509 4147 2053 4147 
L 1259 4147 
z
" transform="scale(0.015625)"/>
       <path id="DejaVuSans-46" d="M 628 4666 
L 3309 4666 
L 3309 4134 
L 1259 4134 
L 1259 2759 
L 3109 2759 
L 3109 2228 
L 1259 2228 
L 1259 0 
L 628 0 
L 628 4666 
z
" transform="scale(0.015625)"/>
      </defs>
      <use xlink:href="#DejaVuSans-52"/>
      <use xlink:href="#DejaVuSans-46" x="69.482422"/>
     </g>
    </g>
    <g id="line2d_19">
     <path d="M 458.321052 40.909219 
L 467.321052 40.909219 
L 476.321052 40.909219 
" style="fill: none; stroke: #4daf4a; stroke-width: 2.5; stroke-linecap: square"/>
     <g>
      <use xlink:href="#mca8b0740ef" x="467.321052" y="40.909219" style="fill: #4daf4a; stroke: #4daf4a"/>
     </g>
    </g>
    <g id="text_15">
     <!-- XGBoost -->
     <g transform="translate(483.521052 44.059219) scale(0.09 -0.09)">
      <defs>
       <path id="DejaVuSans-58" d="M 403 4666 
L 1081 4666 
L 2241 2931 
L 3406 4666 
L 4084 4666 
L 2584 2425 
L 4184 0 
L 3506 0 
L 2194 1984 
L 872 0 
L 191 0 
L 1856 2491 
L 403 4666 
z
" transform="scale(0.015625)"/>
      </defs>
      <use xlink:href="#DejaVuSans-58"/>
      <use xlink:href="#DejaVuSans-47" x="68.505859"/>
      <use xlink:href="#DejaVuSans-42" x="145.996094"/>
      <use xlink:href="#DejaVuSans-6f" x="214.599609"/>
      <use xlink:href="#DejaVuSans-6f" x="275.78125"/>
      <use xlink:href="#DejaVuSans-73" x="336.962891"/>
      <use xlink:href="#DejaVuSans-74" x="389.0625"/>
     </g>
    </g>
    <g id="line2d_20">
     <path d="M 458.321052 54.119531 
L 467.321052 54.119531 
L 476.321052 54.119531 
" style="fill: none; stroke: #984ea3; stroke-width: 2.5; stroke-linecap: square"/>
     <g>
      <use xlink:href="#mb0b7d5a97c" x="467.321052" y="54.119531" style="fill: #984ea3; stroke: #984ea3"/>
     </g>
    </g>
    <g id="text_16">
     <!-- MLP -->
     <g transform="translate(483.521052 57.269531) scale(0.09 -0.09)">
      <defs>
       <path id="DejaVuSans-50" d="M 1259 4147 
L 1259 2394 
L 2053 2394 
Q 2494 2394 2734 2622 
Q 2975 2850 2975 3272 
Q 2975 3691 2734 3919 
Q 2494 4147 2053 4147 
L 1259 4147 
z
M 628 4666 
L 2053 4666 
Q 2838 4666 3239 4311 
Q 3641 3956 3641 3272 
Q 3641 2581 3239 2228 
Q 2838 1875 2053 1875 
L 1259 1875 
L 1259 0 
L 628 0 
L 628 4666 
z
" transform="scale(0.015625)"/>
      </defs>
      <use xlink:href="#DejaVuSans-4d"/>
      <use xlink:href="#DejaVuSans-4c" x="86.279297"/>
      <use xlink:href="#DejaVuSans-50" x="141.992188"/>
     </g>
    </g>
    <g id="line2d_21">
     <path d="M 458.321052 67.329844 
L 467.321052 67.329844 
L 476.321052 67.329844 
" style="fill: none; stroke: #ff7f00; stroke-width: 2.5; stroke-linecap: square"/>
     <g>
      <use xlink:href="#m4a1c074db8" x="467.321052" y="67.329844" style="fill: #ff7f00; stroke: #ff7f00"/>
     </g>
    </g>
    <g id="text_17">
     <!-- LR -->
     <g transform="translate(483.521052 70.479844) scale(0.09 -0.09)">
      <use xlink:href="#DejaVuSans-4c"/>
      <use xlink:href="#DejaVuSans-52" x="55.712891"/>
     </g>
    </g>
   </g>
  </g>
 </g>
 <defs>
  <clipPath id="p7a90c41d98">
   <path d="M 399.167427 235.548 
C 399.167427 210.066901 394.148206 184.833573 384.397011 161.292107 
C 374.645817 137.750641 360.352285 116.358858 342.334427 98.341 
C 324.316568 80.323142 302.924786 66.02961 279.38332 56.278416 
C 255.841854 46.527221 230.608526 41.508 205.127427 41.508 
C 179.646327 41.508 154.413 46.527221 130.871534 56.278416 
C 107.330067 66.02961 85.938285 80.323142 67.920427 98.341 
C 49.902569 116.358858 35.609037 137.750641 25.857842 161.292107 
C 16.106648 184.833573 11.087427 210.066901 11.087427 235.548 
C 11.087427 261.029099 16.106648 286.262427 25.857842 309.803893 
C 35.609037 333.345359 49.902569 354.737142 67.920427 372.755 
C 85.938285 390.772858 107.330067 405.06639 130.871534 414.817584 
C 154.413 424.568779 179.646327 429.588 205.127427 429.588 
C 230.608526 429.588 255.841854 424.568779 279.38332 414.817584 
C 302.924786 405.06639 324.316568 390.772858 342.334427 372.755 
C 360.352285 354.737142 374.645817 333.345359 384.397011 309.803893 
C 394.148206 286.262427 399.167427 261.029099 399.167427 235.548 
M 205.127427 235.548 
C 205.127427 235.548 205.127427 235.548 205.127427 235.548 
C 205.127427 235.548 205.127427 235.548 205.127427 235.548 
C 205.127427 235.548 205.127427 235.548 205.127427 235.548 
C 205.127427 235.548 205.127427 235.548 205.127427 235.548 
C 205.127427 235.548 205.127427 235.548 205.127427 235.548 
C 205.127427 235.548 205.127427 235.548 205.127427 235.548 
C 205.127427 235.548 205.127427 235.548 205.127427 235.548 
C 205.127427 235.548 205.127427 235.548 205.127427 235.548 
C 205.127427 235.548 205.127427 235.548 205.127427 235.548 
C 205.127427 235.548 205.127427 235.548 205.127427 235.548 
C 205.127427 235.548 205.127427 235.548 205.127427 235.548 
C 205.127427 235.548 205.127427 235.548 205.127427 235.548 
C 205.127427 235.548 205.127427 235.548 205.127427 235.548 
C 205.127427 235.548 205.127427 235.548 205.127427 235.548 
C 205.127427 235.548 205.127427 235.548 205.127427 235.548 
C 205.127427 235.548 205.127427 235.548 205.127427 235.548 
z
"/>
  </clipPath>
 </defs>
</svg>
