<?xml version="1.0" encoding="utf-8" standalone="no"?>
<!DOCTYPE svg PUBLIC "-//W3C//DTD SVG 1.1//EN"
  "http://www.w3.org/Graphics/SVG/1.1/DTD/svg11.dtd">
<svg xmlns:xlink="http://www.w3.org/1999/xlink" width="507.1424pt" height="438.18326pt" viewBox="0 0 507.1424 438.18326" xmlns="http://www.w3.org/2000/svg" version="1.1">
 <metadata>
  <rdf:RDF xmlns:dc="http://purl.org/dc/elements/1.1/" xmlns:cc="http://creativecommons.org/ns#" xmlns:rdf="http://www.w3.org/1999/02/22-rdf-syntax-ns#">
   <cc:Work>
    <dc:type rdf:resource="http://purl.org/dc/dcmitype/StillImage"/>
    <dc:date>2026-06-03T15:43:43.049008</dc:date>
    <dc:format>image/svg+xml</dc:format>
    <dc:creator>
     <cc:Agent>
      <dc:title>Matplotlib v3.9.2, https://matplotlib.org/</dc:title>
     </cc:Agent>
    </dc:creator>
   </cc:Work>
  </rdf:RDF>
 </metadata>
 <defs>
  <style type="text/css">*{stroke-linejoin: round; stroke-linecap: butt}</style>
 </defs>
 <g id="figure_1">
  <g id="patch_1">
   <path d="M 0 438.18326 
L 507.1424 438.18326 
L 507.1424 0 
L 0 0 
z
" style="fill: #ffffff"/>
  </g>
  <g id="axes_1">
   <g id="patch_2">
    <path d="M 395.28 228.2864 
C 395.28 202.805301 390.260779 177.571973 380.509584 154.030507 
C 370.75839 130.489041 356.464858 109.097258 338.447 91.0794 
C 320.429142 73.061542 299.037359 58.76801 275.495893 49.016816 
C 251.954427 39.265621 226.721099 34.2464 201.24 34.2464 
C 175.758901 34.2464 150.525573 39.265621 126.984107 49.016816 
C 103.442641 58.76801 82.050858 73.061542 64.033 91.0794 
C 46.015142 109.097258 31.72161 130.489041 21.970416 154.030507 
C 12.219221 177.571973 7.2 202.805301 7.2 228.2864 
C 7.2 253.767499 12.219221 279.000827 21.970416 302.542293 
C 31.72161 326.083759 46.015142 347.475542 64.033 365.4934 
C 82.050858 383.511258 103.442641 397.80479 126.984107 407.555984 
C 150.525573 417.307179 175.758901 422.3264 201.24 422.3264 
C 226.721099 422.3264 251.954427 417.307179 275.495893 407.555984 
C 299.037359 397.80479 320.429142 383.511258 338.447 365.4934 
C 356.464858 347.475542 370.75839 326.083759 380.509584 302.542293 
C 390.260779 279.000827 395.28 253.767499 395.28 228.2864 
M 201.24 228.2864 
C 201.24 228.2864 201.24 228.2864 201.24 228.2864 
C 201.24 228.2864 201.24 228.2864 201.24 228.2864 
C 201.24 228.2864 201.24 228.2864 201.24 228.2864 
C 201.24 228.2864 201.24 228.2864 201.24 228.2864 
C 201.24 228.2864 201.24 228.2864 201.24 228.2864 
C 201.24 228.2864 201.24 228.2864 201.24 228.2864 
C 201.24 228.2864 201.24 228.2864 201.24 228.2864 
C 201.24 228.2864 201.24 228.2864 201.24 228.2864 
C 201.24 228.2864 201.24 228.2864 201.24 228.2864 
C 201.24 228.2864 201.24 228.2864 201.24 228.2864 
C 201.24 228.2864 201.24 228.2864 201.24 228.2864 
C 201.24 228.2864 201.24 228.2864 201.24 228.2864 
C 201.24 228.2864 201.24 228.2864 201.24 228.2864 
C 201.24 228.2864 201.24 228.2864 201.24 228.2864 
C 201.24 228.2864 201.24 228.2864 201.24 228.2864 
C 201.24 228.2864 201.24 228.2864 201.24 228.2864 
z
" style="fill: #ffffff"/>
   </g>
   <g id="patch_3">
    <path d="M 383.659381 228.2864 
L 254.675791 63.827947 
L 61.270484 126.592594 
L 50.262716 337.977817 
L 239.270434 345.332041 
z
" clip-path="url(#pd53ac2751f)" style="fill: #1f77b4; opacity: 0.08"/>
   </g>
   <g id="patch_4">
    <path d="M 380.275372 228.2864 
L 254.067225 65.70092 
L 68.353457 131.738675 
L 50.132823 338.072191 
L 243.032758 356.911284 
z
" clip-path="url(#pd53ac2751f)" style="fill: #ff7f0e; opacity: 0.08"/>
   </g>
   <g id="patch_5">
    <path d="M 383.220996 228.2864 
L 254.884097 63.186845 
L 61.509292 126.766098 
L 49.973155 338.188196 
L 237.592325 340.167351 
z
" clip-path="url(#pd53ac2751f)" style="fill: #2ca02c; opacity: 0.08"/>
   </g>
   <g id="patch_6">
    <path d="M 378.57694 228.2864 
L 252.997824 68.992199 
L 56.770094 123.32287 
L 49.823796 338.296712 
L 237.180126 338.898733 
z
" clip-path="url(#pd53ac2751f)" style="fill: #d62728; opacity: 0.08"/>
   </g>
   <g id="patch_7">
    <path d="M 374.433119 228.2864 
L 254.100983 65.597023 
L 56.486507 123.116831 
L 51.639254 336.977704 
L 236.919 338.095071 
z
" clip-path="url(#pd53ac2751f)" style="fill: #9467bd; opacity: 0.08"/>
   </g>
   <g id="patch_8">
    <path d="M 201.24 228.2864 
L 250.804006 75.744074 
L 201.24 228.2864 
L 49.665934 338.411405 
L 243.927891 359.66622 
z
" clip-path="url(#pd53ac2751f)" style="fill: #8c564b; opacity: 0.08"/>
   </g>
   <g id="patch_9">
    <path d="M 355.905937 228.2864 
L 239.456398 110.668422 
L 103.451063 157.238578 
L 73.419028 321.153772 
L 244.654005 361.900967 
z
" clip-path="url(#pd53ac2751f)" style="fill: #e377c2; opacity: 0.08"/>
   </g>
   <g id="patch_10">
    <path d="M 352.210154 228.2864 
L 245.023613 93.534296 
L 111.672035 163.211464 
L 80.157309 316.258124 
L 243.360344 357.919488 
z
" clip-path="url(#pd53ac2751f)" style="fill: #7f7f7f; opacity: 0.08"/>
   </g>
   <g id="matplotlib.axis_1">
    <g id="xtick_1">
     <g id="line2d_1">
      <path d="M 201.24 228.2864 
L 395.28 228.2864 
" clip-path="url(#pd53ac2751f)" style="fill: none; stroke: #b0b0b0; stroke-width: 0.8; stroke-linecap: square"/>
     </g>
     <g id="text_1">
      <!-- cv -->
      <g transform="translate(403.571406 231.045775) scale(0.1 -0.1)">
       <defs>
        <path id="DejaVuSans-63" d="M 3122 3366 
L 3122 2828 
Q 2878 2963 2633 3030 
Q 2388 3097 2138 3097 
Q 1578 3097 1268 2742 
Q 959 2388 959 1747 
Q 959 1106 1268 751 
Q 1578 397 2138 397 
Q 2388 397 2633 464 
Q 2878 531 3122 666 
L 3122 134 
Q 2881 22 2623 -34 
Q 2366 -91 2075 -91 
Q 1284 -91 818 406 
Q 353 903 353 1747 
Q 353 2603 823 3093 
Q 1294 3584 2113 3584 
Q 2378 3584 2631 3529 
Q 2884 3475 3122 3366 
z
" transform="scale(0.015625)"/>
        <path id="DejaVuSans-76" d="M 191 3500 
L 800 3500 
L 1894 563 
L 2988 3500 
L 3597 3500 
L 2284 0 
L 1503 0 
L 191 3500 
z
" transform="scale(0.015625)"/>
       </defs>
       <use xlink:href="#DejaVuSans-63"/>
       <use xlink:href="#DejaVuSans-76" x="54.980469"/>
      </g>
     </g>
    </g>
    <g id="xtick_2">
     <g id="line2d_2">
      <path d="M 201.24 228.2864 
L 261.201658 43.743394 
" clip-path="url(#pd53ac2751f)" style="fill: none; stroke: #b0b0b0; stroke-width: 0.8; stroke-linecap: square"/>
     </g>
     <g id="text_2">
      <!-- graph -->
      <g transform="translate(250.891177 33.187977) scale(0.1 -0.1)">
       <defs>
        <path id="DejaVuSans-67" d="M 2906 1791 
Q 2906 2416 2648 2759 
Q 2391 3103 1925 3103 
Q 1463 3103 1205 2759 
Q 947 2416 947 1791 
Q 947 1169 1205 825 
Q 1463 481 1925 481 
Q 2391 481 2648 825 
Q 2906 1169 2906 1791 
z
M 3481 434 
Q 3481 -459 3084 -895 
Q 2688 -1331 1869 -1331 
Q 1566 -1331 1297 -1286 
Q 1028 -1241 775 -1147 
L 775 -588 
Q 1028 -725 1275 -790 
Q 1522 -856 1778 -856 
Q 2344 -856 2625 -561 
Q 2906 -266 2906 331 
L 2906 616 
Q 2728 306 2450 153 
Q 2172 0 1784 0 
Q 1141 0 747 490 
Q 353 981 353 1791 
Q 353 2603 747 3093 
Q 1141 3584 1784 3584 
Q 2172 3584 2450 3431 
Q 2728 3278 2906 2969 
L 2906 3500 
L 3481 3500 
L 3481 434 
z
" transform="scale(0.015625)"/>
        <path id="DejaVuSans-72" d="M 2631 2963 
Q 2534 3019 2420 3045 
Q 2306 3072 2169 3072 
Q 1681 3072 1420 2755 
Q 1159 2438 1159 1844 
L 1159 0 
L 581 0 
L 581 3500 
L 1159 3500 
L 1159 2956 
Q 1341 3275 1631 3429 
Q 1922 3584 2338 3584 
Q 2397 3584 2469 3576 
Q 2541 3569 2628 3553 
L 2631 2963 
z
" transform="scale(0.015625)"/>
        <path id="DejaVuSans-61" d="M 2194 1759 
Q 1497 1759 1228 1600 
Q 959 1441 959 1056 
Q 959 750 1161 570 
Q 1363 391 1709 391 
Q 2188 391 2477 730 
Q 2766 1069 2766 1631 
L 2766 1759 
L 2194 1759 
z
M 3341 1997 
L 3341 0 
L 2766 0 
L 2766 531 
Q 2569 213 2275 61 
Q 1981 -91 1556 -91 
Q 1019 -91 701 211 
Q 384 513 384 1019 
Q 384 1609 779 1909 
Q 1175 2209 1959 2209 
L 2766 2209 
L 2766 2266 
Q 2766 2663 2505 2880 
Q 2244 3097 1772 3097 
Q 1472 3097 1187 3025 
Q 903 2953 641 2809 
L 641 3341 
Q 956 3463 1253 3523 
Q 1550 3584 1831 3584 
Q 2591 3584 2966 3190 
Q 3341 2797 3341 1997 
z
" transform="scale(0.015625)"/>
        <path id="DejaVuSans-70" d="M 1159 525 
L 1159 -1331 
L 581 -1331 
L 581 3500 
L 1159 3500 
L 1159 2969 
Q 1341 3281 1617 3432 
Q 1894 3584 2278 3584 
Q 2916 3584 3314 3078 
Q 3713 2572 3713 1747 
Q 3713 922 3314 415 
Q 2916 -91 2278 -91 
Q 1894 -91 1617 61 
Q 1341 213 1159 525 
z
M 3116 1747 
Q 3116 2381 2855 2742 
Q 2594 3103 2138 3103 
Q 1681 3103 1420 2742 
Q 1159 2381 1159 1747 
Q 1159 1113 1420 752 
Q 1681 391 2138 391 
Q 2594 391 2855 752 
Q 3116 1113 3116 1747 
z
" transform="scale(0.015625)"/>
        <path id="DejaVuSans-68" d="M 3513 2113 
L 3513 0 
L 2938 0 
L 2938 2094 
Q 2938 2591 2744 2837 
Q 2550 3084 2163 3084 
Q 1697 3084 1428 2787 
Q 1159 2491 1159 1978 
L 1159 0 
L 581 0 
L 581 4863 
L 1159 4863 
L 1159 2956 
Q 1366 3272 1645 3428 
Q 1925 3584 2291 3584 
Q 2894 3584 3203 3211 
Q 3513 2838 3513 2113 
z
" transform="scale(0.015625)"/>
       </defs>
       <use xlink:href="#DejaVuSans-67"/>
       <use xlink:href="#DejaVuSans-72" x="63.476562"/>
       <use xlink:href="#DejaVuSans-61" x="104.589844"/>
       <use xlink:href="#DejaVuSans-70" x="165.869141"/>
       <use xlink:href="#DejaVuSans-68" x="229.345703"/>
      </g>
     </g>
    </g>
    <g id="xtick_3">
     <g id="line2d_3">
      <path d="M 201.24 228.2864 
L 44.258342 114.23255 
" clip-path="url(#pd53ac2751f)" style="fill: none; stroke: #b0b0b0; stroke-width: 0.8; stroke-linecap: square"/>
     </g>
     <g id="text_3">
      <!-- nlp -->
      <g transform="translate(25.200073 108.762931) scale(0.1 -0.1)">
       <defs>
        <path id="DejaVuSans-6e" d="M 3513 2113 
L 3513 0 
L 2938 0 
L 2938 2094 
Q 2938 2591 2744 2837 
Q 2550 3084 2163 3084 
Q 1697 3084 1428 2787 
Q 1159 2491 1159 1978 
L 1159 0 
L 581 0 
L 581 3500 
L 1159 3500 
L 1159 2956 
Q 1366 3272 1645 3428 
Q 1925 3584 2291 3584 
Q 2894 3584 3203 3211 
Q 3513 2838 3513 2113 
z
" transform="scale(0.015625)"/>
        <path id="DejaVuSans-6c" d="M 603 4863 
L 1178 4863 
L 1178 0 
L 603 0 
L 603 4863 
z
" transform="scale(0.015625)"/>
       </defs>
       <use xlink:href="#DejaVuSans-6e"/>
       <use xlink:href="#DejaVuSans-6c" x="63.378906"/>
       <use xlink:href="#DejaVuSans-70" x="91.162109"/>
      </g>
     </g>
    </g>
    <g id="xtick_4">
     <g id="line2d_4">
      <path d="M 201.24 228.2864 
L 44.258342 342.34025 
" clip-path="url(#pd53ac2751f)" style="fill: none; stroke: #b0b0b0; stroke-width: 0.8; stroke-linecap: square"/>
     </g>
     <g id="text_4">
      <!-- tabular -->
      <g transform="translate(15.056323 353.328619) scale(0.1 -0.1)">
       <defs>
        <path id="DejaVuSans-74" d="M 1172 4494 
L 1172 3500 
L 2356 3500 
L 2356 3053 
L 1172 3053 
L 1172 1153 
Q 1172 725 1289 603 
Q 1406 481 1766 481 
L 2356 481 
L 2356 0 
L 1766 0 
Q 1100 0 847 248 
Q 594 497 594 1153 
L 594 3053 
L 172 3053 
L 172 3500 
L 594 3500 
L 594 4494 
L 1172 4494 
z
" transform="scale(0.015625)"/>
        <path id="DejaVuSans-62" d="M 3116 1747 
Q 3116 2381 2855 2742 
Q 2594 3103 2138 3103 
Q 1681 3103 1420 2742 
Q 1159 2381 1159 1747 
Q 1159 1113 1420 752 
Q 1681 391 2138 391 
Q 2594 391 2855 752 
Q 3116 1113 3116 1747 
z
M 1159 2969 
Q 1341 3281 1617 3432 
Q 1894 3584 2278 3584 
Q 2916 3584 3314 3078 
Q 3713 2572 3713 1747 
Q 3713 922 3314 415 
Q 2916 -91 2278 -91 
Q 1894 -91 1617 61 
Q 1341 213 1159 525 
L 1159 0 
L 581 0 
L 581 4863 
L 1159 4863 
L 1159 2969 
z
" transform="scale(0.015625)"/>
        <path id="DejaVuSans-75" d="M 544 1381 
L 544 3500 
L 1119 3500 
L 1119 1403 
Q 1119 906 1312 657 
Q 1506 409 1894 409 
Q 2359 409 2629 706 
Q 2900 1003 2900 1516 
L 2900 3500 
L 3475 3500 
L 3475 0 
L 2900 0 
L 2900 538 
Q 2691 219 2414 64 
Q 2138 -91 1772 -91 
Q 1169 -91 856 284 
Q 544 659 544 1381 
z
M 1991 3584 
L 1991 3584 
z
" transform="scale(0.015625)"/>
       </defs>
       <use xlink:href="#DejaVuSans-74"/>
       <use xlink:href="#DejaVuSans-61" x="39.208984"/>
       <use xlink:href="#DejaVuSans-62" x="100.488281"/>
       <use xlink:href="#DejaVuSans-75" x="163.964844"/>
       <use xlink:href="#DejaVuSans-6c" x="227.34375"/>
       <use xlink:href="#DejaVuSans-61" x="255.126953"/>
       <use xlink:href="#DejaVuSans-72" x="316.40625"/>
      </g>
     </g>
    </g>
    <g id="xtick_5">
     <g id="line2d_5">
      <path d="M 201.24 228.2864 
L 261.201658 412.829406 
" clip-path="url(#pd53ac2751f)" style="fill: none; stroke: #b0b0b0; stroke-width: 0.8; stroke-linecap: square"/>
     </g>
     <g id="text_5">
      <!-- timeseries -->
      <g transform="translate(239.424771 428.903573) scale(0.1 -0.1)">
       <defs>
        <path id="DejaVuSans-69" d="M 603 3500 
L 1178 3500 
L 1178 0 
L 603 0 
L 603 3500 
z
M 603 4863 
L 1178 4863 
L 1178 4134 
L 603 4134 
L 603 4863 
z
" transform="scale(0.015625)"/>
        <path id="DejaVuSans-6d" d="M 3328 2828 
Q 3544 3216 3844 3400 
Q 4144 3584 4550 3584 
Q 5097 3584 5394 3201 
Q 5691 2819 5691 2113 
L 5691 0 
L 5113 0 
L 5113 2094 
Q 5113 2597 4934 2840 
Q 4756 3084 4391 3084 
Q 3944 3084 3684 2787 
Q 3425 2491 3425 1978 
L 3425 0 
L 2847 0 
L 2847 2094 
Q 2847 2600 2669 2842 
Q 2491 3084 2119 3084 
Q 1678 3084 1418 2786 
Q 1159 2488 1159 1978 
L 1159 0 
L 581 0 
L 581 3500 
L 1159 3500 
L 1159 2956 
Q 1356 3278 1631 3431 
Q 1906 3584 2284 3584 
Q 2666 3584 2933 3390 
Q 3200 3197 3328 2828 
z
" transform="scale(0.015625)"/>
        <path id="DejaVuSans-65" d="M 3597 1894 
L 3597 1613 
L 953 1613 
Q 991 1019 1311 708 
Q 1631 397 2203 397 
Q 2534 397 2845 478 
Q 3156 559 3463 722 
L 3463 178 
Q 3153 47 2828 -22 
Q 2503 -91 2169 -91 
Q 1331 -91 842 396 
Q 353 884 353 1716 
Q 353 2575 817 3079 
Q 1281 3584 2069 3584 
Q 2775 3584 3186 3129 
Q 3597 2675 3597 1894 
z
M 3022 2063 
Q 3016 2534 2758 2815 
Q 2500 3097 2075 3097 
Q 1594 3097 1305 2825 
Q 1016 2553 972 2059 
L 3022 2063 
z
" transform="scale(0.015625)"/>
        <path id="DejaVuSans-73" d="M 2834 3397 
L 2834 2853 
Q 2591 2978 2328 3040 
Q 2066 3103 1784 3103 
Q 1356 3103 1142 2972 
Q 928 2841 928 2578 
Q 928 2378 1081 2264 
Q 1234 2150 1697 2047 
L 1894 2003 
Q 2506 1872 2764 1633 
Q 3022 1394 3022 966 
Q 3022 478 2636 193 
Q 2250 -91 1575 -91 
Q 1294 -91 989 -36 
Q 684 19 347 128 
L 347 722 
Q 666 556 975 473 
Q 1284 391 1588 391 
Q 1994 391 2212 530 
Q 2431 669 2431 922 
Q 2431 1156 2273 1281 
Q 2116 1406 1581 1522 
L 1381 1569 
Q 847 1681 609 1914 
Q 372 2147 372 2553 
Q 372 3047 722 3315 
Q 1072 3584 1716 3584 
Q 2034 3584 2315 3537 
Q 2597 3491 2834 3397 
z
" transform="scale(0.015625)"/>
       </defs>
       <use xlink:href="#DejaVuSans-74"/>
       <use xlink:href="#DejaVuSans-69" x="39.208984"/>
       <use xlink:href="#DejaVuSans-6d" x="66.992188"/>
       <use xlink:href="#DejaVuSans-65" x="164.404297"/>
       <use xlink:href="#DejaVuSans-73" x="225.927734"/>
       <use xlink:href="#DejaVuSans-65" x="278.027344"/>
       <use xlink:href="#DejaVuSans-72" x="339.550781"/>
       <use xlink:href="#DejaVuSans-69" x="380.664062"/>
       <use xlink:href="#DejaVuSans-65" x="408.447266"/>
       <use xlink:href="#DejaVuSans-73" x="469.970703"/>
      </g>
     </g>
    </g>
   </g>
   <g id="matplotlib.axis_2">
    <g id="ytick_1">
     <g id="line2d_6">
      <path d="M 240.048 228.2864 
C 240.048 223.19018 239.044156 218.143515 237.093917 213.435221 
C 235.143678 208.726928 232.284972 204.448572 228.6814 200.845 
C 225.077828 197.241428 220.799472 194.382722 216.091179 192.432483 
C 211.382885 190.482244 206.33622 189.4784 201.24 189.4784 
C 196.14378 189.4784 191.097115 190.482244 186.388821 192.432483 
C 181.680528 194.382722 177.402172 197.241428 173.7986 200.845 
C 170.195028 204.448572 167.336322 208.726928 165.386083 213.435221 
C 163.435844 218.143515 162.432 223.19018 162.432 228.2864 
C 162.432 233.38262 163.435844 238.429285 165.386083 243.137579 
C 167.336322 247.845872 170.195028 252.124228 173.7986 255.7278 
C 177.402172 259.331372 181.680528 262.190078 186.388821 264.140317 
C 191.097115 266.090556 196.14378 267.0944 201.24 267.0944 
C 206.33622 267.0944 211.382885 266.090556 216.091179 264.140317 
C 220.799472 262.190078 225.077828 259.331372 228.6814 255.7278 
C 232.284972 252.124228 235.143678 247.845872 237.093917 243.137579 
C 239.044156 238.429285 240.048 233.38262 240.048 228.2864 
" clip-path="url(#pd53ac2751f)" style="fill: none; stroke: #b0b0b0; stroke-width: 0.8; stroke-linecap: square"/>
     </g>
     <g id="text_6">
      <!-- 0.2 -->
      <g transform="translate(237.093917 211.355534) scale(0.1 -0.1)">
       <defs>
        <path id="DejaVuSans-30" d="M 2034 4250 
Q 1547 4250 1301 3770 
Q 1056 3291 1056 2328 
Q 1056 1369 1301 889 
Q 1547 409 2034 409 
Q 2525 409 2770 889 
Q 3016 1369 3016 2328 
Q 3016 3291 2770 3770 
Q 2525 4250 2034 4250 
z
M 2034 4750 
Q 2819 4750 3233 4129 
Q 3647 3509 3647 2328 
Q 3647 1150 3233 529 
Q 2819 -91 2034 -91 
Q 1250 -91 836 529 
Q 422 1150 422 2328 
Q 422 3509 836 4129 
Q 1250 4750 2034 4750 
z
" transform="scale(0.015625)"/>
        <path id="DejaVuSans-2e" d="M 684 794 
L 1344 794 
L 1344 0 
L 684 0 
L 684 794 
z
" transform="scale(0.015625)"/>
        <path id="DejaVuSans-32" d="M 1228 531 
L 3431 531 
L 3431 0 
L 469 0 
L 469 531 
Q 828 903 1448 1529 
Q 2069 2156 2228 2338 
Q 2531 2678 2651 2914 
Q 2772 3150 2772 3378 
Q 2772 3750 2511 3984 
Q 2250 4219 1831 4219 
Q 1534 4219 1204 4116 
Q 875 4013 500 3803 
L 500 4441 
Q 881 4594 1212 4672 
Q 1544 4750 1819 4750 
Q 2544 4750 2975 4387 
Q 3406 4025 3406 3419 
Q 3406 3131 3298 2873 
Q 3191 2616 2906 2266 
Q 2828 2175 2409 1742 
Q 1991 1309 1228 531 
z
" transform="scale(0.015625)"/>
       </defs>
       <use xlink:href="#DejaVuSans-30"/>
       <use xlink:href="#DejaVuSans-2e" x="63.623047"/>
       <use xlink:href="#DejaVuSans-32" x="95.410156"/>
      </g>
     </g>
    </g>
    <g id="ytick_2">
     <g id="line2d_7">
      <path d="M 278.856 228.2864 
C 278.856 218.09396 276.848312 208.000629 272.947834 198.584043 
C 269.047356 189.167456 263.329943 180.610743 256.1228 173.4036 
C 248.915657 166.196457 240.358944 160.479044 230.942357 156.578566 
C 221.525771 152.678088 211.43244 150.6704 201.24 150.6704 
C 191.04756 150.6704 180.954229 152.678088 171.537643 156.578566 
C 162.121056 160.479044 153.564343 166.196457 146.3572 173.4036 
C 139.150057 180.610743 133.432644 189.167456 129.532166 198.584043 
C 125.631688 208.000629 123.624 218.09396 123.624 228.2864 
C 123.624 238.47884 125.631688 248.572171 129.532166 257.988757 
C 133.432644 267.405344 139.150057 275.962057 146.3572 283.1692 
C 153.564343 290.376343 162.121056 296.093756 171.537643 299.994234 
C 180.954229 303.894712 191.04756 305.9024 201.24 305.9024 
C 211.43244 305.9024 221.525771 303.894712 230.942357 299.994234 
C 240.358944 296.093756 248.915657 290.376343 256.1228 283.1692 
C 263.329943 275.962057 269.047356 267.405344 272.947834 257.988757 
C 276.848312 248.572171 278.856 238.47884 278.856 228.2864 
" clip-path="url(#pd53ac2751f)" style="fill: none; stroke: #b0b0b0; stroke-width: 0.8; stroke-linecap: square"/>
     </g>
     <g id="text_7">
      <!-- 0.4 -->
      <g transform="translate(272.947834 196.504355) scale(0.1 -0.1)">
       <defs>
        <path id="DejaVuSans-34" d="M 2419 4116 
L 825 1625 
L 2419 1625 
L 2419 4116 
z
M 2253 4666 
L 3047 4666 
L 3047 1625 
L 3713 1625 
L 3713 1100 
L 3047 1100 
L 3047 0 
L 2419 0 
L 2419 1100 
L 313 1100 
L 313 1709 
L 2253 4666 
z
" transform="scale(0.015625)"/>
       </defs>
       <use xlink:href="#DejaVuSans-30"/>
       <use xlink:href="#DejaVuSans-2e" x="63.623047"/>
       <use xlink:href="#DejaVuSans-34" x="95.410156"/>
      </g>
     </g>
    </g>
    <g id="ytick_3">
     <g id="line2d_8">
      <path d="M 317.664 228.2864 
C 317.664 212.99774 314.652467 197.857744 308.801751 183.732864 
C 302.951034 169.607984 294.374915 156.772915 283.5642 145.9622 
C 272.753485 135.151485 259.918416 126.575366 245.793536 120.724649 
C 231.668656 114.873933 216.52866 111.8624 201.24 111.8624 
C 185.95134 111.8624 170.811344 114.873933 156.686464 120.724649 
C 142.561584 126.575366 129.726515 135.151485 118.9158 145.9622 
C 108.105085 156.772915 99.528966 169.607984 93.678249 183.732864 
C 87.827533 197.857744 84.816 212.99774 84.816 228.2864 
C 84.816 243.57506 87.827533 258.715056 93.678249 272.839936 
C 99.528966 286.964816 108.105085 299.799885 118.9158 310.6106 
C 129.726515 321.421315 142.561584 329.997434 156.686464 335.848151 
C 170.811344 341.698867 185.95134 344.7104 201.24 344.7104 
C 216.52866 344.7104 231.668656 341.698867 245.793536 335.848151 
C 259.918416 329.997434 272.753485 321.421315 283.5642 310.6106 
C 294.374915 299.799885 302.951034 286.964816 308.801751 272.839936 
C 314.652467 258.715056 317.664 243.57506 317.664 228.2864 
" clip-path="url(#pd53ac2751f)" style="fill: none; stroke: #b0b0b0; stroke-width: 0.8; stroke-linecap: square"/>
     </g>
     <g id="text_8">
      <!-- 0.6 -->
      <g transform="translate(308.801751 181.653177) scale(0.1 -0.1)">
       <defs>
        <path id="DejaVuSans-36" d="M 2113 2584 
Q 1688 2584 1439 2293 
Q 1191 2003 1191 1497 
Q 1191 994 1439 701 
Q 1688 409 2113 409 
Q 2538 409 2786 701 
Q 3034 994 3034 1497 
Q 3034 2003 2786 2293 
Q 2538 2584 2113 2584 
z
M 3366 4563 
L 3366 3988 
Q 3128 4100 2886 4159 
Q 2644 4219 2406 4219 
Q 1781 4219 1451 3797 
Q 1122 3375 1075 2522 
Q 1259 2794 1537 2939 
Q 1816 3084 2150 3084 
Q 2853 3084 3261 2657 
Q 3669 2231 3669 1497 
Q 3669 778 3244 343 
Q 2819 -91 2113 -91 
Q 1303 -91 875 529 
Q 447 1150 447 2328 
Q 447 3434 972 4092 
Q 1497 4750 2381 4750 
Q 2619 4750 2861 4703 
Q 3103 4656 3366 4563 
z
" transform="scale(0.015625)"/>
       </defs>
       <use xlink:href="#DejaVuSans-30"/>
       <use xlink:href="#DejaVuSans-2e" x="63.623047"/>
       <use xlink:href="#DejaVuSans-36" x="95.410156"/>
      </g>
     </g>
    </g>
    <g id="ytick_4">
     <g id="line2d_9">
      <path d="M 356.472 228.2864 
C 356.472 207.901521 352.456623 187.714858 344.655668 168.881685 
C 336.854712 150.048513 325.419886 132.935087 311.0056 118.5208 
C 296.591313 104.106514 279.477887 92.671688 260.644715 84.870732 
C 241.811542 77.069777 221.624879 73.0544 201.24 73.0544 
C 180.855121 73.0544 160.668458 77.069777 141.835285 84.870732 
C 123.002113 92.671688 105.888687 104.106514 91.4744 118.5208 
C 77.060114 132.935087 65.625288 150.048513 57.824332 168.881685 
C 50.023377 187.714858 46.008 207.901521 46.008 228.2864 
C 46.008 248.671279 50.023377 268.857942 57.824332 287.691115 
C 65.625288 306.524287 77.060114 323.637713 91.4744 338.052 
C 105.888687 352.466286 123.002113 363.901112 141.835285 371.702068 
C 160.668458 379.503023 180.855121 383.5184 201.24 383.5184 
C 221.624879 383.5184 241.811542 379.503023 260.644715 371.702068 
C 279.477887 363.901112 296.591313 352.466286 311.0056 338.052 
C 325.419886 323.637713 336.854712 306.524287 344.655668 287.691115 
C 352.456623 268.857942 356.472 248.671279 356.472 228.2864 
" clip-path="url(#pd53ac2751f)" style="fill: none; stroke: #b0b0b0; stroke-width: 0.8; stroke-linecap: square"/>
     </g>
     <g id="text_9">
      <!-- 0.8 -->
      <g transform="translate(344.655668 166.801998) scale(0.1 -0.1)">
       <defs>
        <path id="DejaVuSans-38" d="M 2034 2216 
Q 1584 2216 1326 1975 
Q 1069 1734 1069 1313 
Q 1069 891 1326 650 
Q 1584 409 2034 409 
Q 2484 409 2743 651 
Q 3003 894 3003 1313 
Q 3003 1734 2745 1975 
Q 2488 2216 2034 2216 
z
M 1403 2484 
Q 997 2584 770 2862 
Q 544 3141 544 3541 
Q 544 4100 942 4425 
Q 1341 4750 2034 4750 
Q 2731 4750 3128 4425 
Q 3525 4100 3525 3541 
Q 3525 3141 3298 2862 
Q 3072 2584 2669 2484 
Q 3125 2378 3379 2068 
Q 3634 1759 3634 1313 
Q 3634 634 3220 271 
Q 2806 -91 2034 -91 
Q 1263 -91 848 271 
Q 434 634 434 1313 
Q 434 1759 690 2068 
Q 947 2378 1403 2484 
z
M 1172 3481 
Q 1172 3119 1398 2916 
Q 1625 2713 2034 2713 
Q 2441 2713 2670 2916 
Q 2900 3119 2900 3481 
Q 2900 3844 2670 4047 
Q 2441 4250 2034 4250 
Q 1625 4250 1398 4047 
Q 1172 3844 1172 3481 
z
" transform="scale(0.015625)"/>
       </defs>
       <use xlink:href="#DejaVuSans-30"/>
       <use xlink:href="#DejaVuSans-2e" x="63.623047"/>
       <use xlink:href="#DejaVuSans-38" x="95.410156"/>
      </g>
     </g>
    </g>
    <g id="ytick_5">
     <g id="line2d_10">
      <path d="M 395.28 228.2864 
C 395.28 202.805301 390.260779 177.571973 380.509584 154.030507 
C 370.75839 130.489041 356.464858 109.097258 338.447 91.0794 
C 320.429142 73.061542 299.037359 58.76801 275.495893 49.016816 
C 251.954427 39.265621 226.721099 34.2464 201.24 34.2464 
C 175.758901 34.2464 150.525573 39.265621 126.984107 49.016816 
C 103.442641 58.76801 82.050858 73.061542 64.033 91.0794 
C 46.015142 109.097258 31.72161 130.489041 21.970416 154.030507 
C 12.219221 177.571973 7.2 202.805301 7.2 228.2864 
C 7.2 253.767499 12.219221 279.000827 21.970416 302.542293 
C 31.72161 326.083759 46.015142 347.475542 64.033 365.4934 
C 82.050858 383.511258 103.442641 397.80479 126.984107 407.555984 
C 150.525573 417.307179 175.758901 422.3264 201.24 422.3264 
C 226.721099 422.3264 251.954427 417.307179 275.495893 407.555984 
C 299.037359 397.80479 320.429142 383.511258 338.447 365.4934 
C 356.464858 347.475542 370.75839 326.083759 380.509584 302.542293 
C 390.260779 279.000827 395.28 253.767499 395.28 228.2864 
" clip-path="url(#pd53ac2751f)" style="fill: none; stroke: #b0b0b0; stroke-width: 0.8; stroke-linecap: square"/>
     </g>
     <g id="text_10">
      <!-- 1.0 -->
      <g transform="translate(380.509584 151.950819) scale(0.1 -0.1)">
       <defs>
        <path id="DejaVuSans-31" d="M 794 531 
L 1825 531 
L 1825 4091 
L 703 3866 
L 703 4441 
L 1819 4666 
L 2450 4666 
L 2450 531 
L 3481 531 
L 3481 0 
L 794 0 
L 794 531 
z
" transform="scale(0.015625)"/>
       </defs>
       <use xlink:href="#DejaVuSans-31"/>
       <use xlink:href="#DejaVuSans-2e" x="63.623047"/>
       <use xlink:href="#DejaVuSans-30" x="95.410156"/>
      </g>
     </g>
    </g>
   </g>
   <g id="line2d_11">
    <path d="M 383.659381 228.2864 
L 254.675791 63.827947 
L 61.270484 126.592594 
L 50.262716 337.977817 
L 239.270434 345.332041 
L 383.659381 228.2864 
" clip-path="url(#pd53ac2751f)" style="fill: none; stroke: #1f77b4; stroke-width: 1.5; stroke-linecap: square"/>
   </g>
   <g id="line2d_12">
    <path d="M 380.275372 228.2864 
L 254.067225 65.70092 
L 68.353457 131.738675 
L 50.132823 338.072191 
L 243.032758 356.911284 
L 380.275372 228.2864 
" clip-path="url(#pd53ac2751f)" style="fill: none; stroke: #ff7f0e; stroke-width: 1.5; stroke-linecap: square"/>
   </g>
   <g id="line2d_13">
    <path d="M 383.220996 228.2864 
L 254.884097 63.186845 
L 61.509292 126.766098 
L 49.973155 338.188196 
L 237.592325 340.167351 
L 383.220996 228.2864 
" clip-path="url(#pd53ac2751f)" style="fill: none; stroke: #2ca02c; stroke-width: 1.5; stroke-linecap: square"/>
   </g>
   <g id="line2d_14">
    <path d="M 378.57694 228.2864 
L 252.997824 68.992199 
L 56.770094 123.32287 
L 49.823796 338.296712 
L 237.180126 338.898733 
L 378.57694 228.2864 
" clip-path="url(#pd53ac2751f)" style="fill: none; stroke: #d62728; stroke-width: 1.5; stroke-linecap: square"/>
   </g>
   <g id="line2d_15">
    <path d="M 374.433119 228.2864 
L 254.100983 65.597023 
L 56.486507 123.116831 
L 51.639254 336.977704 
L 236.919 338.095071 
L 374.433119 228.2864 
" clip-path="url(#pd53ac2751f)" style="fill: none; stroke: #9467bd; stroke-width: 1.5; stroke-linecap: square"/>
   </g>
   <g id="line2d_16">
    <path d="M 201.24 228.2864 
L 250.804006 75.744074 
L 201.24 228.2864 
L 49.665934 338.411405 
L 243.927891 359.66622 
L 201.24 228.2864 
" clip-path="url(#pd53ac2751f)" style="fill: none; stroke: #8c564b; stroke-width: 1.5; stroke-linecap: square"/>
   </g>
   <g id="line2d_17">
    <path d="M 355.905937 228.2864 
L 239.456398 110.668422 
L 103.451063 157.238578 
L 73.419028 321.153772 
L 244.654005 361.900967 
L 355.905937 228.2864 
" clip-path="url(#pd53ac2751f)" style="fill: none; stroke: #e377c2; stroke-width: 1.5; stroke-linecap: square"/>
   </g>
   <g id="line2d_18">
    <path d="M 352.210154 228.2864 
L 245.023613 93.534296 
L 111.672035 163.211464 
L 80.157309 316.258124 
L 243.360344 357.919488 
L 352.210154 228.2864 
" clip-path="url(#pd53ac2751f)" style="fill: none; stroke: #7f7f7f; stroke-width: 1.5; stroke-linecap: square"/>
   </g>
   <g id="patch_11">
    <path d="M 395.28 228.2864 
C 395.28 202.805301 390.260779 177.571973 380.509584 154.030507 
C 370.75839 130.489041 356.464858 109.097258 338.447 91.0794 
C 320.429142 73.061542 299.037359 58.76801 275.495893 49.016816 
C 251.954427 39.265621 226.721099 34.2464 201.24 34.2464 
C 175.758901 34.2464 150.525573 39.265621 126.984107 49.016816 
C 103.442641 58.76801 82.050858 73.061542 64.033 91.0794 
C 46.015142 109.097258 31.72161 130.489041 21.970416 154.030507 
C 12.219221 177.571973 7.2 202.805301 7.2 228.2864 
C 7.2 253.767499 12.219221 279.000827 21.970416 302.542293 
C 31.72161 326.083759 46.015142 347.475542 64.033 365.4934 
C 82.050858 383.511258 103.442641 397.80479 126.984107 407.555984 
C 150.525573 417.307179 175.758901 422.3264 201.24 422.3264 
C 226.721099 422.3264 251.954427 417.307179 275.495893 407.555984 
C 299.037359 397.80479 320.429142 383.511258 338.447 365.4934 
C 356.464858 347.475542 370.75839 326.083759 380.509584 302.542293 
C 390.260779 279.000827 395.28 253.767499 395.28 228.2864 
" style="fill: none; stroke: #000000; stroke-width: 0.8; stroke-linejoin: miter; stroke-linecap: square"/>
   </g>
   <g id="text_11">
    <!-- Exp-3 radar: cross-modal coverage -->
    <g transform="translate(96.129375 19.58954) scale(0.12 -0.12)">
     <defs>
      <path id="DejaVuSans-45" d="M 628 4666 
L 3578 4666 
L 3578 4134 
L 1259 4134 
L 1259 2753 
L 3481 2753 
L 3481 2222 
L 1259 2222 
L 1259 531 
L 3634 531 
L 3634 0 
L 628 0 
L 628 4666 
z
" transform="scale(0.015625)"/>
      <path id="DejaVuSans-78" d="M 3513 3500 
L 2247 1797 
L 3578 0 
L 2900 0 
L 1881 1375 
L 863 0 
L 184 0 
L 1544 1831 
L 300 3500 
L 978 3500 
L 1906 2253 
L 2834 3500 
L 3513 3500 
z
" transform="scale(0.015625)"/>
      <path id="DejaVuSans-2d" d="M 313 2009 
L 1997 2009 
L 1997 1497 
L 313 1497 
L 313 2009 
z
" transform="scale(0.015625)"/>
      <path id="DejaVuSans-33" d="M 2597 2516 
Q 3050 2419 3304 2112 
Q 3559 1806 3559 1356 
Q 3559 666 3084 287 
Q 2609 -91 1734 -91 
Q 1441 -91 1130 -33 
Q 819 25 488 141 
L 488 750 
Q 750 597 1062 519 
Q 1375 441 1716 441 
Q 2309 441 2620 675 
Q 2931 909 2931 1356 
Q 2931 1769 2642 2001 
Q 2353 2234 1838 2234 
L 1294 2234 
L 1294 2753 
L 1863 2753 
Q 2328 2753 2575 2939 
Q 2822 3125 2822 3475 
Q 2822 3834 2567 4026 
Q 2313 4219 1838 4219 
Q 1578 4219 1281 4162 
Q 984 4106 628 3988 
L 628 4550 
Q 988 4650 1302 4700 
Q 1616 4750 1894 4750 
Q 2613 4750 3031 4423 
Q 3450 4097 3450 3541 
Q 3450 3153 3228 2886 
Q 3006 2619 2597 2516 
z
" transform="scale(0.015625)"/>
      <path id="DejaVuSans-20" transform="scale(0.015625)"/>
      <path id="DejaVuSans-64" d="M 2906 2969 
L 2906 4863 
L 3481 4863 
L 3481 0 
L 2906 0 
L 2906 525 
Q 2725 213 2448 61 
Q 2172 -91 1784 -91 
Q 1150 -91 751 415 
Q 353 922 353 1747 
Q 353 2572 751 3078 
Q 1150 3584 1784 3584 
Q 2172 3584 2448 3432 
Q 2725 3281 2906 2969 
z
M 947 1747 
Q 947 1113 1208 752 
Q 1469 391 1925 391 
Q 2381 391 2643 752 
Q 2906 1113 2906 1747 
Q 2906 2381 2643 2742 
Q 2381 3103 1925 3103 
Q 1469 3103 1208 2742 
Q 947 2381 947 1747 
z
" transform="scale(0.015625)"/>
      <path id="DejaVuSans-3a" d="M 750 794 
L 1409 794 
L 1409 0 
L 750 0 
L 750 794 
z
M 750 3309 
L 1409 3309 
L 1409 2516 
L 750 2516 
L 750 3309 
z
" transform="scale(0.015625)"/>
      <path id="DejaVuSans-6f" d="M 1959 3097 
Q 1497 3097 1228 2736 
Q 959 2375 959 1747 
Q 959 1119 1226 758 
Q 1494 397 1959 397 
Q 2419 397 2687 759 
Q 2956 1122 2956 1747 
Q 2956 2369 2687 2733 
Q 2419 3097 1959 3097 
z
M 1959 3584 
Q 2709 3584 3137 3096 
Q 3566 2609 3566 1747 
Q 3566 888 3137 398 
Q 2709 -91 1959 -91 
Q 1206 -91 779 398 
Q 353 888 353 1747 
Q 353 2609 779 3096 
Q 1206 3584 1959 3584 
z
" transform="scale(0.015625)"/>
     </defs>
     <use xlink:href="#DejaVuSans-45"/>
     <use xlink:href="#DejaVuSans-78" x="63.183594"/>
     <use xlink:href="#DejaVuSans-70" x="122.363281"/>
     <use xlink:href="#DejaVuSans-2d" x="185.839844"/>
     <use xlink:href="#DejaVuSans-33" x="221.923828"/>
     <use xlink:href="#DejaVuSans-20" x="285.546875"/>
     <use xlink:href="#DejaVuSans-72" x="317.333984"/>
     <use xlink:href="#DejaVuSans-61" x="358.447266"/>
     <use xlink:href="#DejaVuSans-64" x="419.726562"/>
     <use xlink:href="#DejaVuSans-61" x="483.203125"/>
     <use xlink:href="#DejaVuSans-72" x="544.482422"/>
     <use xlink:href="#DejaVuSans-3a" x="583.845703"/>
     <use xlink:href="#DejaVuSans-20" x="617.537109"/>
     <use xlink:href="#DejaVuSans-63" x="649.324219"/>
     <use xlink:href="#DejaVuSans-72" x="704.304688"/>
     <use xlink:href="#DejaVuSans-6f" x="743.167969"/>
     <use xlink:href="#DejaVuSans-73" x="804.349609"/>
     <use xlink:href="#DejaVuSans-73" x="856.449219"/>
     <use xlink:href="#DejaVuSans-2d" x="908.548828"/>
     <use xlink:href="#DejaVuSans-6d" x="944.632812"/>
     <use xlink:href="#DejaVuSans-6f" x="1042.044922"/>
     <use xlink:href="#DejaVuSans-64" x="1103.226562"/>
     <use xlink:href="#DejaVuSans-61" x="1166.703125"/>
     <use xlink:href="#DejaVuSans-6c" x="1227.982422"/>
     <use xlink:href="#DejaVuSans-20" x="1255.765625"/>
     <use xlink:href="#DejaVuSans-63" x="1287.552734"/>
     <use xlink:href="#DejaVuSans-6f" x="1342.533203"/>
     <use xlink:href="#DejaVuSans-76" x="1403.714844"/>
     <use xlink:href="#DejaVuSans-65" x="1462.894531"/>
     <use xlink:href="#DejaVuSans-72" x="1524.417969"/>
     <use xlink:href="#DejaVuSans-61" x="1565.53125"/>
     <use xlink:href="#DejaVuSans-67" x="1626.810547"/>
     <use xlink:href="#DejaVuSans-65" x="1690.287109"/>
    </g>
   </g>
   <g id="legend_1">
    <g id="line2d_19">
     <path d="M 423.0599 13.67875 
L 431.0599 13.67875 
L 439.0599 13.67875 
" style="fill: none; stroke: #1f77b4; stroke-width: 1.5; stroke-linecap: square"/>
    </g>
    <g id="text_12">
     <!-- LightGBM -->
     <g transform="translate(445.4599 16.47875) scale(0.08 -0.08)">
      <defs>
       <path id="DejaVuSans-4c" d="M 628 4666 
L 1259 4666 
L 1259 531 
L 3531 531 
L 3531 0 
L 628 0 
L 628 4666 
z
" transform="scale(0.015625)"/>
       <path id="DejaVuSans-47" d="M 3809 666 
L 3809 1919 
L 2778 1919 
L 2778 2438 
L 4434 2438 
L 4434 434 
Q 4069 175 3628 42 
Q 3188 -91 2688 -91 
Q 1594 -91 976 548 
Q 359 1188 359 2328 
Q 359 3472 976 4111 
Q 1594 4750 2688 4750 
Q 3144 4750 3555 4637 
Q 3966 4525 4313 4306 
L 4313 3634 
Q 3963 3931 3569 4081 
Q 3175 4231 2741 4231 
Q 1884 4231 1454 3753 
Q 1025 3275 1025 2328 
Q 1025 1384 1454 906 
Q 1884 428 2741 428 
Q 3075 428 3337 486 
Q 3600 544 3809 666 
z
" transform="scale(0.015625)"/>
       <path id="DejaVuSans-42" d="M 1259 2228 
L 1259 519 
L 2272 519 
Q 2781 519 3026 730 
Q 3272 941 3272 1375 
Q 3272 1813 3026 2020 
Q 2781 2228 2272 2228 
L 1259 2228 
z
M 1259 4147 
L 1259 2741 
L 2194 2741 
Q 2656 2741 2882 2914 
Q 3109 3088 3109 3444 
Q 3109 3797 2882 3972 
Q 2656 4147 2194 4147 
L 1259 4147 
z
M 628 4666 
L 2241 4666 
Q 2963 4666 3353 4366 
Q 3744 4066 3744 3513 
Q 3744 3084 3544 2831 
Q 3344 2578 2956 2516 
Q 3422 2416 3680 2098 
Q 3938 1781 3938 1306 
Q 3938 681 3513 340 
Q 3088 0 2303 0 
L 628 0 
L 628 4666 
z
" transform="scale(0.015625)"/>
       <path id="DejaVuSans-4d" d="M 628 4666 
L 1569 4666 
L 2759 1491 
L 3956 4666 
L 4897 4666 
L 4897 0 
L 4281 0 
L 4281 4097 
L 3078 897 
L 2444 897 
L 1241 4097 
L 1241 0 
L 628 0 
L 628 4666 
z
" transform="scale(0.015625)"/>
      </defs>
      <use xlink:href="#DejaVuSans-4c"/>
      <use xlink:href="#DejaVuSans-69" x="55.712891"/>
      <use xlink:href="#DejaVuSans-67" x="83.496094"/>
      <use xlink:href="#DejaVuSans-68" x="146.972656"/>
      <use xlink:href="#DejaVuSans-74" x="210.351562"/>
      <use xlink:href="#DejaVuSans-47" x="249.560547"/>
      <use xlink:href="#DejaVuSans-42" x="327.050781"/>
      <use xlink:href="#DejaVuSans-4d" x="395.654297"/>
     </g>
    </g>
    <g id="line2d_20">
     <path d="M 423.0599 25.42125 
L 431.0599 25.42125 
L 439.0599 25.42125 
" style="fill: none; stroke: #ff7f0e; stroke-width: 1.5; stroke-linecap: square"/>
    </g>
    <g id="text_13">
     <!-- RF -->
     <g transform="translate(445.4599 28.22125) scale(0.08 -0.08)">
      <defs>
       <path id="DejaVuSans-52" d="M 2841 2188 
Q 3044 2119 3236 1894 
Q 3428 1669 3622 1275 
L 4263 0 
L 3584 0 
L 2988 1197 
Q 2756 1666 2539 1819 
Q 2322 1972 1947 1972 
L 1259 1972 
L 1259 0 
L 628 0 
L 628 4666 
L 2053 4666 
Q 2853 4666 3247 4331 
Q 3641 3997 3641 3322 
Q 3641 2881 3436 2590 
Q 3231 2300 2841 2188 
z
M 1259 4147 
L 1259 2491 
L 2053 2491 
Q 2509 2491 2742 2702 
Q 2975 2913 2975 3322 
Q 2975 3731 2742 3939 
Q 2509 4147 2053 4147 
L 1259 4147 
z
" transform="scale(0.015625)"/>
       <path id="DejaVuSans-46" d="M 628 4666 
L 3309 4666 
L 3309 4134 
L 1259 4134 
L 1259 2759 
L 3109 2759 
L 3109 2228 
L 1259 2228 
L 1259 0 
L 628 0 
L 628 4666 
z
" transform="scale(0.015625)"/>
      </defs>
      <use xlink:href="#DejaVuSans-52"/>
      <use xlink:href="#DejaVuSans-46" x="69.482422"/>
     </g>
    </g>
    <g id="line2d_21">
     <path d="M 423.0599 37.16375 
L 431.0599 37.16375 
L 439.0599 37.16375 
" style="fill: none; stroke: #2ca02c; stroke-width: 1.5; stroke-linecap: square"/>
    </g>
    <g id="text_14">
     <!-- XGBoost -->
     <g transform="translate(445.4599 39.96375) scale(0.08 -0.08)">
      <defs>
       <path id="DejaVuSans-58" d="M 403 4666 
L 1081 4666 
L 2241 2931 
L 3406 4666 
L 4084 4666 
L 2584 2425 
L 4184 0 
L 3506 0 
L 2194 1984 
L 872 0 
L 191 0 
L 1856 2491 
L 403 4666 
z
" transform="scale(0.015625)"/>
      </defs>
      <use xlink:href="#DejaVuSans-58"/>
      <use xlink:href="#DejaVuSans-47" x="68.505859"/>
      <use xlink:href="#DejaVuSans-42" x="145.996094"/>
      <use xlink:href="#DejaVuSans-6f" x="214.599609"/>
      <use xlink:href="#DejaVuSans-6f" x="275.78125"/>
      <use xlink:href="#DejaVuSans-73" x="336.962891"/>
      <use xlink:href="#DejaVuSans-74" x="389.0625"/>
     </g>
    </g>
    <g id="line2d_22">
     <path d="M 423.0599 48.90625 
L 431.0599 48.90625 
L 439.0599 48.90625 
" style="fill: none; stroke: #d62728; stroke-width: 1.5; stroke-linecap: square"/>
    </g>
    <g id="text_15">
     <!-- MLP -->
     <g transform="translate(445.4599 51.70625) scale(0.08 -0.08)">
      <defs>
       <path id="DejaVuSans-50" d="M 1259 4147 
L 1259 2394 
L 2053 2394 
Q 2494 2394 2734 2622 
Q 2975 2850 2975 3272 
Q 2975 3691 2734 3919 
Q 2494 4147 2053 4147 
L 1259 4147 
z
M 628 4666 
L 2053 4666 
Q 2838 4666 3239 4311 
Q 3641 3956 3641 3272 
Q 3641 2581 3239 2228 
Q 2838 1875 2053 1875 
L 1259 1875 
L 1259 0 
L 628 0 
L 628 4666 
z
" transform="scale(0.015625)"/>
      </defs>
      <use xlink:href="#DejaVuSans-4d"/>
      <use xlink:href="#DejaVuSans-4c" x="86.279297"/>
      <use xlink:href="#DejaVuSans-50" x="141.992188"/>
     </g>
    </g>
    <g id="line2d_23">
     <path d="M 423.0599 60.64875 
L 431.0599 60.64875 
L 439.0599 60.64875 
" style="fill: none; stroke: #9467bd; stroke-width: 1.5; stroke-linecap: square"/>
    </g>
    <g id="text_16">
     <!-- LR -->
     <g transform="translate(445.4599 63.44875) scale(0.08 -0.08)">
      <use xlink:href="#DejaVuSans-4c"/>
      <use xlink:href="#DejaVuSans-52" x="55.712891"/>
     </g>
    </g>
    <g id="line2d_24">
     <path d="M 423.0599 72.39125 
L 431.0599 72.39125 
L 439.0599 72.39125 
" style="fill: none; stroke: #8c564b; stroke-width: 1.5; stroke-linecap: square"/>
    </g>
    <g id="text_17">
     <!-- TabPFN -->
     <g transform="translate(445.4599 75.19125) scale(0.08 -0.08)">
      <defs>
       <path id="DejaVuSans-54" d="M -19 4666 
L 3928 4666 
L 3928 4134 
L 2272 4134 
L 2272 0 
L 1638 0 
L 1638 4134 
L -19 4134 
L -19 4666 
z
" transform="scale(0.015625)"/>
       <path id="DejaVuSans-4e" d="M 628 4666 
L 1478 4666 
L 3547 763 
L 3547 4666 
L 4159 4666 
L 4159 0 
L 3309 0 
L 1241 3903 
L 1241 0 
L 628 0 
L 628 4666 
z
" transform="scale(0.015625)"/>
      </defs>
      <use xlink:href="#DejaVuSans-54"/>
      <use xlink:href="#DejaVuSans-61" x="44.583984"/>
      <use xlink:href="#DejaVuSans-62" x="105.863281"/>
      <use xlink:href="#DejaVuSans-50" x="169.339844"/>
      <use xlink:href="#DejaVuSans-46" x="229.642578"/>
      <use xlink:href="#DejaVuSans-4e" x="287.162109"/>
     </g>
    </g>
    <g id="line2d_25">
     <path d="M 423.0599 84.13375 
L 431.0599 84.13375 
L 439.0599 84.13375 
" style="fill: none; stroke: #e377c2; stroke-width: 1.5; stroke-linecap: square"/>
    </g>
    <g id="text_18">
     <!-- AutoEncoder -->
     <g transform="translate(445.4599 86.93375) scale(0.08 -0.08)">
      <defs>
       <path id="DejaVuSans-41" d="M 2188 4044 
L 1331 1722 
L 3047 1722 
L 2188 4044 
z
M 1831 4666 
L 2547 4666 
L 4325 0 
L 3669 0 
L 3244 1197 
L 1141 1197 
L 716 0 
L 50 0 
L 1831 4666 
z
" transform="scale(0.015625)"/>
      </defs>
      <use xlink:href="#DejaVuSans-41"/>
      <use xlink:href="#DejaVuSans-75" x="68.408203"/>
      <use xlink:href="#DejaVuSans-74" x="131.787109"/>
      <use xlink:href="#DejaVuSans-6f" x="170.996094"/>
      <use xlink:href="#DejaVuSans-45" x="232.177734"/>
      <use xlink:href="#DejaVuSans-6e" x="295.361328"/>
      <use xlink:href="#DejaVuSans-63" x="358.740234"/>
      <use xlink:href="#DejaVuSans-6f" x="413.720703"/>
      <use xlink:href="#DejaVuSans-64" x="474.902344"/>
      <use xlink:href="#DejaVuSans-65" x="538.378906"/>
      <use xlink:href="#DejaVuSans-72" x="599.902344"/>
     </g>
    </g>
    <g id="line2d_26">
     <path d="M 423.0599 95.87625 
L 431.0599 95.87625 
L 439.0599 95.87625 
" style="fill: none; stroke: #7f7f7f; stroke-width: 1.5; stroke-linecap: square"/>
    </g>
    <g id="text_19">
     <!-- OCSVM -->
     <g transform="translate(445.4599 98.67625) scale(0.08 -0.08)">
      <defs>
       <path id="DejaVuSans-4f" d="M 2522 4238 
Q 1834 4238 1429 3725 
Q 1025 3213 1025 2328 
Q 1025 1447 1429 934 
Q 1834 422 2522 422 
Q 3209 422 3611 934 
Q 4013 1447 4013 2328 
Q 4013 3213 3611 3725 
Q 3209 4238 2522 4238 
z
M 2522 4750 
Q 3503 4750 4090 4092 
Q 4678 3434 4678 2328 
Q 4678 1225 4090 567 
Q 3503 -91 2522 -91 
Q 1538 -91 948 565 
Q 359 1222 359 2328 
Q 359 3434 948 4092 
Q 1538 4750 2522 4750 
z
" transform="scale(0.015625)"/>
       <path id="DejaVuSans-43" d="M 4122 4306 
L 4122 3641 
Q 3803 3938 3442 4084 
Q 3081 4231 2675 4231 
Q 1875 4231 1450 3742 
Q 1025 3253 1025 2328 
Q 1025 1406 1450 917 
Q 1875 428 2675 428 
Q 3081 428 3442 575 
Q 3803 722 4122 1019 
L 4122 359 
Q 3791 134 3420 21 
Q 3050 -91 2638 -91 
Q 1578 -91 968 557 
Q 359 1206 359 2328 
Q 359 3453 968 4101 
Q 1578 4750 2638 4750 
Q 3056 4750 3426 4639 
Q 3797 4528 4122 4306 
z
" transform="scale(0.015625)"/>
       <path id="DejaVuSans-53" d="M 3425 4513 
L 3425 3897 
Q 3066 4069 2747 4153 
Q 2428 4238 2131 4238 
Q 1616 4238 1336 4038 
Q 1056 3838 1056 3469 
Q 1056 3159 1242 3001 
Q 1428 2844 1947 2747 
L 2328 2669 
Q 3034 2534 3370 2195 
Q 3706 1856 3706 1288 
Q 3706 609 3251 259 
Q 2797 -91 1919 -91 
Q 1588 -91 1214 -16 
Q 841 59 441 206 
L 441 856 
Q 825 641 1194 531 
Q 1563 422 1919 422 
Q 2459 422 2753 634 
Q 3047 847 3047 1241 
Q 3047 1584 2836 1778 
Q 2625 1972 2144 2069 
L 1759 2144 
Q 1053 2284 737 2584 
Q 422 2884 422 3419 
Q 422 4038 858 4394 
Q 1294 4750 2059 4750 
Q 2388 4750 2728 4690 
Q 3069 4631 3425 4513 
z
" transform="scale(0.015625)"/>
       <path id="DejaVuSans-56" d="M 1831 0 
L 50 4666 
L 709 4666 
L 2188 738 
L 3669 4666 
L 4325 4666 
L 2547 0 
L 1831 0 
z
" transform="scale(0.015625)"/>
      </defs>
      <use xlink:href="#DejaVuSans-4f"/>
      <use xlink:href="#DejaVuSans-43" x="78.710938"/>
      <use xlink:href="#DejaVuSans-53" x="148.535156"/>
      <use xlink:href="#DejaVuSans-56" x="212.011719"/>
      <use xlink:href="#DejaVuSans-4d" x="280.419922"/>
     </g>
    </g>
   </g>
  </g>
 </g>
 <defs>
  <clipPath id="pd53ac2751f">
   <path d="M 395.28 228.2864 
C 395.28 202.805301 390.260779 177.571973 380.509584 154.030507 
C 370.75839 130.489041 356.464858 109.097258 338.447 91.0794 
C 320.429142 73.061542 299.037359 58.76801 275.495893 49.016816 
C 251.954427 39.265621 226.721099 34.2464 201.24 34.2464 
C 175.758901 34.2464 150.525573 39.265621 126.984107 49.016816 
C 103.442641 58.76801 82.050858 73.061542 64.033 91.0794 
C 46.015142 109.097258 31.72161 130.489041 21.970416 154.030507 
C 12.219221 177.571973 7.2 202.805301 7.2 228.2864 
C 7.2 253.767499 12.219221 279.000827 21.970416 302.542293 
C 31.72161 326.083759 46.015142 347.475542 64.033 365.4934 
C 82.050858 383.511258 103.442641 397.80479 126.984107 407.555984 
C 150.525573 417.307179 175.758901 422.3264 201.24 422.3264 
C 226.721099 422.3264 251.954427 417.307179 275.495893 407.555984 
C 299.037359 397.80479 320.429142 383.511258 338.447 365.4934 
C 356.464858 347.475542 370.75839 326.083759 380.509584 302.542293 
C 390.260779 279.000827 395.28 253.767499 395.28 228.2864 
M 201.24 228.2864 
C 201.24 228.2864 201.24 228.2864 201.24 228.2864 
C 201.24 228.2864 201.24 228.2864 201.24 228.2864 
C 201.24 228.2864 201.24 228.2864 201.24 228.2864 
C 201.24 228.2864 201.24 228.2864 201.24 228.2864 
C 201.24 228.2864 201.24 228.2864 201.24 228.2864 
C 201.24 228.2864 201.24 228.2864 201.24 228.2864 
C 201.24 228.2864 201.24 228.2864 201.24 228.2864 
C 201.24 228.2864 201.24 228.2864 201.24 228.2864 
C 201.24 228.2864 201.24 228.2864 201.24 228.2864 
C 201.24 228.2864 201.24 228.2864 201.24 228.2864 
C 201.24 228.2864 201.24 228.2864 201.24 228.2864 
C 201.24 228.2864 201.24 228.2864 201.24 228.2864 
C 201.24 228.2864 201.24 228.2864 201.24 228.2864 
C 201.24 228.2864 201.24 228.2864 201.24 228.2864 
C 201.24 228.2864 201.24 228.2864 201.24 228.2864 
C 201.24 228.2864 201.24 228.2864 201.24 228.2864 
z
"/>
  </clipPath>
 </defs>
</svg>
