<?xml version="1.0" encoding="utf-8" standalone="no"?>
<!DOCTYPE svg PUBLIC "-//W3C//DTD SVG 1.1//EN"
  "http://www.w3.org/Graphics/SVG/1.1/DTD/svg11.dtd">
<svg xmlns:xlink="http://www.w3.org/1999/xlink" width="497.38125pt" height="364.794375pt" viewBox="0 0 497.38125 364.794375" xmlns="http://www.w3.org/2000/svg" version="1.1">
 <metadata>
  <rdf:RDF xmlns:dc="http://purl.org/dc/elements/1.1/" xmlns:cc="http://creativecommons.org/ns#" xmlns:rdf="http://www.w3.org/1999/02/22-rdf-syntax-ns#">
   <cc:Work>
    <dc:type rdf:resource="http://purl.org/dc/dcmitype/StillImage"/>
    <dc:date>2026-06-04T22:08:03.162363</dc:date>
    <dc:format>image/svg+xml</dc:format>
    <dc:creator>
     <cc:Agent>
      <dc:title>Matplotlib v3.9.2, https://matplotlib.org/</dc:title>
     </cc:Agent>
    </dc:creator>
   </cc:Work>
  </rdf:RDF>
 </metadata>
 <defs>
  <style type="text/css">*{stroke-linejoin: round; stroke-linecap: butt}</style>
 </defs>
 <g id="figure_1">
  <g id="patch_1">
   <path d="M 0 364.794375 
L 497.38125 364.794375 
L 497.38125 0 
L 0 0 
z
" style="fill: #ffffff"/>
  </g>
  <g id="axes_1">
   <g id="patch_2">
    <path d="M 43.78125 327.238125 
L 490.18125 327.238125 
L 490.18125 22.318125 
L 43.78125 22.318125 
z
" style="fill: #ffffff"/>
   </g>
   <g id="PathCollection_1">
    <path d="M 203.652518 39.81818 
C 204.617872 39.81818 205.543817 39.434641 206.226425 38.752033 
C 206.909034 38.069424 207.292573 37.143479 207.292573 36.178125 
C 207.292573 35.212771 206.909034 34.286826 206.226425 33.604217 
C 205.543817 32.921609 204.617872 32.53807 203.652518 32.53807 
C 202.687164 32.53807 201.761219 32.921609 201.07861 33.604217 
C 200.396002 34.286826 200.012463 35.212771 200.012463 36.178125 
C 200.012463 37.143479 200.396002 38.069424 201.07861 38.752033 
C 201.761219 39.434641 202.687164 39.81818 203.652518 39.81818 
z
" clip-path="url(#p3ac9027248)" style="fill: #f58518; fill-opacity: 0.72; stroke: #000000; stroke-opacity: 0.72; stroke-width: 0.4"/>
    <path d="M 212.287503 51.251009 
C 213.252857 51.251009 214.178802 50.86747 214.861411 50.184862 
C 215.544019 49.502253 215.927558 48.576308 215.927558 47.610954 
C 215.927558 46.6456 215.544019 45.719655 214.861411 45.037046 
C 214.178802 44.354438 213.252857 43.970899 212.287503 43.970899 
C 211.322149 43.970899 210.396204 44.354438 209.713595 45.037046 
C 209.030987 45.719655 208.647448 46.6456 208.647448 47.610954 
C 208.647448 48.576308 209.030987 49.502253 209.713595 50.184862 
C 210.396204 50.86747 211.322149 51.251009 212.287503 51.251009 
z
" clip-path="url(#p3ac9027248)" style="fill: #f58518; fill-opacity: 0.72; stroke: #000000; stroke-opacity: 0.72; stroke-width: 0.4"/>
    <path d="M 172.580882 55.910604 
C 174.525202 55.910604 176.39015 55.138117 177.764992 53.763275 
C 179.139835 52.388433 179.912321 50.523485 179.912321 48.579165 
C 179.912321 46.634844 179.139835 44.769896 177.764992 43.395054 
C 176.39015 42.020212 174.525202 41.247726 172.580882 41.247726 
C 170.636562 41.247726 168.771614 42.020212 167.396772 43.395054 
C 166.02193 44.769896 165.249443 46.634844 165.249443 48.579165 
C 165.249443 50.523485 166.02193 52.388433 167.396772 53.763275 
C 168.771614 55.138117 170.636562 55.910604 172.580882 55.910604 
z
" clip-path="url(#p3ac9027248)" style="fill: #f58518; fill-opacity: 0.72; stroke: #000000; stroke-opacity: 0.72; stroke-width: 0.4"/>
    <path d="M 167.877577 55.953239 
C 169.821897 55.953239 171.686845 55.180752 173.061687 53.80591 
C 174.436529 52.431068 175.209016 50.56612 175.209016 48.6218 
C 175.209016 46.677479 174.436529 44.812532 173.061687 43.437689 
C 171.686845 42.062847 169.821897 41.290361 167.877577 41.290361 
C 165.933256 41.290361 164.068308 42.062847 162.693466 43.437689 
C 161.318624 44.812532 160.546137 46.677479 160.546137 48.6218 
C 160.546137 50.56612 161.318624 52.431068 162.693466 53.80591 
C 164.068308 55.180752 165.933256 55.953239 167.877577 55.953239 
z
" clip-path="url(#p3ac9027248)" style="fill: #f58518; fill-opacity: 0.72; stroke: #000000; stroke-opacity: 0.72; stroke-width: 0.4"/>
    <path d="M 80.900645 56.505556 
C 81.865999 56.505556 82.791944 56.122017 83.474553 55.439409 
C 84.157161 54.7568 84.5407 53.830855 84.5407 52.865501 
C 84.5407 51.900147 84.157161 50.974202 83.474553 50.291594 
C 82.791944 49.608985 81.865999 49.225446 80.900645 49.225446 
C 79.935291 49.225446 79.009346 49.608985 78.326737 50.291594 
C 77.644129 50.974202 77.26059 51.900147 77.26059 52.865501 
C 77.26059 53.830855 77.644129 54.7568 78.326737 55.439409 
C 79.009346 56.122017 79.935291 56.505556 80.900645 56.505556 
z
" clip-path="url(#p3ac9027248)" style="fill: #f58518; fill-opacity: 0.72; stroke: #000000; stroke-opacity: 0.72; stroke-width: 0.4"/>
    <path d="M 140.633599 62.952162 
C 142.577919 62.952162 144.442867 62.179676 145.817709 60.804833 
C 147.192551 59.429991 147.965038 57.565043 147.965038 55.620723 
C 147.965038 53.676403 147.192551 51.811455 145.817709 50.436613 
C 144.442867 49.061771 142.577919 48.289284 140.633599 48.289284 
C 138.689278 48.289284 136.82433 49.061771 135.449488 50.436613 
C 134.074646 51.811455 133.302159 53.676403 133.302159 55.620723 
C 133.302159 57.565043 134.074646 59.429991 135.449488 60.804833 
C 136.82433 62.179676 138.689278 62.952162 140.633599 62.952162 
z
" clip-path="url(#p3ac9027248)" style="fill: #f58518; fill-opacity: 0.72; stroke: #000000; stroke-opacity: 0.72; stroke-width: 0.4"/>
    <path d="M 169.110482 72.724716 
C 170.799678 72.724716 172.419916 72.053591 173.614358 70.859149 
C 174.8088 69.664707 175.479925 68.044469 175.479925 66.355273 
C 175.479925 64.666077 174.8088 63.045838 173.614358 61.851396 
C 172.419916 60.656954 170.799678 59.98583 169.110482 59.98583 
C 167.421286 59.98583 165.801047 60.656954 164.606605 61.851396 
C 163.412163 63.045838 162.741039 64.666077 162.741039 66.355273 
C 162.741039 68.044469 163.412163 69.664707 164.606605 70.859149 
C 165.801047 72.053591 167.421286 72.724716 169.110482 72.724716 
z
" clip-path="url(#p3ac9027248)" style="fill: #f58518; fill-opacity: 0.72; stroke: #000000; stroke-opacity: 0.72; stroke-width: 0.4"/>
    <path d="M 165.740238 79.400422 
C 167.684559 79.400422 169.549506 78.627935 170.924348 77.253093 
C 172.299191 75.878251 173.071677 74.013303 173.071677 72.068983 
C 173.071677 70.124662 172.299191 68.259715 170.924348 66.884872 
C 169.549506 65.51003 167.684559 64.737544 165.740238 64.737544 
C 163.795918 64.737544 161.93097 65.51003 160.556128 66.884872 
C 159.181286 68.259715 158.408799 70.124662 158.408799 72.068983 
C 158.408799 74.013303 159.181286 75.878251 160.556128 77.253093 
C 161.93097 78.627935 163.795918 79.400422 165.740238 79.400422 
z
" clip-path="url(#p3ac9027248)" style="fill: #f58518; fill-opacity: 0.72; stroke: #000000; stroke-opacity: 0.72; stroke-width: 0.4"/>
    <path d="M 170.002724 83.324317 
C 171.947045 83.324317 173.811992 82.55183 175.186835 81.176988 
C 176.561677 79.802146 177.334163 77.937198 177.334163 75.992878 
C 177.334163 74.048558 176.561677 72.18361 175.186835 70.808768 
C 173.811992 69.433925 171.947045 68.661439 170.002724 68.661439 
C 168.058404 68.661439 166.193456 69.433925 164.818614 70.808768 
C 163.443772 72.18361 162.671285 74.048558 162.671285 75.992878 
C 162.671285 77.937198 163.443772 79.802146 164.818614 81.176988 
C 166.193456 82.55183 168.058404 83.324317 170.002724 83.324317 
z
" clip-path="url(#p3ac9027248)" style="fill: #f58518; fill-opacity: 0.72; stroke: #000000; stroke-opacity: 0.72; stroke-width: 0.4"/>
    <path d="M 287.295205 126.912519 
C 292.090529 126.912519 296.690095 125.007316 300.080901 121.61651 
C 303.471707 118.225704 305.37691 113.626138 305.37691 108.830814 
C 305.37691 104.03549 303.471707 99.435924 300.080901 96.045118 
C 296.690095 92.654311 292.090529 90.749109 287.295205 90.749109 
C 282.499881 90.749109 277.900315 92.654311 274.509509 96.045118 
C 271.118702 99.435924 269.2135 104.03549 269.2135 108.830814 
C 269.2135 113.626138 271.118702 118.225704 274.509509 121.61651 
C 277.900315 125.007316 282.499881 126.912519 287.295205 126.912519 
z
" clip-path="url(#p3ac9027248)" style="fill: #4c78a8; fill-opacity: 0.72; stroke: #000000; stroke-opacity: 0.72; stroke-width: 0.4"/>
    <path d="M 115.712826 140.083317 
C 117.402022 140.083317 119.02226 139.412193 120.216702 138.217751 
C 121.411144 137.023309 122.082269 135.40307 122.082269 133.713874 
C 122.082269 132.024678 121.411144 130.40444 120.216702 129.209998 
C 119.02226 128.015556 117.402022 127.344431 115.712826 127.344431 
C 114.02363 127.344431 112.403391 128.015556 111.208949 129.209998 
C 110.014507 130.40444 109.343383 132.024678 109.343383 133.713874 
C 109.343383 135.40307 110.014507 137.023309 111.208949 138.217751 
C 112.403391 139.412193 114.02363 140.083317 115.712826 140.083317 
z
" clip-path="url(#p3ac9027248)" style="fill: #4c78a8; fill-opacity: 0.72; stroke: #000000; stroke-opacity: 0.72; stroke-width: 0.4"/>
    <path d="M 320.152038 141.698849 
C 322.096358 141.698849 323.961306 140.926362 325.336148 139.55152 
C 326.71099 138.176678 327.483477 136.31173 327.483477 134.36741 
C 327.483477 132.42309 326.71099 130.558142 325.336148 129.1833 
C 323.961306 127.808457 322.096358 127.035971 320.152038 127.035971 
C 318.207718 127.035971 316.34277 127.808457 314.967928 129.1833 
C 313.593086 130.558142 312.820599 132.42309 312.820599 134.36741 
C 312.820599 136.31173 313.593086 138.176678 314.967928 139.55152 
C 316.34277 140.926362 318.207718 141.698849 320.152038 141.698849 
z
" clip-path="url(#p3ac9027248)" style="fill: #4c78a8; fill-opacity: 0.72; stroke: #000000; stroke-opacity: 0.72; stroke-width: 0.4"/>
    <path d="M 159.060258 147.022372 
C 160.025612 147.022372 160.951557 146.638833 161.634165 145.956224 
C 162.316774 145.273616 162.700313 144.347671 162.700313 143.382317 
C 162.700313 142.416963 162.316774 141.491018 161.634165 140.808409 
C 160.951557 140.125801 160.025612 139.742262 159.060258 139.742262 
C 158.094904 139.742262 157.168958 140.125801 156.48635 140.808409 
C 155.803742 141.491018 155.420203 142.416963 155.420203 143.382317 
C 155.420203 144.347671 155.803742 145.273616 156.48635 145.956224 
C 157.168958 146.638833 158.094904 147.022372 159.060258 147.022372 
z
" clip-path="url(#p3ac9027248)" style="fill: #4c78a8; fill-opacity: 0.72; stroke: #000000; stroke-opacity: 0.72; stroke-width: 0.4"/>
    <path d="M 159.312656 147.034047 
C 160.27801 147.034047 161.203956 146.650508 161.886564 145.967899 
C 162.569172 145.285291 162.952711 144.359346 162.952711 143.393992 
C 162.952711 142.428638 162.569172 141.502693 161.886564 140.820084 
C 161.203956 140.137476 160.27801 139.753937 159.312656 139.753937 
C 158.347303 139.753937 157.421357 140.137476 156.738749 140.820084 
C 156.056141 141.502693 155.672602 142.428638 155.672602 143.393992 
C 155.672602 144.359346 156.056141 145.285291 156.738749 145.967899 
C 157.421357 146.650508 158.347303 147.034047 159.312656 147.034047 
z
" clip-path="url(#p3ac9027248)" style="fill: #4c78a8; fill-opacity: 0.72; stroke: #000000; stroke-opacity: 0.72; stroke-width: 0.4"/>
    <path d="M 101.583631 148.414483 
C 102.548985 148.414483 103.47493 148.030944 104.157539 147.348335 
C 104.840147 146.665727 105.223686 145.739782 105.223686 144.774428 
C 105.223686 143.809074 104.840147 142.883129 104.157539 142.20052 
C 103.47493 141.517912 102.548985 141.134373 101.583631 141.134373 
C 100.618277 141.134373 99.692332 141.517912 99.009723 142.20052 
C 98.327115 142.883129 97.943576 143.809074 97.943576 144.774428 
C 97.943576 145.739782 98.327115 146.665727 99.009723 147.348335 
C 99.692332 148.030944 100.618277 148.414483 101.583631 148.414483 
z
" clip-path="url(#p3ac9027248)" style="fill: #4c78a8; fill-opacity: 0.72; stroke: #000000; stroke-opacity: 0.72; stroke-width: 0.4"/>
    <path d="M 313.092322 164.232861 
C 318.184981 164.232861 323.069744 162.209526 326.670797 158.608472 
C 330.271851 155.007419 332.295186 150.122656 332.295186 145.029997 
C 332.295186 139.937338 330.271851 135.052575 326.670797 131.451521 
C 323.069744 127.850467 318.184981 125.827132 313.092322 125.827132 
C 307.999663 125.827132 303.1149 127.850467 299.513846 131.451521 
C 295.912792 135.052575 293.889457 139.937338 293.889457 145.029997 
C 293.889457 150.122656 295.912792 155.007419 299.513846 158.608472 
C 303.1149 162.209526 307.999663 164.232861 313.092322 164.232861 
z
" clip-path="url(#p3ac9027248)" style="fill: #4c78a8; fill-opacity: 0.72; stroke: #000000; stroke-opacity: 0.72; stroke-width: 0.4"/>
    <path d="M 259.762055 155.239327 
C 261.706375 155.239327 263.571323 154.466841 264.946165 153.091999 
C 266.321007 151.717156 267.093494 149.852209 267.093494 147.907888 
C 267.093494 145.963568 266.321007 144.09862 264.946165 142.723778 
C 263.571323 141.348936 261.706375 140.576449 259.762055 140.576449 
C 257.817735 140.576449 255.952787 141.348936 254.577945 142.723778 
C 253.203103 144.09862 252.430616 145.963568 252.430616 147.907888 
C 252.430616 149.852209 253.203103 151.717156 254.577945 153.091999 
C 255.952787 154.466841 257.817735 155.239327 259.762055 155.239327 
z
" clip-path="url(#p3ac9027248)" style="fill: #4c78a8; fill-opacity: 0.72; stroke: #000000; stroke-opacity: 0.72; stroke-width: 0.4"/>
    <path d="M 64.072159 154.706137 
C 65.037513 154.706137 65.963458 154.322598 66.646067 153.63999 
C 67.328675 152.957381 67.712214 152.031436 67.712214 151.066082 
C 67.712214 150.100728 67.328675 149.174783 66.646067 148.492175 
C 65.963458 147.809566 65.037513 147.426027 64.072159 147.426027 
C 63.106805 147.426027 62.18086 147.809566 61.498252 148.492175 
C 60.815643 149.174783 60.432104 150.100728 60.432104 151.066082 
C 60.432104 152.031436 60.815643 152.957381 61.498252 153.63999 
C 62.18086 154.322598 63.106805 154.706137 64.072159 154.706137 
z
" clip-path="url(#p3ac9027248)" style="fill: #4c78a8; fill-opacity: 0.72; stroke: #000000; stroke-opacity: 0.72; stroke-width: 0.4"/>
    <path d="M 161.647387 157.378539 
C 162.612741 157.378539 163.538686 156.995 164.221294 156.312392 
C 164.903903 155.629783 165.287442 154.703838 165.287442 153.738484 
C 165.287442 152.77313 164.903903 151.847185 164.221294 151.164577 
C 163.538686 150.481968 162.612741 150.098429 161.647387 150.098429 
C 160.682033 150.098429 159.756088 150.481968 159.073479 151.164577 
C 158.390871 151.847185 158.007332 152.77313 158.007332 153.738484 
C 158.007332 154.703838 158.390871 155.629783 159.073479 156.312392 
C 159.756088 156.995 160.682033 157.378539 161.647387 157.378539 
z
" clip-path="url(#p3ac9027248)" style="fill: #4c78a8; fill-opacity: 0.72; stroke: #000000; stroke-opacity: 0.72; stroke-width: 0.4"/>
    <path d="M 302.7166 177.962023 
C 307.809259 177.962023 312.694022 175.938688 316.295075 172.337634 
C 319.896129 168.73658 321.919464 163.851817 321.919464 158.759158 
C 321.919464 153.666499 319.896129 148.781736 316.295075 145.180683 
C 312.694022 141.579629 307.809259 139.556294 302.7166 139.556294 
C 297.623941 139.556294 292.739178 141.579629 289.138124 145.180683 
C 285.53707 148.781736 283.513735 153.666499 283.513735 158.759158 
C 283.513735 163.851817 285.53707 168.73658 289.138124 172.337634 
C 292.739178 175.938688 297.623941 177.962023 302.7166 177.962023 
z
" clip-path="url(#p3ac9027248)" style="fill: #f58518; fill-opacity: 0.72; stroke: #000000; stroke-opacity: 0.72; stroke-width: 0.4"/>
    <path d="M 106.218084 201.363128 
C 107.183438 201.363128 108.109383 200.979588 108.791991 200.29698 
C 109.4746 199.614372 109.858139 198.688426 109.858139 197.723073 
C 109.858139 196.757719 109.4746 195.831773 108.791991 195.149165 
C 108.109383 194.466557 107.183438 194.083018 106.218084 194.083018 
C 105.25273 194.083018 104.326784 194.466557 103.644176 195.149165 
C 102.961568 195.831773 102.578029 196.757719 102.578029 197.723073 
C 102.578029 198.688426 102.961568 199.614372 103.644176 200.29698 
C 104.326784 200.979588 105.25273 201.363128 106.218084 201.363128 
z
" clip-path="url(#p3ac9027248)" style="fill: #4c78a8; fill-opacity: 0.72; stroke: #000000; stroke-opacity: 0.72; stroke-width: 0.4"/>
    <path d="M 333.378725 204.521667 
C 334.344078 204.521667 335.270024 204.138128 335.952632 203.45552 
C 336.63524 202.772912 337.01878 201.846966 337.01878 200.881612 
C 337.01878 199.916258 336.63524 198.990313 335.952632 198.307705 
C 335.270024 197.625097 334.344078 197.241557 333.378725 197.241557 
C 332.413371 197.241557 331.487425 197.625097 330.804817 198.307705 
C 330.122209 198.990313 329.73867 199.916258 329.73867 200.881612 
C 329.73867 201.846966 330.122209 202.772912 330.804817 203.45552 
C 331.487425 204.138128 332.413371 204.521667 333.378725 204.521667 
z
" clip-path="url(#p3ac9027248)" style="fill: #4c78a8; fill-opacity: 0.72; stroke: #000000; stroke-opacity: 0.72; stroke-width: 0.4"/>
    <path d="M 358.515877 223.411814 
C 359.481231 223.411814 360.407177 223.028275 361.089785 222.345667 
C 361.772393 221.663059 362.155932 220.737113 362.155932 219.771759 
C 362.155932 218.806406 361.772393 217.88046 361.089785 217.197852 
C 360.407177 216.515244 359.481231 216.131705 358.515877 216.131705 
C 357.550523 216.131705 356.624578 216.515244 355.94197 217.197852 
C 355.259362 217.88046 354.875822 218.806406 354.875822 219.771759 
C 354.875822 220.737113 355.259362 221.663059 355.94197 222.345667 
C 356.624578 223.028275 357.550523 223.411814 358.515877 223.411814 
z
" clip-path="url(#p3ac9027248)" style="fill: #4c78a8; fill-opacity: 0.72; stroke: #000000; stroke-opacity: 0.72; stroke-width: 0.4"/>
    <path d="M 469.890341 242.778075 
C 471.834661 242.778075 473.699609 242.005588 475.074451 240.630746 
C 476.449293 239.255904 477.22178 237.390956 477.22178 235.446635 
C 477.22178 233.502315 476.449293 231.637367 475.074451 230.262525 
C 473.699609 228.887683 471.834661 228.115196 469.890341 228.115196 
C 467.946021 228.115196 466.081073 228.887683 464.706231 230.262525 
C 463.331388 231.637367 462.558902 233.502315 462.558902 235.446635 
C 462.558902 237.390956 463.331388 239.255904 464.706231 240.630746 
C 466.081073 242.005588 467.946021 242.778075 469.890341 242.778075 
z
" clip-path="url(#p3ac9027248)" style="fill: #4c78a8; fill-opacity: 0.72; stroke: #000000; stroke-opacity: 0.72; stroke-width: 0.4"/>
    <path d="M 290.58805 274.138363 
C 292.53237 274.138363 294.397318 273.365876 295.77216 271.991034 
C 297.147002 270.616192 297.919489 268.751244 297.919489 266.806923 
C 297.919489 264.862603 297.147002 262.997655 295.77216 261.622813 
C 294.397318 260.247971 292.53237 259.475484 290.58805 259.475484 
C 288.643729 259.475484 286.778781 260.247971 285.403939 261.622813 
C 284.029097 262.997655 283.25661 264.862603 283.25661 266.806923 
C 283.25661 268.751244 284.029097 270.616192 285.403939 271.991034 
C 286.778781 273.365876 288.643729 274.138363 290.58805 274.138363 
z
" clip-path="url(#p3ac9027248)" style="fill: #4c78a8; fill-opacity: 0.72; stroke: #000000; stroke-opacity: 0.72; stroke-width: 0.4"/>
    <path d="M 430.043957 320.709564 
C 431.988277 320.709564 433.853225 319.937077 435.228067 318.562235 
C 436.602909 317.187393 437.375396 315.322445 437.375396 313.378125 
C 437.375396 311.433805 436.602909 309.568857 435.228067 308.194015 
C 433.853225 306.819173 431.988277 306.046686 430.043957 306.046686 
C 428.099636 306.046686 426.234689 306.819173 424.859846 308.194015 
C 423.485004 309.568857 422.712518 311.433805 422.712518 313.378125 
C 422.712518 315.322445 423.485004 317.187393 424.859846 318.562235 
C 426.234689 319.937077 428.099636 320.709564 430.043957 320.709564 
z
" clip-path="url(#p3ac9027248)" style="fill: #4c78a8; fill-opacity: 0.72; stroke: #000000; stroke-opacity: 0.72; stroke-width: 0.4"/>
   </g>
   <g id="patch_3">
    <path d="M 211.040823 32.935378 
Q 208.261189 34.155366 205.481556 35.375355 
" clip-path="url(#p3ac9027248)" style="fill: none; stroke: #808080; stroke-width: 0.5; stroke-linecap: round"/>
   </g>
   <g id="patch_4">
    <path d="M 174.062418 40.368391 
Q 171.570211 43.694136 169.078004 47.019881 
" clip-path="url(#p3ac9027248)" style="fill: none; stroke: #808080; stroke-width: 0.5; stroke-linecap: round"/>
   </g>
   <g id="patch_5">
    <path d="M 178.794087 63.578612 
Q 174.914498 64.691039 171.034909 65.803466 
" clip-path="url(#p3ac9027248)" style="fill: none; stroke: #808080; stroke-width: 0.5; stroke-linecap: round"/>
   </g>
   <g id="patch_6">
    <path d="M 168.142763 71.723451 
Q 167.929258 71.754157 167.715752 71.784864 
" clip-path="url(#p3ac9027248)" style="fill: none; stroke: #808080; stroke-width: 0.5; stroke-linecap: round"/>
   </g>
   <g id="patch_7">
    <path d="M 173.824019 76.743071 
Q 172.892952 76.560285 171.961884 76.377498 
" clip-path="url(#p3ac9027248)" style="fill: none; stroke: #808080; stroke-width: 0.5; stroke-linecap: round"/>
   </g>
   <g id="patch_8">
    <path d="M 163.080307 138.692259 
Q 161.720989 140.278131 160.36167 141.864002 
" clip-path="url(#p3ac9027248)" style="fill: none; stroke: #808080; stroke-width: 0.5; stroke-linecap: round"/>
   </g>
   <g id="patch_9">
    <path d="M 161.625711 143.393992 
Q 161.469851 143.393992 161.313991 143.393992 
" clip-path="url(#p3ac9027248)" style="fill: none; stroke: #808080; stroke-width: 0.5; stroke-linecap: round"/>
   </g>
   <g id="patch_10">
    <path d="M 469.586279 234.63769 
Q 469.73831 235.042163 469.890341 235.446635 
" clip-path="url(#p3ac9027248)" style="fill: none; stroke: #808080; stroke-width: 0.5; stroke-linecap: round"/>
   </g>
   <g id="matplotlib.axis_1">
    <g id="xtick_1">
     <g id="line2d_1">
      <path d="M 73.526025 327.238125 
L 73.526025 22.318125 
" clip-path="url(#p3ac9027248)" style="fill: none; stroke: #b0b0b0; stroke-opacity: 0.25; stroke-width: 0.8; stroke-linecap: square"/>
     </g>
     <g id="line2d_2">
      <defs>
       <path id="m2e2a028d6b" d="M 0 0 
L 0 3.5 
" style="stroke: #000000; stroke-width: 0.8"/>
      </defs>
      <g>
       <use xlink:href="#m2e2a028d6b" x="73.526025" y="327.238125" style="stroke: #000000; stroke-width: 0.8"/>
      </g>
     </g>
     <g id="text_1">
      <!-- $\mathdefault{10^{-1}}$ -->
      <g transform="translate(61.776025 341.836563) scale(0.1 -0.1)">
       <defs>
        <path id="DejaVuSans-31" d="M 794 531 
L 1825 531 
L 1825 4091 
L 703 3866 
L 703 4441 
L 1819 4666 
L 2450 4666 
L 2450 531 
L 3481 531 
L 3481 0 
L 794 0 
L 794 531 
z
" transform="scale(0.015625)"/>
        <path id="DejaVuSans-30" d="M 2034 4250 
Q 1547 4250 1301 3770 
Q 1056 3291 1056 2328 
Q 1056 1369 1301 889 
Q 1547 409 2034 409 
Q 2525 409 2770 889 
Q 3016 1369 3016 2328 
Q 3016 3291 2770 3770 
Q 2525 4250 2034 4250 
z
M 2034 4750 
Q 2819 4750 3233 4129 
Q 3647 3509 3647 2328 
Q 3647 1150 3233 529 
Q 2819 -91 2034 -91 
Q 1250 -91 836 529 
Q 422 1150 422 2328 
Q 422 3509 836 4129 
Q 1250 4750 2034 4750 
z
" transform="scale(0.015625)"/>
        <path id="DejaVuSans-2212" d="M 678 2272 
L 4684 2272 
L 4684 1741 
L 678 1741 
L 678 2272 
z
" transform="scale(0.015625)"/>
       </defs>
       <use xlink:href="#DejaVuSans-31" transform="translate(0 0.684375)"/>
       <use xlink:href="#DejaVuSans-30" transform="translate(63.623047 0.684375)"/>
       <use xlink:href="#DejaVuSans-2212" transform="translate(128.203125 38.965625) scale(0.7)"/>
       <use xlink:href="#DejaVuSans-31" transform="translate(186.855469 38.965625) scale(0.7)"/>
      </g>
     </g>
    </g>
    <g id="xtick_2">
     <g id="line2d_3">
      <path d="M 173.019955 327.238125 
L 173.019955 22.318125 
" clip-path="url(#p3ac9027248)" style="fill: none; stroke: #b0b0b0; stroke-opacity: 0.25; stroke-width: 0.8; stroke-linecap: square"/>
     </g>
     <g id="line2d_4">
      <g>
       <use xlink:href="#m2e2a028d6b" x="173.019955" y="327.238125" style="stroke: #000000; stroke-width: 0.8"/>
      </g>
     </g>
     <g id="text_2">
      <!-- $\mathdefault{10^{0}}$ -->
      <g transform="translate(164.219955 341.836563) scale(0.1 -0.1)">
       <use xlink:href="#DejaVuSans-31" transform="translate(0 0.765625)"/>
       <use xlink:href="#DejaVuSans-30" transform="translate(63.623047 0.765625)"/>
       <use xlink:href="#DejaVuSans-30" transform="translate(128.203125 39.046875) scale(0.7)"/>
      </g>
     </g>
    </g>
    <g id="xtick_3">
     <g id="line2d_5">
      <path d="M 272.513885 327.238125 
L 272.513885 22.318125 
" clip-path="url(#p3ac9027248)" style="fill: none; stroke: #b0b0b0; stroke-opacity: 0.25; stroke-width: 0.8; stroke-linecap: square"/>
     </g>
     <g id="line2d_6">
      <g>
       <use xlink:href="#m2e2a028d6b" x="272.513885" y="327.238125" style="stroke: #000000; stroke-width: 0.8"/>
      </g>
     </g>
     <g id="text_3">
      <!-- $\mathdefault{10^{1}}$ -->
      <g transform="translate(263.713885 341.836563) scale(0.1 -0.1)">
       <use xlink:href="#DejaVuSans-31" transform="translate(0 0.684375)"/>
       <use xlink:href="#DejaVuSans-30" transform="translate(63.623047 0.684375)"/>
       <use xlink:href="#DejaVuSans-31" transform="translate(128.203125 38.965625) scale(0.7)"/>
      </g>
     </g>
    </g>
    <g id="xtick_4">
     <g id="line2d_7">
      <path d="M 372.007815 327.238125 
L 372.007815 22.318125 
" clip-path="url(#p3ac9027248)" style="fill: none; stroke: #b0b0b0; stroke-opacity: 0.25; stroke-width: 0.8; stroke-linecap: square"/>
     </g>
     <g id="line2d_8">
      <g>
       <use xlink:href="#m2e2a028d6b" x="372.007815" y="327.238125" style="stroke: #000000; stroke-width: 0.8"/>
      </g>
     </g>
     <g id="text_4">
      <!-- $\mathdefault{10^{2}}$ -->
      <g transform="translate(363.207815 341.836563) scale(0.1 -0.1)">
       <defs>
        <path id="DejaVuSans-32" d="M 1228 531 
L 3431 531 
L 3431 0 
L 469 0 
L 469 531 
Q 828 903 1448 1529 
Q 2069 2156 2228 2338 
Q 2531 2678 2651 2914 
Q 2772 3150 2772 3378 
Q 2772 3750 2511 3984 
Q 2250 4219 1831 4219 
Q 1534 4219 1204 4116 
Q 875 4013 500 3803 
L 500 4441 
Q 881 4594 1212 4672 
Q 1544 4750 1819 4750 
Q 2544 4750 2975 4387 
Q 3406 4025 3406 3419 
Q 3406 3131 3298 2873 
Q 3191 2616 2906 2266 
Q 2828 2175 2409 1742 
Q 1991 1309 1228 531 
z
" transform="scale(0.015625)"/>
       </defs>
       <use xlink:href="#DejaVuSans-31" transform="translate(0 0.765625)"/>
       <use xlink:href="#DejaVuSans-30" transform="translate(63.623047 0.765625)"/>
       <use xlink:href="#DejaVuSans-32" transform="translate(128.203125 39.046875) scale(0.7)"/>
      </g>
     </g>
    </g>
    <g id="xtick_5">
     <g id="line2d_9">
      <path d="M 471.501745 327.238125 
L 471.501745 22.318125 
" clip-path="url(#p3ac9027248)" style="fill: none; stroke: #b0b0b0; stroke-opacity: 0.25; stroke-width: 0.8; stroke-linecap: square"/>
     </g>
     <g id="line2d_10">
      <g>
       <use xlink:href="#m2e2a028d6b" x="471.501745" y="327.238125" style="stroke: #000000; stroke-width: 0.8"/>
      </g>
     </g>
     <g id="text_5">
      <!-- $\mathdefault{10^{3}}$ -->
      <g transform="translate(462.701745 341.836563) scale(0.1 -0.1)">
       <defs>
        <path id="DejaVuSans-33" d="M 2597 2516 
Q 3050 2419 3304 2112 
Q 3559 1806 3559 1356 
Q 3559 666 3084 287 
Q 2609 -91 1734 -91 
Q 1441 -91 1130 -33 
Q 819 25 488 141 
L 488 750 
Q 750 597 1062 519 
Q 1375 441 1716 441 
Q 2309 441 2620 675 
Q 2931 909 2931 1356 
Q 2931 1769 2642 2001 
Q 2353 2234 1838 2234 
L 1294 2234 
L 1294 2753 
L 1863 2753 
Q 2328 2753 2575 2939 
Q 2822 3125 2822 3475 
Q 2822 3834 2567 4026 
Q 2313 4219 1838 4219 
Q 1578 4219 1281 4162 
Q 984 4106 628 3988 
L 628 4550 
Q 988 4650 1302 4700 
Q 1616 4750 1894 4750 
Q 2613 4750 3031 4423 
Q 3450 4097 3450 3541 
Q 3450 3153 3228 2886 
Q 3006 2619 2597 2516 
z
" transform="scale(0.015625)"/>
       </defs>
       <use xlink:href="#DejaVuSans-31" transform="translate(0 0.765625)"/>
       <use xlink:href="#DejaVuSans-30" transform="translate(63.623047 0.765625)"/>
       <use xlink:href="#DejaVuSans-33" transform="translate(128.203125 39.046875) scale(0.7)"/>
      </g>
     </g>
    </g>
    <g id="xtick_6">
     <g id="line2d_11">
      <defs>
       <path id="m3994148418" d="M 0 0 
L 0 2 
" style="stroke: #000000; stroke-width: 0.6"/>
      </defs>
      <g>
       <use xlink:href="#m3994148418" x="51.453421" y="327.238125" style="stroke: #000000; stroke-width: 0.6"/>
      </g>
     </g>
    </g>
    <g id="xtick_7">
     <g id="line2d_12">
      <g>
       <use xlink:href="#m3994148418" x="58.11422" y="327.238125" style="stroke: #000000; stroke-width: 0.6"/>
      </g>
     </g>
    </g>
    <g id="xtick_8">
     <g id="line2d_13">
      <g>
       <use xlink:href="#m3994148418" x="63.884067" y="327.238125" style="stroke: #000000; stroke-width: 0.6"/>
      </g>
     </g>
    </g>
    <g id="xtick_9">
     <g id="line2d_14">
      <g>
       <use xlink:href="#m3994148418" x="68.973432" y="327.238125" style="stroke: #000000; stroke-width: 0.6"/>
      </g>
     </g>
    </g>
    <g id="xtick_10">
     <g id="line2d_15">
      <g>
       <use xlink:href="#m3994148418" x="103.476682" y="327.238125" style="stroke: #000000; stroke-width: 0.6"/>
      </g>
     </g>
    </g>
    <g id="xtick_11">
     <g id="line2d_16">
      <g>
       <use xlink:href="#m3994148418" x="120.996694" y="327.238125" style="stroke: #000000; stroke-width: 0.6"/>
      </g>
     </g>
    </g>
    <g id="xtick_12">
     <g id="line2d_17">
      <g>
       <use xlink:href="#m3994148418" x="133.42734" y="327.238125" style="stroke: #000000; stroke-width: 0.6"/>
      </g>
     </g>
    </g>
    <g id="xtick_13">
     <g id="line2d_18">
      <g>
       <use xlink:href="#m3994148418" x="143.069298" y="327.238125" style="stroke: #000000; stroke-width: 0.6"/>
      </g>
     </g>
    </g>
    <g id="xtick_14">
     <g id="line2d_19">
      <g>
       <use xlink:href="#m3994148418" x="150.947351" y="327.238125" style="stroke: #000000; stroke-width: 0.6"/>
      </g>
     </g>
    </g>
    <g id="xtick_15">
     <g id="line2d_20">
      <g>
       <use xlink:href="#m3994148418" x="157.60815" y="327.238125" style="stroke: #000000; stroke-width: 0.6"/>
      </g>
     </g>
    </g>
    <g id="xtick_16">
     <g id="line2d_21">
      <g>
       <use xlink:href="#m3994148418" x="163.377997" y="327.238125" style="stroke: #000000; stroke-width: 0.6"/>
      </g>
     </g>
    </g>
    <g id="xtick_17">
     <g id="line2d_22">
      <g>
       <use xlink:href="#m3994148418" x="168.467363" y="327.238125" style="stroke: #000000; stroke-width: 0.6"/>
      </g>
     </g>
    </g>
    <g id="xtick_18">
     <g id="line2d_23">
      <g>
       <use xlink:href="#m3994148418" x="202.970612" y="327.238125" style="stroke: #000000; stroke-width: 0.6"/>
      </g>
     </g>
    </g>
    <g id="xtick_19">
     <g id="line2d_24">
      <g>
       <use xlink:href="#m3994148418" x="220.490624" y="327.238125" style="stroke: #000000; stroke-width: 0.6"/>
      </g>
     </g>
    </g>
    <g id="xtick_20">
     <g id="line2d_25">
      <g>
       <use xlink:href="#m3994148418" x="232.92127" y="327.238125" style="stroke: #000000; stroke-width: 0.6"/>
      </g>
     </g>
    </g>
    <g id="xtick_21">
     <g id="line2d_26">
      <g>
       <use xlink:href="#m3994148418" x="242.563228" y="327.238125" style="stroke: #000000; stroke-width: 0.6"/>
      </g>
     </g>
    </g>
    <g id="xtick_22">
     <g id="line2d_27">
      <g>
       <use xlink:href="#m3994148418" x="250.441281" y="327.238125" style="stroke: #000000; stroke-width: 0.6"/>
      </g>
     </g>
    </g>
    <g id="xtick_23">
     <g id="line2d_28">
      <g>
       <use xlink:href="#m3994148418" x="257.10208" y="327.238125" style="stroke: #000000; stroke-width: 0.6"/>
      </g>
     </g>
    </g>
    <g id="xtick_24">
     <g id="line2d_29">
      <g>
       <use xlink:href="#m3994148418" x="262.871927" y="327.238125" style="stroke: #000000; stroke-width: 0.6"/>
      </g>
     </g>
    </g>
    <g id="xtick_25">
     <g id="line2d_30">
      <g>
       <use xlink:href="#m3994148418" x="267.961293" y="327.238125" style="stroke: #000000; stroke-width: 0.6"/>
      </g>
     </g>
    </g>
    <g id="xtick_26">
     <g id="line2d_31">
      <g>
       <use xlink:href="#m3994148418" x="302.464543" y="327.238125" style="stroke: #000000; stroke-width: 0.6"/>
      </g>
     </g>
    </g>
    <g id="xtick_27">
     <g id="line2d_32">
      <g>
       <use xlink:href="#m3994148418" x="319.984554" y="327.238125" style="stroke: #000000; stroke-width: 0.6"/>
      </g>
     </g>
    </g>
    <g id="xtick_28">
     <g id="line2d_33">
      <g>
       <use xlink:href="#m3994148418" x="332.4152" y="327.238125" style="stroke: #000000; stroke-width: 0.6"/>
      </g>
     </g>
    </g>
    <g id="xtick_29">
     <g id="line2d_34">
      <g>
       <use xlink:href="#m3994148418" x="342.057158" y="327.238125" style="stroke: #000000; stroke-width: 0.6"/>
      </g>
     </g>
    </g>
    <g id="xtick_30">
     <g id="line2d_35">
      <g>
       <use xlink:href="#m3994148418" x="349.935211" y="327.238125" style="stroke: #000000; stroke-width: 0.6"/>
      </g>
     </g>
    </g>
    <g id="xtick_31">
     <g id="line2d_36">
      <g>
       <use xlink:href="#m3994148418" x="356.596011" y="327.238125" style="stroke: #000000; stroke-width: 0.6"/>
      </g>
     </g>
    </g>
    <g id="xtick_32">
     <g id="line2d_37">
      <g>
       <use xlink:href="#m3994148418" x="362.365857" y="327.238125" style="stroke: #000000; stroke-width: 0.6"/>
      </g>
     </g>
    </g>
    <g id="xtick_33">
     <g id="line2d_38">
      <g>
       <use xlink:href="#m3994148418" x="367.455223" y="327.238125" style="stroke: #000000; stroke-width: 0.6"/>
      </g>
     </g>
    </g>
    <g id="xtick_34">
     <g id="line2d_39">
      <g>
       <use xlink:href="#m3994148418" x="401.958473" y="327.238125" style="stroke: #000000; stroke-width: 0.6"/>
      </g>
     </g>
    </g>
    <g id="xtick_35">
     <g id="line2d_40">
      <g>
       <use xlink:href="#m3994148418" x="419.478484" y="327.238125" style="stroke: #000000; stroke-width: 0.6"/>
      </g>
     </g>
    </g>
    <g id="xtick_36">
     <g id="line2d_41">
      <g>
       <use xlink:href="#m3994148418" x="431.90913" y="327.238125" style="stroke: #000000; stroke-width: 0.6"/>
      </g>
     </g>
    </g>
    <g id="xtick_37">
     <g id="line2d_42">
      <g>
       <use xlink:href="#m3994148418" x="441.551088" y="327.238125" style="stroke: #000000; stroke-width: 0.6"/>
      </g>
     </g>
    </g>
    <g id="xtick_38">
     <g id="line2d_43">
      <g>
       <use xlink:href="#m3994148418" x="449.429141" y="327.238125" style="stroke: #000000; stroke-width: 0.6"/>
      </g>
     </g>
    </g>
    <g id="xtick_39">
     <g id="line2d_44">
      <g>
       <use xlink:href="#m3994148418" x="456.089941" y="327.238125" style="stroke: #000000; stroke-width: 0.6"/>
      </g>
     </g>
    </g>
    <g id="xtick_40">
     <g id="line2d_45">
      <g>
       <use xlink:href="#m3994148418" x="461.859787" y="327.238125" style="stroke: #000000; stroke-width: 0.6"/>
      </g>
     </g>
    </g>
    <g id="xtick_41">
     <g id="line2d_46">
      <g>
       <use xlink:href="#m3994148418" x="466.949153" y="327.238125" style="stroke: #000000; stroke-width: 0.6"/>
      </g>
     </g>
    </g>
    <g id="text_6">
     <!-- Median fit+predict time (sec, symlog) -->
     <g transform="translate(172.398438 355.514687) scale(0.1 -0.1)">
      <defs>
       <path id="DejaVuSans-4d" d="M 628 4666 
L 1569 4666 
L 2759 1491 
L 3956 4666 
L 4897 4666 
L 4897 0 
L 4281 0 
L 4281 4097 
L 3078 897 
L 2444 897 
L 1241 4097 
L 1241 0 
L 628 0 
L 628 4666 
z
" transform="scale(0.015625)"/>
       <path id="DejaVuSans-65" d="M 3597 1894 
L 3597 1613 
L 953 1613 
Q 991 1019 1311 708 
Q 1631 397 2203 397 
Q 2534 397 2845 478 
Q 3156 559 3463 722 
L 3463 178 
Q 3153 47 2828 -22 
Q 2503 -91 2169 -91 
Q 1331 -91 842 396 
Q 353 884 353 1716 
Q 353 2575 817 3079 
Q 1281 3584 2069 3584 
Q 2775 3584 3186 3129 
Q 3597 2675 3597 1894 
z
M 3022 2063 
Q 3016 2534 2758 2815 
Q 2500 3097 2075 3097 
Q 1594 3097 1305 2825 
Q 1016 2553 972 2059 
L 3022 2063 
z
" transform="scale(0.015625)"/>
       <path id="DejaVuSans-64" d="M 2906 2969 
L 2906 4863 
L 3481 4863 
L 3481 0 
L 2906 0 
L 2906 525 
Q 2725 213 2448 61 
Q 2172 -91 1784 -91 
Q 1150 -91 751 415 
Q 353 922 353 1747 
Q 353 2572 751 3078 
Q 1150 3584 1784 3584 
Q 2172 3584 2448 3432 
Q 2725 3281 2906 2969 
z
M 947 1747 
Q 947 1113 1208 752 
Q 1469 391 1925 391 
Q 2381 391 2643 752 
Q 2906 1113 2906 1747 
Q 2906 2381 2643 2742 
Q 2381 3103 1925 3103 
Q 1469 3103 1208 2742 
Q 947 2381 947 1747 
z
" transform="scale(0.015625)"/>
       <path id="DejaVuSans-69" d="M 603 3500 
L 1178 3500 
L 1178 0 
L 603 0 
L 603 3500 
z
M 603 4863 
L 1178 4863 
L 1178 4134 
L 603 4134 
L 603 4863 
z
" transform="scale(0.015625)"/>
       <path id="DejaVuSans-61" d="M 2194 1759 
Q 1497 1759 1228 1600 
Q 959 1441 959 1056 
Q 959 750 1161 570 
Q 1363 391 1709 391 
Q 2188 391 2477 730 
Q 2766 1069 2766 1631 
L 2766 1759 
L 2194 1759 
z
M 3341 1997 
L 3341 0 
L 2766 0 
L 2766 531 
Q 2569 213 2275 61 
Q 1981 -91 1556 -91 
Q 1019 -91 701 211 
Q 384 513 384 1019 
Q 384 1609 779 1909 
Q 1175 2209 1959 2209 
L 2766 2209 
L 2766 2266 
Q 2766 2663 2505 2880 
Q 2244 3097 1772 3097 
Q 1472 3097 1187 3025 
Q 903 2953 641 2809 
L 641 3341 
Q 956 3463 1253 3523 
Q 1550 3584 1831 3584 
Q 2591 3584 2966 3190 
Q 3341 2797 3341 1997 
z
" transform="scale(0.015625)"/>
       <path id="DejaVuSans-6e" d="M 3513 2113 
L 3513 0 
L 2938 0 
L 2938 2094 
Q 2938 2591 2744 2837 
Q 2550 3084 2163 3084 
Q 1697 3084 1428 2787 
Q 1159 2491 1159 1978 
L 1159 0 
L 581 0 
L 581 3500 
L 1159 3500 
L 1159 2956 
Q 1366 3272 1645 3428 
Q 1925 3584 2291 3584 
Q 2894 3584 3203 3211 
Q 3513 2838 3513 2113 
z
" transform="scale(0.015625)"/>
       <path id="DejaVuSans-20" transform="scale(0.015625)"/>
       <path id="DejaVuSans-66" d="M 2375 4863 
L 2375 4384 
L 1825 4384 
Q 1516 4384 1395 4259 
Q 1275 4134 1275 3809 
L 1275 3500 
L 2222 3500 
L 2222 3053 
L 1275 3053 
L 1275 0 
L 697 0 
L 697 3053 
L 147 3053 
L 147 3500 
L 697 3500 
L 697 3744 
Q 697 4328 969 4595 
Q 1241 4863 1831 4863 
L 2375 4863 
z
" transform="scale(0.015625)"/>
       <path id="DejaVuSans-74" d="M 1172 4494 
L 1172 3500 
L 2356 3500 
L 2356 3053 
L 1172 3053 
L 1172 1153 
Q 1172 725 1289 603 
Q 1406 481 1766 481 
L 2356 481 
L 2356 0 
L 1766 0 
Q 1100 0 847 248 
Q 594 497 594 1153 
L 594 3053 
L 172 3053 
L 172 3500 
L 594 3500 
L 594 4494 
L 1172 4494 
z
" transform="scale(0.015625)"/>
       <path id="DejaVuSans-2b" d="M 2944 4013 
L 2944 2272 
L 4684 2272 
L 4684 1741 
L 2944 1741 
L 2944 0 
L 2419 0 
L 2419 1741 
L 678 1741 
L 678 2272 
L 2419 2272 
L 2419 4013 
L 2944 4013 
z
" transform="scale(0.015625)"/>
       <path id="DejaVuSans-70" d="M 1159 525 
L 1159 -1331 
L 581 -1331 
L 581 3500 
L 1159 3500 
L 1159 2969 
Q 1341 3281 1617 3432 
Q 1894 3584 2278 3584 
Q 2916 3584 3314 3078 
Q 3713 2572 3713 1747 
Q 3713 922 3314 415 
Q 2916 -91 2278 -91 
Q 1894 -91 1617 61 
Q 1341 213 1159 525 
z
M 3116 1747 
Q 3116 2381 2855 2742 
Q 2594 3103 2138 3103 
Q 1681 3103 1420 2742 
Q 1159 2381 1159 1747 
Q 1159 1113 1420 752 
Q 1681 391 2138 391 
Q 2594 391 2855 752 
Q 3116 1113 3116 1747 
z
" transform="scale(0.015625)"/>
       <path id="DejaVuSans-72" d="M 2631 2963 
Q 2534 3019 2420 3045 
Q 2306 3072 2169 3072 
Q 1681 3072 1420 2755 
Q 1159 2438 1159 1844 
L 1159 0 
L 581 0 
L 581 3500 
L 1159 3500 
L 1159 2956 
Q 1341 3275 1631 3429 
Q 1922 3584 2338 3584 
Q 2397 3584 2469 3576 
Q 2541 3569 2628 3553 
L 2631 2963 
z
" transform="scale(0.015625)"/>
       <path id="DejaVuSans-63" d="M 3122 3366 
L 3122 2828 
Q 2878 2963 2633 3030 
Q 2388 3097 2138 3097 
Q 1578 3097 1268 2742 
Q 959 2388 959 1747 
Q 959 1106 1268 751 
Q 1578 397 2138 397 
Q 2388 397 2633 464 
Q 2878 531 3122 666 
L 3122 134 
Q 2881 22 2623 -34 
Q 2366 -91 2075 -91 
Q 1284 -91 818 406 
Q 353 903 353 1747 
Q 353 2603 823 3093 
Q 1294 3584 2113 3584 
Q 2378 3584 2631 3529 
Q 2884 3475 3122 3366 
z
" transform="scale(0.015625)"/>
       <path id="DejaVuSans-6d" d="M 3328 2828 
Q 3544 3216 3844 3400 
Q 4144 3584 4550 3584 
Q 5097 3584 5394 3201 
Q 5691 2819 5691 2113 
L 5691 0 
L 5113 0 
L 5113 2094 
Q 5113 2597 4934 2840 
Q 4756 3084 4391 3084 
Q 3944 3084 3684 2787 
Q 3425 2491 3425 1978 
L 3425 0 
L 2847 0 
L 2847 2094 
Q 2847 2600 2669 2842 
Q 2491 3084 2119 3084 
Q 1678 3084 1418 2786 
Q 1159 2488 1159 1978 
L 1159 0 
L 581 0 
L 581 3500 
L 1159 3500 
L 1159 2956 
Q 1356 3278 1631 3431 
Q 1906 3584 2284 3584 
Q 2666 3584 2933 3390 
Q 3200 3197 3328 2828 
z
" transform="scale(0.015625)"/>
       <path id="DejaVuSans-28" d="M 1984 4856 
Q 1566 4138 1362 3434 
Q 1159 2731 1159 2009 
Q 1159 1288 1364 580 
Q 1569 -128 1984 -844 
L 1484 -844 
Q 1016 -109 783 600 
Q 550 1309 550 2009 
Q 550 2706 781 3412 
Q 1013 4119 1484 4856 
L 1984 4856 
z
" transform="scale(0.015625)"/>
       <path id="DejaVuSans-73" d="M 2834 3397 
L 2834 2853 
Q 2591 2978 2328 3040 
Q 2066 3103 1784 3103 
Q 1356 3103 1142 2972 
Q 928 2841 928 2578 
Q 928 2378 1081 2264 
Q 1234 2150 1697 2047 
L 1894 2003 
Q 2506 1872 2764 1633 
Q 3022 1394 3022 966 
Q 3022 478 2636 193 
Q 2250 -91 1575 -91 
Q 1294 -91 989 -36 
Q 684 19 347 128 
L 347 722 
Q 666 556 975 473 
Q 1284 391 1588 391 
Q 1994 391 2212 530 
Q 2431 669 2431 922 
Q 2431 1156 2273 1281 
Q 2116 1406 1581 1522 
L 1381 1569 
Q 847 1681 609 1914 
Q 372 2147 372 2553 
Q 372 3047 722 3315 
Q 1072 3584 1716 3584 
Q 2034 3584 2315 3537 
Q 2597 3491 2834 3397 
z
" transform="scale(0.015625)"/>
       <path id="DejaVuSans-2c" d="M 750 794 
L 1409 794 
L 1409 256 
L 897 -744 
L 494 -744 
L 750 256 
L 750 794 
z
" transform="scale(0.015625)"/>
       <path id="DejaVuSans-79" d="M 2059 -325 
Q 1816 -950 1584 -1140 
Q 1353 -1331 966 -1331 
L 506 -1331 
L 506 -850 
L 844 -850 
Q 1081 -850 1212 -737 
Q 1344 -625 1503 -206 
L 1606 56 
L 191 3500 
L 800 3500 
L 1894 763 
L 2988 3500 
L 3597 3500 
L 2059 -325 
z
" transform="scale(0.015625)"/>
       <path id="DejaVuSans-6c" d="M 603 4863 
L 1178 4863 
L 1178 0 
L 603 0 
L 603 4863 
z
" transform="scale(0.015625)"/>
       <path id="DejaVuSans-6f" d="M 1959 3097 
Q 1497 3097 1228 2736 
Q 959 2375 959 1747 
Q 959 1119 1226 758 
Q 1494 397 1959 397 
Q 2419 397 2687 759 
Q 2956 1122 2956 1747 
Q 2956 2369 2687 2733 
Q 2419 3097 1959 3097 
z
M 1959 3584 
Q 2709 3584 3137 3096 
Q 3566 2609 3566 1747 
Q 3566 888 3137 398 
Q 2709 -91 1959 -91 
Q 1206 -91 779 398 
Q 353 888 353 1747 
Q 353 2609 779 3096 
Q 1206 3584 1959 3584 
z
" transform="scale(0.015625)"/>
       <path id="DejaVuSans-67" d="M 2906 1791 
Q 2906 2416 2648 2759 
Q 2391 3103 1925 3103 
Q 1463 3103 1205 2759 
Q 947 2416 947 1791 
Q 947 1169 1205 825 
Q 1463 481 1925 481 
Q 2391 481 2648 825 
Q 2906 1169 2906 1791 
z
M 3481 434 
Q 3481 -459 3084 -895 
Q 2688 -1331 1869 -1331 
Q 1566 -1331 1297 -1286 
Q 1028 -1241 775 -1147 
L 775 -588 
Q 1028 -725 1275 -790 
Q 1522 -856 1778 -856 
Q 2344 -856 2625 -561 
Q 2906 -266 2906 331 
L 2906 616 
Q 2728 306 2450 153 
Q 2172 0 1784 0 
Q 1141 0 747 490 
Q 353 981 353 1791 
Q 353 2603 747 3093 
Q 1141 3584 1784 3584 
Q 2172 3584 2450 3431 
Q 2728 3278 2906 2969 
L 2906 3500 
L 3481 3500 
L 3481 434 
z
" transform="scale(0.015625)"/>
       <path id="DejaVuSans-29" d="M 513 4856 
L 1013 4856 
Q 1481 4119 1714 3412 
Q 1947 2706 1947 2009 
Q 1947 1309 1714 600 
Q 1481 -109 1013 -844 
L 513 -844 
Q 928 -128 1133 580 
Q 1338 1288 1338 2009 
Q 1338 2731 1133 3434 
Q 928 4138 513 4856 
z
" transform="scale(0.015625)"/>
      </defs>
      <use xlink:href="#DejaVuSans-4d"/>
      <use xlink:href="#DejaVuSans-65" x="86.279297"/>
      <use xlink:href="#DejaVuSans-64" x="147.802734"/>
      <use xlink:href="#DejaVuSans-69" x="211.279297"/>
      <use xlink:href="#DejaVuSans-61" x="239.0625"/>
      <use xlink:href="#DejaVuSans-6e" x="300.341797"/>
      <use xlink:href="#DejaVuSans-20" x="363.720703"/>
      <use xlink:href="#DejaVuSans-66" x="395.507812"/>
      <use xlink:href="#DejaVuSans-69" x="430.712891"/>
      <use xlink:href="#DejaVuSans-74" x="458.496094"/>
      <use xlink:href="#DejaVuSans-2b" x="497.705078"/>
      <use xlink:href="#DejaVuSans-70" x="581.494141"/>
      <use xlink:href="#DejaVuSans-72" x="644.970703"/>
      <use xlink:href="#DejaVuSans-65" x="683.833984"/>
      <use xlink:href="#DejaVuSans-64" x="745.357422"/>
      <use xlink:href="#DejaVuSans-69" x="808.833984"/>
      <use xlink:href="#DejaVuSans-63" x="836.617188"/>
      <use xlink:href="#DejaVuSans-74" x="891.597656"/>
      <use xlink:href="#DejaVuSans-20" x="930.806641"/>
      <use xlink:href="#DejaVuSans-74" x="962.59375"/>
      <use xlink:href="#DejaVuSans-69" x="1001.802734"/>
      <use xlink:href="#DejaVuSans-6d" x="1029.585938"/>
      <use xlink:href="#DejaVuSans-65" x="1126.998047"/>
      <use xlink:href="#DejaVuSans-20" x="1188.521484"/>
      <use xlink:href="#DejaVuSans-28" x="1220.308594"/>
      <use xlink:href="#DejaVuSans-73" x="1259.322266"/>
      <use xlink:href="#DejaVuSans-65" x="1311.421875"/>
      <use xlink:href="#DejaVuSans-63" x="1372.945312"/>
      <use xlink:href="#DejaVuSans-2c" x="1427.925781"/>
      <use xlink:href="#DejaVuSans-20" x="1459.712891"/>
      <use xlink:href="#DejaVuSans-73" x="1491.5"/>
      <use xlink:href="#DejaVuSans-79" x="1543.599609"/>
      <use xlink:href="#DejaVuSans-6d" x="1602.779297"/>
      <use xlink:href="#DejaVuSans-6c" x="1700.191406"/>
      <use xlink:href="#DejaVuSans-6f" x="1727.974609"/>
      <use xlink:href="#DejaVuSans-67" x="1789.15625"/>
      <use xlink:href="#DejaVuSans-29" x="1852.632812"/>
     </g>
    </g>
   </g>
   <g id="matplotlib.axis_2">
    <g id="ytick_1">
     <g id="line2d_47">
      <path d="M 43.78125 313.331815 
L 490.18125 313.331815 
" clip-path="url(#p3ac9027248)" style="fill: none; stroke: #b0b0b0; stroke-opacity: 0.25; stroke-width: 0.8; stroke-linecap: square"/>
     </g>
     <g id="line2d_48">
      <defs>
       <path id="m176da5a838" d="M 0 0 
L -3.5 0 
" style="stroke: #000000; stroke-width: 0.8"/>
      </defs>
      <g>
       <use xlink:href="#m176da5a838" x="43.78125" y="313.331815" style="stroke: #000000; stroke-width: 0.8"/>
      </g>
     </g>
     <g id="text_7">
      <!-- 0.4 -->
      <g transform="translate(20.878125 317.131033) scale(0.1 -0.1)">
       <defs>
        <path id="DejaVuSans-2e" d="M 684 794 
L 1344 794 
L 1344 0 
L 684 0 
L 684 794 
z
" transform="scale(0.015625)"/>
        <path id="DejaVuSans-34" d="M 2419 4116 
L 825 1625 
L 2419 1625 
L 2419 4116 
z
M 2253 4666 
L 3047 4666 
L 3047 1625 
L 3713 1625 
L 3713 1100 
L 3047 1100 
L 3047 0 
L 2419 0 
L 2419 1100 
L 313 1100 
L 313 1709 
L 2253 4666 
z
" transform="scale(0.015625)"/>
       </defs>
       <use xlink:href="#DejaVuSans-30"/>
       <use xlink:href="#DejaVuSans-2e" x="63.623047"/>
       <use xlink:href="#DejaVuSans-34" x="95.410156"/>
      </g>
     </g>
    </g>
    <g id="ytick_2">
     <g id="line2d_49">
      <path d="M 43.78125 264.326004 
L 490.18125 264.326004 
" clip-path="url(#p3ac9027248)" style="fill: none; stroke: #b0b0b0; stroke-opacity: 0.25; stroke-width: 0.8; stroke-linecap: square"/>
     </g>
     <g id="line2d_50">
      <g>
       <use xlink:href="#m176da5a838" x="43.78125" y="264.326004" style="stroke: #000000; stroke-width: 0.8"/>
      </g>
     </g>
     <g id="text_8">
      <!-- 0.5 -->
      <g transform="translate(20.878125 268.125223) scale(0.1 -0.1)">
       <defs>
        <path id="DejaVuSans-35" d="M 691 4666 
L 3169 4666 
L 3169 4134 
L 1269 4134 
L 1269 2991 
Q 1406 3038 1543 3061 
Q 1681 3084 1819 3084 
Q 2600 3084 3056 2656 
Q 3513 2228 3513 1497 
Q 3513 744 3044 326 
Q 2575 -91 1722 -91 
Q 1428 -91 1123 -41 
Q 819 9 494 109 
L 494 744 
Q 775 591 1075 516 
Q 1375 441 1709 441 
Q 2250 441 2565 725 
Q 2881 1009 2881 1497 
Q 2881 1984 2565 2268 
Q 2250 2553 1709 2553 
Q 1456 2553 1204 2497 
Q 953 2441 691 2322 
L 691 4666 
z
" transform="scale(0.015625)"/>
       </defs>
       <use xlink:href="#DejaVuSans-30"/>
       <use xlink:href="#DejaVuSans-2e" x="63.623047"/>
       <use xlink:href="#DejaVuSans-35" x="95.410156"/>
      </g>
     </g>
    </g>
    <g id="ytick_3">
     <g id="line2d_51">
      <path d="M 43.78125 215.320194 
L 490.18125 215.320194 
" clip-path="url(#p3ac9027248)" style="fill: none; stroke: #b0b0b0; stroke-opacity: 0.25; stroke-width: 0.8; stroke-linecap: square"/>
     </g>
     <g id="line2d_52">
      <g>
       <use xlink:href="#m176da5a838" x="43.78125" y="215.320194" style="stroke: #000000; stroke-width: 0.8"/>
      </g>
     </g>
     <g id="text_9">
      <!-- 0.6 -->
      <g transform="translate(20.878125 219.119413) scale(0.1 -0.1)">
       <defs>
        <path id="DejaVuSans-36" d="M 2113 2584 
Q 1688 2584 1439 2293 
Q 1191 2003 1191 1497 
Q 1191 994 1439 701 
Q 1688 409 2113 409 
Q 2538 409 2786 701 
Q 3034 994 3034 1497 
Q 3034 2003 2786 2293 
Q 2538 2584 2113 2584 
z
M 3366 4563 
L 3366 3988 
Q 3128 4100 2886 4159 
Q 2644 4219 2406 4219 
Q 1781 4219 1451 3797 
Q 1122 3375 1075 2522 
Q 1259 2794 1537 2939 
Q 1816 3084 2150 3084 
Q 2853 3084 3261 2657 
Q 3669 2231 3669 1497 
Q 3669 778 3244 343 
Q 2819 -91 2113 -91 
Q 1303 -91 875 529 
Q 447 1150 447 2328 
Q 447 3434 972 4092 
Q 1497 4750 2381 4750 
Q 2619 4750 2861 4703 
Q 3103 4656 3366 4563 
z
" transform="scale(0.015625)"/>
       </defs>
       <use xlink:href="#DejaVuSans-30"/>
       <use xlink:href="#DejaVuSans-2e" x="63.623047"/>
       <use xlink:href="#DejaVuSans-36" x="95.410156"/>
      </g>
     </g>
    </g>
    <g id="ytick_4">
     <g id="line2d_53">
      <path d="M 43.78125 166.314384 
L 490.18125 166.314384 
" clip-path="url(#p3ac9027248)" style="fill: none; stroke: #b0b0b0; stroke-opacity: 0.25; stroke-width: 0.8; stroke-linecap: square"/>
     </g>
     <g id="line2d_54">
      <g>
       <use xlink:href="#m176da5a838" x="43.78125" y="166.314384" style="stroke: #000000; stroke-width: 0.8"/>
      </g>
     </g>
     <g id="text_10">
      <!-- 0.7 -->
      <g transform="translate(20.878125 170.113603) scale(0.1 -0.1)">
       <defs>
        <path id="DejaVuSans-37" d="M 525 4666 
L 3525 4666 
L 3525 4397 
L 1831 0 
L 1172 0 
L 2766 4134 
L 525 4134 
L 525 4666 
z
" transform="scale(0.015625)"/>
       </defs>
       <use xlink:href="#DejaVuSans-30"/>
       <use xlink:href="#DejaVuSans-2e" x="63.623047"/>
       <use xlink:href="#DejaVuSans-37" x="95.410156"/>
      </g>
     </g>
    </g>
    <g id="ytick_5">
     <g id="line2d_55">
      <path d="M 43.78125 117.308574 
L 490.18125 117.308574 
" clip-path="url(#p3ac9027248)" style="fill: none; stroke: #b0b0b0; stroke-opacity: 0.25; stroke-width: 0.8; stroke-linecap: square"/>
     </g>
     <g id="line2d_56">
      <g>
       <use xlink:href="#m176da5a838" x="43.78125" y="117.308574" style="stroke: #000000; stroke-width: 0.8"/>
      </g>
     </g>
     <g id="text_11">
      <!-- 0.8 -->
      <g transform="translate(20.878125 121.107793) scale(0.1 -0.1)">
       <defs>
        <path id="DejaVuSans-38" d="M 2034 2216 
Q 1584 2216 1326 1975 
Q 1069 1734 1069 1313 
Q 1069 891 1326 650 
Q 1584 409 2034 409 
Q 2484 409 2743 651 
Q 3003 894 3003 1313 
Q 3003 1734 2745 1975 
Q 2488 2216 2034 2216 
z
M 1403 2484 
Q 997 2584 770 2862 
Q 544 3141 544 3541 
Q 544 4100 942 4425 
Q 1341 4750 2034 4750 
Q 2731 4750 3128 4425 
Q 3525 4100 3525 3541 
Q 3525 3141 3298 2862 
Q 3072 2584 2669 2484 
Q 3125 2378 3379 2068 
Q 3634 1759 3634 1313 
Q 3634 634 3220 271 
Q 2806 -91 2034 -91 
Q 1263 -91 848 271 
Q 434 634 434 1313 
Q 434 1759 690 2068 
Q 947 2378 1403 2484 
z
M 1172 3481 
Q 1172 3119 1398 2916 
Q 1625 2713 2034 2713 
Q 2441 2713 2670 2916 
Q 2900 3119 2900 3481 
Q 2900 3844 2670 4047 
Q 2441 4250 2034 4250 
Q 1625 4250 1398 4047 
Q 1172 3844 1172 3481 
z
" transform="scale(0.015625)"/>
       </defs>
       <use xlink:href="#DejaVuSans-30"/>
       <use xlink:href="#DejaVuSans-2e" x="63.623047"/>
       <use xlink:href="#DejaVuSans-38" x="95.410156"/>
      </g>
     </g>
    </g>
    <g id="ytick_6">
     <g id="line2d_57">
      <path d="M 43.78125 68.302764 
L 490.18125 68.302764 
" clip-path="url(#p3ac9027248)" style="fill: none; stroke: #b0b0b0; stroke-opacity: 0.25; stroke-width: 0.8; stroke-linecap: square"/>
     </g>
     <g id="line2d_58">
      <g>
       <use xlink:href="#m176da5a838" x="43.78125" y="68.302764" style="stroke: #000000; stroke-width: 0.8"/>
      </g>
     </g>
     <g id="text_12">
      <!-- 0.9 -->
      <g transform="translate(20.878125 72.101982) scale(0.1 -0.1)">
       <defs>
        <path id="DejaVuSans-39" d="M 703 97 
L 703 672 
Q 941 559 1184 500 
Q 1428 441 1663 441 
Q 2288 441 2617 861 
Q 2947 1281 2994 2138 
Q 2813 1869 2534 1725 
Q 2256 1581 1919 1581 
Q 1219 1581 811 2004 
Q 403 2428 403 3163 
Q 403 3881 828 4315 
Q 1253 4750 1959 4750 
Q 2769 4750 3195 4129 
Q 3622 3509 3622 2328 
Q 3622 1225 3098 567 
Q 2575 -91 1691 -91 
Q 1453 -91 1209 -44 
Q 966 3 703 97 
z
M 1959 2075 
Q 2384 2075 2632 2365 
Q 2881 2656 2881 3163 
Q 2881 3666 2632 3958 
Q 2384 4250 1959 4250 
Q 1534 4250 1286 3958 
Q 1038 3666 1038 3163 
Q 1038 2656 1286 2365 
Q 1534 2075 1959 2075 
z
" transform="scale(0.015625)"/>
       </defs>
       <use xlink:href="#DejaVuSans-30"/>
       <use xlink:href="#DejaVuSans-2e" x="63.623047"/>
       <use xlink:href="#DejaVuSans-39" x="95.410156"/>
      </g>
     </g>
    </g>
    <g id="text_13">
     <!-- Mean auc_roc -->
     <g transform="translate(14.520313 209.224219) rotate(-90) scale(0.1 -0.1)">
      <defs>
       <path id="DejaVuSans-75" d="M 544 1381 
L 544 3500 
L 1119 3500 
L 1119 1403 
Q 1119 906 1312 657 
Q 1506 409 1894 409 
Q 2359 409 2629 706 
Q 2900 1003 2900 1516 
L 2900 3500 
L 3475 3500 
L 3475 0 
L 2900 0 
L 2900 538 
Q 2691 219 2414 64 
Q 2138 -91 1772 -91 
Q 1169 -91 856 284 
Q 544 659 544 1381 
z
M 1991 3584 
L 1991 3584 
z
" transform="scale(0.015625)"/>
       <path id="DejaVuSans-5f" d="M 3263 -1063 
L 3263 -1509 
L -63 -1509 
L -63 -1063 
L 3263 -1063 
z
" transform="scale(0.015625)"/>
      </defs>
      <use xlink:href="#DejaVuSans-4d"/>
      <use xlink:href="#DejaVuSans-65" x="86.279297"/>
      <use xlink:href="#DejaVuSans-61" x="147.802734"/>
      <use xlink:href="#DejaVuSans-6e" x="209.082031"/>
      <use xlink:href="#DejaVuSans-20" x="272.460938"/>
      <use xlink:href="#DejaVuSans-61" x="304.248047"/>
      <use xlink:href="#DejaVuSans-75" x="365.527344"/>
      <use xlink:href="#DejaVuSans-63" x="428.90625"/>
      <use xlink:href="#DejaVuSans-5f" x="483.886719"/>
      <use xlink:href="#DejaVuSans-72" x="533.886719"/>
      <use xlink:href="#DejaVuSans-6f" x="572.75"/>
      <use xlink:href="#DejaVuSans-63" x="633.931641"/>
     </g>
    </g>
   </g>
   <g id="patch_11">
    <path d="M 43.78125 327.238125 
L 43.78125 22.318125 
" style="fill: none; stroke: #000000; stroke-width: 0.8; stroke-linejoin: miter; stroke-linecap: square"/>
   </g>
   <g id="patch_12">
    <path d="M 490.18125 327.238125 
L 490.18125 22.318125 
" style="fill: none; stroke: #000000; stroke-width: 0.8; stroke-linejoin: miter; stroke-linecap: square"/>
   </g>
   <g id="patch_13">
    <path d="M 43.78125 327.238125 
L 490.18125 327.238125 
" style="fill: none; stroke: #000000; stroke-width: 0.8; stroke-linejoin: miter; stroke-linecap: square"/>
   </g>
   <g id="patch_14">
    <path d="M 43.78125 22.318125 
L 490.18125 22.318125 
" style="fill: none; stroke: #000000; stroke-width: 0.8; stroke-linejoin: miter; stroke-linecap: square"/>
   </g>
   <g id="text_14">
    <!-- TabPFN -->
    <g transform="translate(207.218768 30.465625) scale(0.08 -0.08)">
     <defs>
      <path id="DejaVuSans-54" d="M -19 4666 
L 3928 4666 
L 3928 4134 
L 2272 4134 
L 2272 0 
L 1638 0 
L 1638 4134 
L -19 4134 
L -19 4666 
z
" transform="scale(0.015625)"/>
      <path id="DejaVuSans-62" d="M 3116 1747 
Q 3116 2381 2855 2742 
Q 2594 3103 2138 3103 
Q 1681 3103 1420 2742 
Q 1159 2381 1159 1747 
Q 1159 1113 1420 752 
Q 1681 391 2138 391 
Q 2594 391 2855 752 
Q 3116 1113 3116 1747 
z
M 1159 2969 
Q 1341 3281 1617 3432 
Q 1894 3584 2278 3584 
Q 2916 3584 3314 3078 
Q 3713 2572 3713 1747 
Q 3713 922 3314 415 
Q 2916 -91 2278 -91 
Q 1894 -91 1617 61 
Q 1341 213 1159 525 
L 1159 0 
L 581 0 
L 581 4863 
L 1159 4863 
L 1159 2969 
z
" transform="scale(0.015625)"/>
      <path id="DejaVuSans-50" d="M 1259 4147 
L 1259 2394 
L 2053 2394 
Q 2494 2394 2734 2622 
Q 2975 2850 2975 3272 
Q 2975 3691 2734 3919 
Q 2494 4147 2053 4147 
L 1259 4147 
z
M 628 4666 
L 2053 4666 
Q 2838 4666 3239 4311 
Q 3641 3956 3641 3272 
Q 3641 2581 3239 2228 
Q 2838 1875 2053 1875 
L 1259 1875 
L 1259 0 
L 628 0 
L 628 4666 
z
" transform="scale(0.015625)"/>
      <path id="DejaVuSans-46" d="M 628 4666 
L 3309 4666 
L 3309 4134 
L 1259 4134 
L 1259 2759 
L 3109 2759 
L 3109 2228 
L 1259 2228 
L 1259 0 
L 628 0 
L 628 4666 
z
" transform="scale(0.015625)"/>
      <path id="DejaVuSans-4e" d="M 628 4666 
L 1478 4666 
L 3547 763 
L 3547 4666 
L 4159 4666 
L 4159 0 
L 3309 0 
L 1241 3903 
L 1241 0 
L 628 0 
L 628 4666 
z
" transform="scale(0.015625)"/>
     </defs>
     <use xlink:href="#DejaVuSans-54"/>
     <use xlink:href="#DejaVuSans-61" x="44.583984"/>
     <use xlink:href="#DejaVuSans-62" x="105.863281"/>
     <use xlink:href="#DejaVuSans-50" x="169.339844"/>
     <use xlink:href="#DejaVuSans-46" x="229.642578"/>
     <use xlink:href="#DejaVuSans-4e" x="287.162109"/>
    </g>
   </g>
   <g id="text_15">
    <!-- MLP -->
    <g transform="translate(215.175628 51.934869) scale(0.08 -0.08)">
     <defs>
      <path id="DejaVuSans-4c" d="M 628 4666 
L 1259 4666 
L 1259 531 
L 3531 531 
L 3531 0 
L 628 0 
L 628 4666 
z
" transform="scale(0.015625)"/>
     </defs>
     <use xlink:href="#DejaVuSans-4d"/>
     <use xlink:href="#DejaVuSans-4c" x="86.279297"/>
     <use xlink:href="#DejaVuSans-50" x="141.992188"/>
    </g>
   </g>
   <g id="text_16">
    <!-- XGBoost -->
    <g transform="translate(175.811952 46.5093) scale(0.08 -0.08)">
     <defs>
      <path id="DejaVuSans-58" d="M 403 4666 
L 1081 4666 
L 2241 2931 
L 3406 4666 
L 4084 4666 
L 2584 2425 
L 4184 0 
L 3506 0 
L 2194 1984 
L 872 0 
L 191 0 
L 1856 2491 
L 403 4666 
z
" transform="scale(0.015625)"/>
      <path id="DejaVuSans-47" d="M 3809 666 
L 3809 1919 
L 2778 1919 
L 2778 2438 
L 4434 2438 
L 4434 434 
Q 4069 175 3628 42 
Q 3188 -91 2688 -91 
Q 1594 -91 976 548 
Q 359 1188 359 2328 
Q 359 3472 976 4111 
Q 1594 4750 2688 4750 
Q 3144 4750 3555 4637 
Q 3966 4525 4313 4306 
L 4313 3634 
Q 3963 3931 3569 4081 
Q 3175 4231 2741 4231 
Q 1884 4231 1454 3753 
Q 1025 3275 1025 2328 
Q 1025 1384 1454 906 
Q 1884 428 2741 428 
Q 3075 428 3337 486 
Q 3600 544 3809 666 
z
" transform="scale(0.015625)"/>
      <path id="DejaVuSans-42" d="M 1259 2228 
L 1259 519 
L 2272 519 
Q 2781 519 3026 730 
Q 3272 941 3272 1375 
Q 3272 1813 3026 2020 
Q 2781 2228 2272 2228 
L 1259 2228 
z
M 1259 4147 
L 1259 2741 
L 2194 2741 
Q 2656 2741 2882 2914 
Q 3109 3088 3109 3444 
Q 3109 3797 2882 3972 
Q 2656 4147 2194 4147 
L 1259 4147 
z
M 628 4666 
L 2241 4666 
Q 2963 4666 3353 4366 
Q 3744 4066 3744 3513 
Q 3744 3084 3544 2831 
Q 3344 2578 2956 2516 
Q 3422 2416 3680 2098 
Q 3938 1781 3938 1306 
Q 3938 681 3513 340 
Q 3088 0 2303 0 
L 628 0 
L 628 4666 
z
" transform="scale(0.015625)"/>
     </defs>
     <use xlink:href="#DejaVuSans-58"/>
     <use xlink:href="#DejaVuSans-47" x="68.505859"/>
     <use xlink:href="#DejaVuSans-42" x="145.996094"/>
     <use xlink:href="#DejaVuSans-6f" x="214.599609"/>
     <use xlink:href="#DejaVuSans-6f" x="275.78125"/>
     <use xlink:href="#DejaVuSans-73" x="336.962891"/>
     <use xlink:href="#DejaVuSans-74" x="389.0625"/>
    </g>
   </g>
   <g id="text_17">
    <!-- LightGBM -->
    <g transform="translate(158.883382 37.106665) scale(0.08 -0.08)">
     <defs>
      <path id="DejaVuSans-68" d="M 3513 2113 
L 3513 0 
L 2938 0 
L 2938 2094 
Q 2938 2591 2744 2837 
Q 2550 3084 2163 3084 
Q 1697 3084 1428 2787 
Q 1159 2491 1159 1978 
L 1159 0 
L 581 0 
L 581 4863 
L 1159 4863 
L 1159 2956 
Q 1366 3272 1645 3428 
Q 1925 3584 2291 3584 
Q 2894 3584 3203 3211 
Q 3513 2838 3513 2113 
z
" transform="scale(0.015625)"/>
     </defs>
     <use xlink:href="#DejaVuSans-4c"/>
     <use xlink:href="#DejaVuSans-69" x="55.712891"/>
     <use xlink:href="#DejaVuSans-67" x="83.496094"/>
     <use xlink:href="#DejaVuSans-68" x="146.972656"/>
     <use xlink:href="#DejaVuSans-74" x="210.351562"/>
     <use xlink:href="#DejaVuSans-47" x="249.560547"/>
     <use xlink:href="#DejaVuSans-42" x="327.050781"/>
     <use xlink:href="#DejaVuSans-4d" x="395.654297"/>
    </g>
   </g>
   <g id="text_18">
    <!-- LR -->
    <g transform="translate(81.38702 51.833001) scale(0.08 -0.08)">
     <defs>
      <path id="DejaVuSans-52" d="M 2841 2188 
Q 3044 2119 3236 1894 
Q 3428 1669 3622 1275 
L 4263 0 
L 3584 0 
L 2988 1197 
Q 2756 1666 2539 1819 
Q 2322 1972 1947 1972 
L 1259 1972 
L 1259 0 
L 628 0 
L 628 4666 
L 2053 4666 
Q 2853 4666 3247 4331 
Q 3641 3997 3641 3322 
Q 3641 2881 3436 2590 
Q 3231 2300 2841 2188 
z
M 1259 4147 
L 1259 2491 
L 2053 2491 
Q 2509 2491 2742 2702 
Q 2975 2913 2975 3322 
Q 2975 3731 2742 3939 
Q 2509 4147 2053 4147 
L 1259 4147 
z
" transform="scale(0.015625)"/>
     </defs>
     <use xlink:href="#DejaVuSans-4c"/>
     <use xlink:href="#DejaVuSans-52" x="55.712891"/>
    </g>
   </g>
   <g id="text_19">
    <!-- RF -->
    <g transform="translate(139.918599 52.068223) scale(0.08 -0.08)">
     <use xlink:href="#DejaVuSans-52"/>
     <use xlink:href="#DejaVuSans-46" x="69.482422"/>
    </g>
   </g>
   <g id="text_20">
    <!-- XGBGraph -->
    <g transform="translate(173.437357 61.362773) scale(0.08 -0.08)">
     <use xlink:href="#DejaVuSans-58"/>
     <use xlink:href="#DejaVuSans-47" x="68.505859"/>
     <use xlink:href="#DejaVuSans-42" x="145.996094"/>
     <use xlink:href="#DejaVuSans-47" x="212.849609"/>
     <use xlink:href="#DejaVuSans-72" x="290.339844"/>
     <use xlink:href="#DejaVuSans-61" x="331.453125"/>
     <use xlink:href="#DejaVuSans-70" x="392.732422"/>
     <use xlink:href="#DejaVuSans-68" x="456.208984"/>
    </g>
   </g>
   <g id="text_21">
    <!-- BWGNN -->
    <g transform="translate(170.126488 71.396483) scale(0.08 -0.08)">
     <defs>
      <path id="DejaVuSans-57" d="M 213 4666 
L 850 4666 
L 1831 722 
L 2809 4666 
L 3519 4666 
L 4500 722 
L 5478 4666 
L 6119 4666 
L 4947 0 
L 4153 0 
L 3169 4050 
L 2175 0 
L 1381 0 
L 213 4666 
z
" transform="scale(0.015625)"/>
     </defs>
     <use xlink:href="#DejaVuSans-42"/>
     <use xlink:href="#DejaVuSans-57" x="64.978516"/>
     <use xlink:href="#DejaVuSans-47" x="163.855469"/>
     <use xlink:href="#DejaVuSans-4e" x="241.345703"/>
     <use xlink:href="#DejaVuSans-4e" x="316.150391"/>
    </g>
   </g>
   <g id="text_22">
    <!-- GCN -->
    <g transform="translate(175.787724 81.080378) scale(0.08 -0.08)">
     <defs>
      <path id="DejaVuSans-43" d="M 4122 4306 
L 4122 3641 
Q 3803 3938 3442 4084 
Q 3081 4231 2675 4231 
Q 1875 4231 1450 3742 
Q 1025 3253 1025 2328 
Q 1025 1406 1450 917 
Q 1875 428 2675 428 
Q 3081 428 3442 575 
Q 3803 722 4122 1019 
L 4122 359 
Q 3791 134 3420 21 
Q 3050 -91 2638 -91 
Q 1578 -91 968 557 
Q 359 1206 359 2328 
Q 359 3453 968 4101 
Q 1578 4750 2638 4750 
Q 3056 4750 3426 4639 
Q 3797 4528 4122 4306 
z
" transform="scale(0.015625)"/>
     </defs>
     <use xlink:href="#DejaVuSans-47"/>
     <use xlink:href="#DejaVuSans-43" x="77.490234"/>
     <use xlink:href="#DejaVuSans-4e" x="147.314453"/>
    </g>
   </g>
   <g id="text_23">
    <!-- MiniRocket -->
    <g transform="translate(288.85958 107.078314) scale(0.08 -0.08)">
     <defs>
      <path id="DejaVuSans-6b" d="M 581 4863 
L 1159 4863 
L 1159 1991 
L 2875 3500 
L 3609 3500 
L 1753 1863 
L 3688 0 
L 2938 0 
L 1159 1709 
L 1159 0 
L 581 0 
L 581 4863 
z
" transform="scale(0.015625)"/>
     </defs>
     <use xlink:href="#DejaVuSans-4d"/>
     <use xlink:href="#DejaVuSans-69" x="86.279297"/>
     <use xlink:href="#DejaVuSans-6e" x="114.0625"/>
     <use xlink:href="#DejaVuSans-69" x="177.441406"/>
     <use xlink:href="#DejaVuSans-52" x="205.224609"/>
     <use xlink:href="#DejaVuSans-6f" x="270.207031"/>
     <use xlink:href="#DejaVuSans-63" x="331.388672"/>
     <use xlink:href="#DejaVuSans-6b" x="386.369141"/>
     <use xlink:href="#DejaVuSans-65" x="440.654297"/>
     <use xlink:href="#DejaVuSans-74" x="502.177734"/>
    </g>
   </g>
   <g id="text_24">
    <!-- IForest -->
    <g transform="translate(116.437201 130.161374) scale(0.08 -0.08)">
     <defs>
      <path id="DejaVuSans-49" d="M 628 4666 
L 1259 4666 
L 1259 0 
L 628 0 
L 628 4666 
z
" transform="scale(0.015625)"/>
     </defs>
     <use xlink:href="#DejaVuSans-49"/>
     <use xlink:href="#DejaVuSans-46" x="29.492188"/>
     <use xlink:href="#DejaVuSans-6f" x="83.386719"/>
     <use xlink:href="#DejaVuSans-72" x="144.568359"/>
     <use xlink:href="#DejaVuSans-65" x="183.431641"/>
     <use xlink:href="#DejaVuSans-73" x="244.955078"/>
     <use xlink:href="#DejaVuSans-74" x="297.054688"/>
    </g>
   </g>
   <g id="text_25">
    <!-- AutoEncoder -->
    <g transform="translate(320.925788 130.81491) scale(0.08 -0.08)">
     <defs>
      <path id="DejaVuSans-41" d="M 2188 4044 
L 1331 1722 
L 3047 1722 
L 2188 4044 
z
M 1831 4666 
L 2547 4666 
L 4325 0 
L 3669 0 
L 3244 1197 
L 1141 1197 
L 716 0 
L 50 0 
L 1831 4666 
z
" transform="scale(0.015625)"/>
      <path id="DejaVuSans-45" d="M 628 4666 
L 3578 4666 
L 3578 4134 
L 1259 4134 
L 1259 2753 
L 3481 2753 
L 3481 2222 
L 1259 2222 
L 1259 531 
L 3634 531 
L 3634 0 
L 628 0 
L 628 4666 
z
" transform="scale(0.015625)"/>
     </defs>
     <use xlink:href="#DejaVuSans-41"/>
     <use xlink:href="#DejaVuSans-75" x="68.408203"/>
     <use xlink:href="#DejaVuSans-74" x="131.787109"/>
     <use xlink:href="#DejaVuSans-6f" x="170.996094"/>
     <use xlink:href="#DejaVuSans-45" x="232.177734"/>
     <use xlink:href="#DejaVuSans-6e" x="295.361328"/>
     <use xlink:href="#DejaVuSans-63" x="358.740234"/>
     <use xlink:href="#DejaVuSans-6f" x="413.720703"/>
     <use xlink:href="#DejaVuSans-64" x="474.902344"/>
     <use xlink:href="#DejaVuSans-65" x="538.378906"/>
     <use xlink:href="#DejaVuSans-72" x="599.902344"/>
    </g>
   </g>
   <g id="text_26">
    <!-- ECOD -->
    <g transform="translate(156.150883 135.509817) scale(0.08 -0.08)">
     <defs>
      <path id="DejaVuSans-4f" d="M 2522 4238 
Q 1834 4238 1429 3725 
Q 1025 3213 1025 2328 
Q 1025 1447 1429 934 
Q 1834 422 2522 422 
Q 3209 422 3611 934 
Q 4013 1447 4013 2328 
Q 4013 3213 3611 3725 
Q 3209 4238 2522 4238 
z
M 2522 4750 
Q 3503 4750 4090 4092 
Q 4678 3434 4678 2328 
Q 4678 1225 4090 567 
Q 3503 -91 2522 -91 
Q 1538 -91 948 565 
Q 359 1222 359 2328 
Q 359 3434 948 4092 
Q 1538 4750 2522 4750 
z
" transform="scale(0.015625)"/>
      <path id="DejaVuSans-44" d="M 1259 4147 
L 1259 519 
L 2022 519 
Q 2988 519 3436 956 
Q 3884 1394 3884 2338 
Q 3884 3275 3436 3711 
Q 2988 4147 2022 4147 
L 1259 4147 
z
M 628 4666 
L 1925 4666 
Q 3281 4666 3915 4102 
Q 4550 3538 4550 2338 
Q 4550 1131 3912 565 
Q 3275 0 1925 0 
L 628 0 
L 628 4666 
z
" transform="scale(0.015625)"/>
     </defs>
     <use xlink:href="#DejaVuSans-45"/>
     <use xlink:href="#DejaVuSans-43" x="63.183594"/>
     <use xlink:href="#DejaVuSans-4f" x="133.007812"/>
     <use xlink:href="#DejaVuSans-44" x="211.71875"/>
    </g>
   </g>
   <g id="text_27">
    <!-- COPOD -->
    <g transform="translate(163.630156 145.601492) scale(0.08 -0.08)">
     <use xlink:href="#DejaVuSans-43"/>
     <use xlink:href="#DejaVuSans-4f" x="69.824219"/>
     <use xlink:href="#DejaVuSans-50" x="148.535156"/>
     <use xlink:href="#DejaVuSans-4f" x="208.837891"/>
     <use xlink:href="#DejaVuSans-44" x="287.548828"/>
    </g>
   </g>
   <g id="text_28">
    <!-- KNN -->
    <g transform="translate(102.650586 148.912205) scale(0.08 -0.08)">
     <defs>
      <path id="DejaVuSans-4b" d="M 628 4666 
L 1259 4666 
L 1259 2694 
L 3353 4666 
L 4166 4666 
L 1850 2491 
L 4331 0 
L 3500 0 
L 1259 2247 
L 1259 0 
L 628 0 
L 628 4666 
z
" transform="scale(0.015625)"/>
     </defs>
     <use xlink:href="#DejaVuSans-4b"/>
     <use xlink:href="#DejaVuSans-4e" x="65.576172"/>
     <use xlink:href="#DejaVuSans-4e" x="140.380859"/>
    </g>
   </g>
   <g id="text_29">
    <!-- LSTM-AE -->
    <g transform="translate(313.812947 141.477497) scale(0.08 -0.08)">
     <defs>
      <path id="DejaVuSans-53" d="M 3425 4513 
L 3425 3897 
Q 3066 4069 2747 4153 
Q 2428 4238 2131 4238 
Q 1616 4238 1336 4038 
Q 1056 3838 1056 3469 
Q 1056 3159 1242 3001 
Q 1428 2844 1947 2747 
L 2328 2669 
Q 3034 2534 3370 2195 
Q 3706 1856 3706 1288 
Q 3706 609 3251 259 
Q 2797 -91 1919 -91 
Q 1588 -91 1214 -16 
Q 841 59 441 206 
L 441 856 
Q 825 641 1194 531 
Q 1563 422 1919 422 
Q 2459 422 2753 634 
Q 3047 847 3047 1241 
Q 3047 1584 2836 1778 
Q 2625 1972 2144 2069 
L 1759 2144 
Q 1053 2284 737 2584 
Q 422 2884 422 3419 
Q 422 4038 858 4394 
Q 1294 4750 2059 4750 
Q 2388 4750 2728 4690 
Q 3069 4631 3425 4513 
z
" transform="scale(0.015625)"/>
      <path id="DejaVuSans-2d" d="M 313 2009 
L 1997 2009 
L 1997 1497 
L 313 1497 
L 313 2009 
z
" transform="scale(0.015625)"/>
     </defs>
     <use xlink:href="#DejaVuSans-4c"/>
     <use xlink:href="#DejaVuSans-53" x="55.712891"/>
     <use xlink:href="#DejaVuSans-54" x="119.189453"/>
     <use xlink:href="#DejaVuSans-4d" x="180.273438"/>
     <use xlink:href="#DejaVuSans-2d" x="266.552734"/>
     <use xlink:href="#DejaVuSans-41" x="300.386719"/>
     <use xlink:href="#DejaVuSans-45" x="368.794922"/>
    </g>
   </g>
   <g id="text_30">
    <!-- DeepSVDD -->
    <g transform="translate(259.841101 144.355388) scale(0.08 -0.08)">
     <defs>
      <path id="DejaVuSans-56" d="M 1831 0 
L 50 4666 
L 709 4666 
L 2188 738 
L 3669 4666 
L 4325 4666 
L 2547 0 
L 1831 0 
z
" transform="scale(0.015625)"/>
     </defs>
     <use xlink:href="#DejaVuSans-44"/>
     <use xlink:href="#DejaVuSans-65" x="77.001953"/>
     <use xlink:href="#DejaVuSans-65" x="138.525391"/>
     <use xlink:href="#DejaVuSans-70" x="200.048828"/>
     <use xlink:href="#DejaVuSans-53" x="263.525391"/>
     <use xlink:href="#DejaVuSans-56" x="327.001953"/>
     <use xlink:href="#DejaVuSans-44" x="395.410156"/>
     <use xlink:href="#DejaVuSans-44" x="472.412109"/>
    </g>
   </g>
   <g id="text_31">
    <!-- IQR -->
    <g transform="translate(64.785034 150.033582) scale(0.08 -0.08)">
     <defs>
      <path id="DejaVuSans-51" d="M 2522 4238 
Q 1834 4238 1429 3725 
Q 1025 3213 1025 2328 
Q 1025 1447 1429 934 
Q 1834 422 2522 422 
Q 3209 422 3611 934 
Q 4013 1447 4013 2328 
Q 4013 3213 3611 3725 
Q 3209 4238 2522 4238 
z
M 3406 84 
L 4238 -825 
L 3475 -825 
L 2784 -78 
Q 2681 -84 2626 -87 
Q 2572 -91 2522 -91 
Q 1538 -91 948 567 
Q 359 1225 359 2328 
Q 359 3434 948 4092 
Q 1538 4750 2522 4750 
Q 3503 4750 4090 4092 
Q 4678 3434 4678 2328 
Q 4678 1516 4351 937 
Q 4025 359 3406 84 
z
" transform="scale(0.015625)"/>
     </defs>
     <use xlink:href="#DejaVuSans-49"/>
     <use xlink:href="#DejaVuSans-51" x="29.492188"/>
     <use xlink:href="#DejaVuSans-52" x="108.203125"/>
    </g>
   </g>
   <g id="text_32">
    <!-- OCSVM -->
    <g transform="translate(163.133637 158.105984) scale(0.08 -0.08)">
     <use xlink:href="#DejaVuSans-4f"/>
     <use xlink:href="#DejaVuSans-43" x="78.710938"/>
     <use xlink:href="#DejaVuSans-53" x="148.535156"/>
     <use xlink:href="#DejaVuSans-56" x="212.011719"/>
     <use xlink:href="#DejaVuSans-4d" x="280.419922"/>
    </g>
   </g>
   <g id="text_33">
    <!-- LSTM-Sup -->
    <g transform="translate(304.192225 163.126658) scale(0.08 -0.08)">
     <use xlink:href="#DejaVuSans-4c"/>
     <use xlink:href="#DejaVuSans-53" x="55.712891"/>
     <use xlink:href="#DejaVuSans-54" x="119.189453"/>
     <use xlink:href="#DejaVuSans-4d" x="180.273438"/>
     <use xlink:href="#DejaVuSans-2d" x="266.552734"/>
     <use xlink:href="#DejaVuSans-53" x="302.636719"/>
     <use xlink:href="#DejaVuSans-75" x="366.113281"/>
     <use xlink:href="#DejaVuSans-70" x="429.492188"/>
    </g>
   </g>
   <g id="text_34">
    <!-- LOF -->
    <g transform="translate(106.919959 196.690573) scale(0.08 -0.08)">
     <use xlink:href="#DejaVuSans-4c"/>
     <use xlink:href="#DejaVuSans-4f" x="52.087891"/>
     <use xlink:href="#DejaVuSans-46" x="130.798828"/>
    </g>
   </g>
   <g id="text_35">
    <!-- DADA -->
    <g transform="translate(333.088509 197.329112) scale(0.08 -0.08)">
     <use xlink:href="#DejaVuSans-44"/>
     <use xlink:href="#DejaVuSans-41" x="75.251953"/>
     <use xlink:href="#DejaVuSans-44" x="143.660156"/>
     <use xlink:href="#DejaVuSans-41" x="218.912109"/>
    </g>
   </g>
   <g id="text_36">
    <!-- MatrixProfile -->
    <g transform="translate(360.081502 218.019259) scale(0.08 -0.08)">
     <defs>
      <path id="DejaVuSans-78" d="M 3513 3500 
L 2247 1797 
L 3578 0 
L 2900 0 
L 1881 1375 
L 863 0 
L 184 0 
L 1544 1831 
L 300 3500 
L 978 3500 
L 1906 2253 
L 2834 3500 
L 3513 3500 
z
" transform="scale(0.015625)"/>
     </defs>
     <use xlink:href="#DejaVuSans-4d"/>
     <use xlink:href="#DejaVuSans-61" x="86.279297"/>
     <use xlink:href="#DejaVuSans-74" x="147.558594"/>
     <use xlink:href="#DejaVuSans-72" x="186.767578"/>
     <use xlink:href="#DejaVuSans-69" x="227.880859"/>
     <use xlink:href="#DejaVuSans-78" x="255.664062"/>
     <use xlink:href="#DejaVuSans-50" x="314.84375"/>
     <use xlink:href="#DejaVuSans-72" x="373.396484"/>
     <use xlink:href="#DejaVuSans-6f" x="412.259766"/>
     <use xlink:href="#DejaVuSans-66" x="473.441406"/>
     <use xlink:href="#DejaVuSans-69" x="508.646484"/>
     <use xlink:href="#DejaVuSans-6c" x="536.429688"/>
     <use xlink:href="#DejaVuSans-65" x="564.212891"/>
    </g>
   </g>
   <g id="text_37">
    <!-- DOMINANT -->
    <g transform="translate(446.106875 232.974135) scale(0.08 -0.08)">
     <use xlink:href="#DejaVuSans-44"/>
     <use xlink:href="#DejaVuSans-4f" x="77.001953"/>
     <use xlink:href="#DejaVuSans-4d" x="155.712891"/>
     <use xlink:href="#DejaVuSans-49" x="241.992188"/>
     <use xlink:href="#DejaVuSans-4e" x="271.484375"/>
     <use xlink:href="#DejaVuSans-41" x="346.289062"/>
     <use xlink:href="#DejaVuSans-4e" x="414.697266"/>
     <use xlink:href="#DejaVuSans-54" x="489.501953"/>
    </g>
   </g>
   <g id="text_38">
    <!-- UNPrompt -->
    <g transform="translate(292.01055 265.054423) scale(0.08 -0.08)">
     <defs>
      <path id="DejaVuSans-55" d="M 556 4666 
L 1191 4666 
L 1191 1831 
Q 1191 1081 1462 751 
Q 1734 422 2344 422 
Q 2950 422 3222 751 
Q 3494 1081 3494 1831 
L 3494 4666 
L 4128 4666 
L 4128 1753 
Q 4128 841 3676 375 
Q 3225 -91 2344 -91 
Q 1459 -91 1007 375 
Q 556 841 556 1753 
L 556 4666 
z
" transform="scale(0.015625)"/>
     </defs>
     <use xlink:href="#DejaVuSans-55"/>
     <use xlink:href="#DejaVuSans-4e" x="73.193359"/>
     <use xlink:href="#DejaVuSans-50" x="147.998047"/>
     <use xlink:href="#DejaVuSans-72" x="206.550781"/>
     <use xlink:href="#DejaVuSans-6f" x="245.414062"/>
     <use xlink:href="#DejaVuSans-6d" x="306.595703"/>
     <use xlink:href="#DejaVuSans-70" x="404.007812"/>
     <use xlink:href="#DejaVuSans-74" x="467.484375"/>
    </g>
   </g>
   <g id="text_39">
    <!-- CoLA -->
    <g transform="translate(430.728332 312.345625) scale(0.08 -0.08)">
     <use xlink:href="#DejaVuSans-43"/>
     <use xlink:href="#DejaVuSans-6f" x="69.824219"/>
     <use xlink:href="#DejaVuSans-4c" x="131.005859"/>
     <use xlink:href="#DejaVuSans-41" x="188.96875"/>
    </g>
   </g>
   <g id="text_40">
    <!-- Exp-1 performance-efficiency tradeoff -->
    <g transform="translate(152.655937 16.318125) scale(0.12 -0.12)">
     <use xlink:href="#DejaVuSans-45"/>
     <use xlink:href="#DejaVuSans-78" x="63.183594"/>
     <use xlink:href="#DejaVuSans-70" x="122.363281"/>
     <use xlink:href="#DejaVuSans-2d" x="185.839844"/>
     <use xlink:href="#DejaVuSans-31" x="221.923828"/>
     <use xlink:href="#DejaVuSans-20" x="285.546875"/>
     <use xlink:href="#DejaVuSans-70" x="317.333984"/>
     <use xlink:href="#DejaVuSans-65" x="380.810547"/>
     <use xlink:href="#DejaVuSans-72" x="442.333984"/>
     <use xlink:href="#DejaVuSans-66" x="483.447266"/>
     <use xlink:href="#DejaVuSans-6f" x="518.652344"/>
     <use xlink:href="#DejaVuSans-72" x="579.833984"/>
     <use xlink:href="#DejaVuSans-6d" x="619.197266"/>
     <use xlink:href="#DejaVuSans-61" x="716.609375"/>
     <use xlink:href="#DejaVuSans-6e" x="777.888672"/>
     <use xlink:href="#DejaVuSans-63" x="841.267578"/>
     <use xlink:href="#DejaVuSans-65" x="896.248047"/>
     <use xlink:href="#DejaVuSans-2d" x="957.771484"/>
     <use xlink:href="#DejaVuSans-65" x="993.855469"/>
     <use xlink:href="#DejaVuSans-66" x="1055.378906"/>
     <use xlink:href="#DejaVuSans-66" x="1090.583984"/>
     <use xlink:href="#DejaVuSans-69" x="1125.789062"/>
     <use xlink:href="#DejaVuSans-63" x="1153.572266"/>
     <use xlink:href="#DejaVuSans-69" x="1208.552734"/>
     <use xlink:href="#DejaVuSans-65" x="1236.335938"/>
     <use xlink:href="#DejaVuSans-6e" x="1297.859375"/>
     <use xlink:href="#DejaVuSans-63" x="1361.238281"/>
     <use xlink:href="#DejaVuSans-79" x="1416.21875"/>
     <use xlink:href="#DejaVuSans-20" x="1475.398438"/>
     <use xlink:href="#DejaVuSans-74" x="1507.185547"/>
     <use xlink:href="#DejaVuSans-72" x="1546.394531"/>
     <use xlink:href="#DejaVuSans-61" x="1587.507812"/>
     <use xlink:href="#DejaVuSans-64" x="1648.787109"/>
     <use xlink:href="#DejaVuSans-65" x="1712.263672"/>
     <use xlink:href="#DejaVuSans-6f" x="1773.787109"/>
     <use xlink:href="#DejaVuSans-66" x="1834.96875"/>
     <use xlink:href="#DejaVuSans-66" x="1870.173828"/>
    </g>
   </g>
   <g id="legend_1">
    <g id="patch_15">
     <path d="M 404.4025 323.238125 
L 484.58125 323.238125 
Q 486.18125 323.238125 486.18125 321.638125 
L 486.18125 298.953125 
Q 486.18125 297.353125 484.58125 297.353125 
L 404.4025 297.353125 
Q 402.8025 297.353125 402.8025 298.953125 
L 402.8025 321.638125 
Q 402.8025 323.238125 404.4025 323.238125 
z
" style="fill: #ffffff; opacity: 0.8; stroke: #cccccc; stroke-linejoin: miter"/>
    </g>
    <g id="line2d_59">
     <path d="M 406.0025 303.831875 
L 414.0025 303.831875 
L 422.0025 303.831875 
" style="fill: none; stroke: #ffffff; stroke-width: 1.5; stroke-linecap: square"/>
     <defs>
      <path id="m1f78acf01c" d="M 0 4 
C 1.060812 4 2.078319 3.578535 2.828427 2.828427 
C 3.578535 2.078319 4 1.060812 4 0 
C 4 -1.060812 3.578535 -2.078319 2.828427 -2.828427 
C 2.078319 -3.578535 1.060812 -4 0 -4 
C -1.060812 -4 -2.078319 -3.578535 -2.828427 -2.828427 
C -3.578535 -2.078319 -4 -1.060812 -4 0 
C -4 1.060812 -3.578535 2.078319 -2.828427 2.828427 
C -2.078319 3.578535 -1.060812 4 0 4 
z
" style="stroke: #000000; stroke-width: 0.4"/>
     </defs>
     <g>
      <use xlink:href="#m1f78acf01c" x="414.0025" y="303.831875" style="fill: #4c78a8; stroke: #000000; stroke-width: 0.4"/>
     </g>
    </g>
    <g id="text_41">
     <!-- Unsupervised -->
     <g transform="translate(428.4025 306.631875) scale(0.08 -0.08)">
      <defs>
       <path id="DejaVuSans-76" d="M 191 3500 
L 800 3500 
L 1894 563 
L 2988 3500 
L 3597 3500 
L 2284 0 
L 1503 0 
L 191 3500 
z
" transform="scale(0.015625)"/>
      </defs>
      <use xlink:href="#DejaVuSans-55"/>
      <use xlink:href="#DejaVuSans-6e" x="73.193359"/>
      <use xlink:href="#DejaVuSans-73" x="136.572266"/>
      <use xlink:href="#DejaVuSans-75" x="188.671875"/>
      <use xlink:href="#DejaVuSans-70" x="252.050781"/>
      <use xlink:href="#DejaVuSans-65" x="315.527344"/>
      <use xlink:href="#DejaVuSans-72" x="377.050781"/>
      <use xlink:href="#DejaVuSans-76" x="418.164062"/>
      <use xlink:href="#DejaVuSans-69" x="477.34375"/>
      <use xlink:href="#DejaVuSans-73" x="505.126953"/>
      <use xlink:href="#DejaVuSans-65" x="557.226562"/>
      <use xlink:href="#DejaVuSans-64" x="618.75"/>
     </g>
    </g>
    <g id="line2d_60">
     <path d="M 406.0025 315.574375 
L 414.0025 315.574375 
L 422.0025 315.574375 
" style="fill: none; stroke: #ffffff; stroke-width: 1.5; stroke-linecap: square"/>
     <defs>
      <path id="ma24244b986" d="M 0 4 
C 1.060812 4 2.078319 3.578535 2.828427 2.828427 
C 3.578535 2.078319 4 1.060812 4 0 
C 4 -1.060812 3.578535 -2.078319 2.828427 -2.828427 
C 2.078319 -3.578535 1.060812 -4 0 -4 
C -1.060812 -4 -2.078319 -3.578535 -2.828427 -2.828427 
C -3.578535 -2.078319 -4 -1.060812 -4 0 
C -4 1.060812 -3.578535 2.078319 -2.828427 2.828427 
C -2.078319 3.578535 -1.060812 4 0 4 
z
" style="stroke: #000000; stroke-width: 0.4"/>
     </defs>
     <g>
      <use xlink:href="#ma24244b986" x="414.0025" y="315.574375" style="fill: #f58518; stroke: #000000; stroke-width: 0.4"/>
     </g>
    </g>
    <g id="text_42">
     <!-- Supervised -->
     <g transform="translate(428.4025 318.374375) scale(0.08 -0.08)">
      <use xlink:href="#DejaVuSans-53"/>
      <use xlink:href="#DejaVuSans-75" x="63.476562"/>
      <use xlink:href="#DejaVuSans-70" x="126.855469"/>
      <use xlink:href="#DejaVuSans-65" x="190.332031"/>
      <use xlink:href="#DejaVuSans-72" x="251.855469"/>
      <use xlink:href="#DejaVuSans-76" x="292.96875"/>
      <use xlink:href="#DejaVuSans-69" x="352.148438"/>
      <use xlink:href="#DejaVuSans-73" x="379.931641"/>
      <use xlink:href="#DejaVuSans-65" x="432.03125"/>
      <use xlink:href="#DejaVuSans-64" x="493.554688"/>
     </g>
    </g>
   </g>
  </g>
 </g>
 <defs>
  <clipPath id="p3ac9027248">
   <rect x="43.78125" y="22.318125" width="446.4" height="304.92"/>
  </clipPath>
 </defs>
</svg>
